<mxfile host="Electron" modified="2024-05-15T22:18:55.516Z" agent="Mozilla/5.0 (X11; Linux x86_64) AppleWebKit/537.36 (KHTML, like Gecko) draw.io/24.2.5 Chrome/120.0.6099.109 Electron/28.1.0 Safari/537.36" etag="qgLdFn_az2OMqAYvP6Bp" version="24.2.5" type="device">
  <diagram name="triangle-task" id="l5UGrp-QYAqSBYbW6wcJ">
    <mxGraphModel dx="5917" dy="3747" grid="1" gridSize="10" guides="1" tooltips="1" connect="1" arrows="1" fold="1" page="1" pageScale="1" pageWidth="583" pageHeight="413" math="0" shadow="0">
      <root>
        <mxCell id="i0zt0oU-3AJXrjKHt_ms-0" />
        <mxCell id="i0zt0oU-3AJXrjKHt_ms-1" parent="i0zt0oU-3AJXrjKHt_ms-0" />
        <mxCell id="N2LMkY_gqF_srAPKnr6s-36" value="&lt;b&gt;&lt;font style=&quot;font-size: 30px;&quot;&gt;S&lt;/font&gt;&lt;/b&gt;" style="text;strokeColor=default;align=center;fillColor=none;html=1;verticalAlign=middle;whiteSpace=wrap;rounded=0;container=0;" vertex="1" parent="i0zt0oU-3AJXrjKHt_ms-1">
          <mxGeometry x="-877.9399999999998" y="-1143.57" width="30" height="30" as="geometry" />
        </mxCell>
        <mxCell id="N2LMkY_gqF_srAPKnr6s-37" value="&lt;b&gt;&lt;font color=&quot;#ff0000&quot; style=&quot;font-size: 30px;&quot;&gt;A&lt;/font&gt;&lt;/b&gt;" style="text;strokeColor=default;align=center;fillColor=none;html=1;verticalAlign=middle;whiteSpace=wrap;rounded=0;container=0;" vertex="1" parent="i0zt0oU-3AJXrjKHt_ms-1">
          <mxGeometry x="-907.9399999999998" y="-1144.1" width="30" height="30" as="geometry" />
        </mxCell>
        <mxCell id="N2LMkY_gqF_srAPKnr6s-38" value="&lt;b&gt;&lt;font color=&quot;#66b2ff&quot; style=&quot;font-size: 30px;&quot;&gt;B&lt;/font&gt;&lt;/b&gt;" style="text;strokeColor=default;align=center;fillColor=none;html=1;verticalAlign=middle;whiteSpace=wrap;rounded=0;container=0;" vertex="1" parent="i0zt0oU-3AJXrjKHt_ms-1">
          <mxGeometry x="-878.9999999999998" y="-1113.57" width="30" height="30" as="geometry" />
        </mxCell>
        <mxCell id="N2LMkY_gqF_srAPKnr6s-39" value="" style="shape=image;aspect=fixed;image=data:image/png,iVBORw0KGgoAAAANSUhEUgAAAKAAAACgCAYAAACLz2ctAAAABGdBTUEAALGPC/xhBQAAACBjSFJNAAB6JgAAgIQAAPoAAACA6AAAdTAAAOpgAAA6mAAAF3CculE8AAAACXBIWXMAAKf7AACn+wE8Q2ENAAAAB3RJTUUH5gIaDTIzE9UQkAAAAAZiS0dEAP8A/wD/oL2nkwAAC7FJREFUeNrtXW2MHVUZnm23rW13gVKgxg8+SjHix4+CitAYUTBiKCUiSnfvzNxdbNVSCkWMiEqoFFG+hGBI8COIFALdOzN3Kyn1i4o2kkBUgpgqaCKlUHZ3Zu52i7Qg0uv7njmz3bTd3bv3zp05d87zJE9u4Ae09zz3Ped9z/O+xzAAAAAAAAAAAKgJllsxuku76TOca7vhdCK+FCBNAQbMDuKtxA/xPwNAKlju7TbsSICfJ+4lbiDOhgiBNKPfccRtxCrxP8QvWB79ewciBJosviKd9+hzLfF/UoDMJ4nvQhQE0oh+7yH+Y4z4mPuJN9je4DTL8/FFAc0Rn+350+nz9oPEF3MX8UwhUogQSFR8/ZU4+i0hDowjQKZLCUqnja0YSDb6+cw5JLCHJxAfcx+x1xLnRERBIAGYXhBHv8/JjLc6CZ8hLkRCAiSZeBxL/H0N4ot5O23D7diKgYajn13i7Te48qCyy2T0ieeIsg1qg0CD0e8U4t+nIL6YW4jzsBUD9YmPIpdVCqfJ+95qHfwvcXV3OTSKJYgQmAJWbt4RRz+u671SpwCrsmB9qqghIisGprj1ssHgoQbEF/Me2wlm2jgLArVtvWEswIuIryYgwN3EpeK/uWEAXzBQc9nl8QTEF/Nx6aDBFwxMID5KGKyo7LKG+GaCAuQSzjVL737RsD2IEJg4+i0ibk9QfDFfIC5GFATGFR9lqlx2ubkJ4ot5v+VRcoMoCIwT/Rotu0zGyD0txI5GJmBUfJz5hlx2ebCJ4oN7GjgUpjPq9ftsQmWXySjc02Y5mIatGIjE5wTH0OfvUhDfWPf0WYiCmqNYDigCiuh3ecJll1roETshQiQeJxP/lrL4mK9H7mlfnEEB3c5+roh+XHb5fgbii/lX+QPAgmga/c6Q57FqhvwBsR0i1Cn6UfZpej6XXR7IWHzMgN3Tpmx6B3KObne0yehC4h4FBAj3tIZb73ziVkXEF7un11glbmqHCPMtvqjN8jK56FWF+BzxfYiCORegmV3ZpSb3tOUEMyHCPIrPETceXHb5nqLii93TF4gfioeEJD+Jh+fHZ7+PEF9WWIBV2QAP93QOE4+3yWmmVcUp3NNdD0UmCaDF8WV3byzAZQqVXWpxT5/Gf+5L+3dhEXNw9uOyy2MtIr6YG0wnmI2xv62/9TJXKVh2qcU9fQmXjbo3DmMxW1iAPCrt2RYTX8yn4J5uUdiU+RbLg1x2ualFxTfqnpblIyxqq8Ds2xNHvw8TX2phAcI93ZLRz/WZXHb5eYuLD+7p1hPfaOLBNwojOREgu6cvjZMqQP3E42jib3MiPrinW+bs5wRi9got0ldasOxSm3vaC9th2VI7+p0ko0U1h2T39LnCrODArKBW9KNF6XKDNlqcG3Mqvpi/lEcMLLqC0Y/f7t2ZcwFy//KaHmeEfnRDWHiFxDeLeF/OxRfzebinVdl6vdHZLktzVHaphT8yvWCWiYREiejHHWW/1kh8VfljWxa1GSAhyQRd3rBRFKMtgi/ltOwyqXuakq8F2IqzjX4nygcCqxryLeI3VvXtwDskWYjPdnwuu6zXVHyHuKdNmFdTj36na1B2qYU8YmQOtuK0xBfZ7Lns8jOIb9Q9vZy34UIZ7ummYozb5XzZRwsBHnBPvxtRML2yy68gukPc0+tNL4R7umlF574wdrusJL4B0R3WPb3EEvfieJeuWdHvBOLTEBvc0+mXXdwhLrt8ByKbkPvYPW07odFdRm0w6ejH9a4XIbLa3dMrNo1APMkUnUXZ5V6Iq2bewe5pmBUaRJczEEe/z6DsUp97Gmh86z1KOoEhLLinUxSfF0S3Hm6wAmWX+mdP9zi+aFkA6ot+x6Ps0rB7+v2IgnXc99p9IZdd1kFEDfPHthvOgghrve/1wjj68RP3OyCg5NzTFto5axBg5HbhafE/hXgS4x8suKendPY7jzgM4STqnr62q28YTe2Tis8TZZdHIZrEuUOaeCG0w8Es+YZdDlF2abJ72naDOTZEOO7WuzDHs11UcU9fLK438RjOWPH53GSU9QPSunAbHsMZ3+3yEgSSymM4V1gO91QjCoprIjN6NfxuiCM1Po0J/Ox2OdBkdLq0lEMc6ZVl1vJ9u9b9xDzXpOAOt4npnxBFFp10ehenZfRbRPwXBJGJW8bikkxBRxF2lwZjAV4h2wohivS5yXaC2baO23AkPv8I+twKIWRGn3iGltuwjH4fg9U+c66zS75R6NeoJMPNMnbkdl4PAShRmD5Kqygoo9+R0iYEEWTLYe3eoxsz1T6AAJTg1bwmBU+DZvZeZzgW4GXIftUZ6UHHoplavMIUjdkQU5zuw8Ir1bykx3g3SwwW9+fTX/ZPWHhl+CrxbE0EKLbfDxIHsfBKcbWYJ/MLXwsBXgjXs3K8y+zP+ZvERWfU/fJVLLhyfFTM3s7ztRxffF8ijJDBXVhw5fgX4vxcR0C+/aAo2C4neWLR1XtzJN+vsssp9x38zBQWXDlW5DSK3Ccgx2LgkLIdcx/PtwA90XjOvQjPYcGV4+vEC3SIgCfK8wYWXT2H9MU6CPBktF8qyTf5yS8IEMxSgF06CHAhnlvAFpylAI9HFxySkCwFuAADiFCGyQRyDAdb8Z/AgqMQnb4AeRSEJ8bvbsaCKznAMv9Xcb2e34b5zzAjZCZAMzoHXocFV45baG3y/5yDTEQKck4dFl4d/rCwZciwHD0E+FFMRFCOl/PaFL0RLQT4DuJ2LLpSJZhP6tGUFDliOBMuY+GV4T+JJ2ghwILjx8bUb2Lh1RnTZumQgBy0DZ8j+1EhgOx5jRjN4Q5pJcC3E5/B4mfOETkmz9AG/Jc1HfEcKybjZ88n6Ew+T4u5MIeJgtygvg8iyJQ3Fkq+USyHWgpwgbwCghCyMyAs0XRE77BhebswJTXz67dwrqnri0nWgUdqBiCGTCz4K8S4PMfXWoAziPdDEKmTKxDvtHR+qIb9gVKEn8LdcOq8lkfy2rq/oC4FOJtYgihS43bZHGZojzEj286VE9shkOZyv4h+Zd+wHQjwQBT0xF3kvRBI0/lnC0+1jrsVL5a9CRBK81ove/mJVtvzIbqx4C9k1eZ/G/JiHG7p5tC1XL8T0W/iKHgM8TcQS+Lcaen6MGEdIuQnA/CCenLkgfBXmZuG2ixsvZNsxS5lZyXRunk1Juknxo3EIxD9phYF+Qt7AOJpmDyN9r3iOy1XIK6aaoOlSizCk4h/hIjq5ivE8yzZjw1M5ZquHMYiPEs2zUBQU+Me4soep9JmQ3z13hVHd5VybBiSkqnV+66zXH8mv80HNHIe5Ku6hyuclJhEH+KqadDkLcQ5SDoSvarz+YnXXguPXE8mvjuJKDY3JzP2p9NnEQbWcbfdWyC+pm7HvmH1iRrhRXjq4ZCE49u0S2DbTSMS9ngiMeFxsnj0OkrOvmi54QzLDSGQNNDjVChDHjJkgdWT/Q26WqvYR9mGyJcyCn1hNOjIDeYRb5Athjqd9x4knlKk3aDbGYAgsrs7Zm+beAJ2KfFJ6fjNs/hekLP8OhD1lDkXcjT04zdIbs1pvXCvNBWcRj843G6omSWHTI6GnyA+Ihet1YXH5tyniBZHPTnaDoutKop9I3GC0infPtvWoraut2T32td5omxXedgo4lqthZKUcsXo3ThoyKcH+BpvK/G1FplY8Cx3rrEbqLefttsyIl7LYrk7YtiOEOKR0tTA2ePLMsKoNqePWxFWctcaj68z0TaZH1z5k6pw11iOmE/9AeLXiI/JhCWrzPk1OR3sNtmG0Bn3SQN5TlZoSzMf4YUOO+RwpLVyMsPzTd6m35A3F3wcuIn4aeJxpsvXizjfaVrCCQy77HNRe4Ys4/DNwlWySX6rNMMGcpDm/im4UnbLTjS+LnSI6+Qd9qn0/+oo9Ad0TkWkAw4Ds79iWP3CgzjXjKYILJbRqpu4mvgtOdfwZsnvEq+XwmXL2DLimcRFxKMpwrWLeYjuTny5AAAAAAAAgLb4P54Tmg2IiGNXAAAAJXRFWHRkYXRlOmNyZWF0ZQAyMDIyLTAyLTI2VDEzOjUwOjI4KzAwOjAw8Y04QAAAACV0RVh0ZGF0ZTptb2RpZnkAMjAyMi0wMi0yNlQxMzo1MDoyOCswMDowMIDQgPwAAAAZdEVYdFNvZnR3YXJlAHd3dy5pbmtzY2FwZS5vcmeb7jwaAAAAAElFTkSuQmCC;container=0;" vertex="1" parent="i0zt0oU-3AJXrjKHt_ms-1">
          <mxGeometry x="-908.9999999999998" y="-1544.1" width="30.53" height="30.53" as="geometry" />
        </mxCell>
        <mxCell id="N2LMkY_gqF_srAPKnr6s-40" value="" style="shape=image;aspect=fixed;image=data:image/png,iVBORw0KGgoAAAANSUhEUgAAAKAAAACgCAYAAACLz2ctAAAABGdBTUEAALGPC/xhBQAAACBjSFJNAAB6JgAAgIQAAPoAAACA6AAAdTAAAOpgAAA6mAAAF3CculE8AAAACXBIWXMAAKf7AACn+wE8Q2ENAAAAB3RJTUUH5gIaDTIzE9UQkAAAAAZiS0dEAP8A/wD/oL2nkwAAC7FJREFUeNrtXW2MHVUZnm23rW13gVKgxg8+SjHix4+CitAYUTBiKCUiSnfvzNxdbNVSCkWMiEqoFFG+hGBI8COIFALdOzN3Kyn1i4o2kkBUgpgqaCKlUHZ3Zu52i7Qg0uv7njmz3bTd3bv3zp05d87zJE9u4Ae09zz3Ped9z/O+xzAAAAAAAAAAAKgJllsxuku76TOca7vhdCK+FCBNAQbMDuKtxA/xPwNAKlju7TbsSICfJ+4lbiDOhgiBNKPfccRtxCrxP8QvWB79ewciBJosviKd9+hzLfF/UoDMJ4nvQhQE0oh+7yH+Y4z4mPuJN9je4DTL8/FFAc0Rn+350+nz9oPEF3MX8UwhUogQSFR8/ZU4+i0hDowjQKZLCUqnja0YSDb6+cw5JLCHJxAfcx+x1xLnRERBIAGYXhBHv8/JjLc6CZ8hLkRCAiSZeBxL/H0N4ot5O23D7diKgYajn13i7Te48qCyy2T0ieeIsg1qg0CD0e8U4t+nIL6YW4jzsBUD9YmPIpdVCqfJ+95qHfwvcXV3OTSKJYgQmAJWbt4RRz+u671SpwCrsmB9qqghIisGprj1ssHgoQbEF/Me2wlm2jgLArVtvWEswIuIryYgwN3EpeK/uWEAXzBQc9nl8QTEF/Nx6aDBFwxMID5KGKyo7LKG+GaCAuQSzjVL737RsD2IEJg4+i0ibk9QfDFfIC5GFATGFR9lqlx2ubkJ4ot5v+VRcoMoCIwT/Rotu0zGyD0txI5GJmBUfJz5hlx2ebCJ4oN7GjgUpjPq9ftsQmWXySjc02Y5mIatGIjE5wTH0OfvUhDfWPf0WYiCmqNYDigCiuh3ecJll1roETshQiQeJxP/lrL4mK9H7mlfnEEB3c5+roh+XHb5fgbii/lX+QPAgmga/c6Q57FqhvwBsR0i1Cn6UfZpej6XXR7IWHzMgN3Tpmx6B3KObne0yehC4h4FBAj3tIZb73ziVkXEF7un11glbmqHCPMtvqjN8jK56FWF+BzxfYiCORegmV3ZpSb3tOUEMyHCPIrPETceXHb5nqLii93TF4gfioeEJD+Jh+fHZ7+PEF9WWIBV2QAP93QOE4+3yWmmVcUp3NNdD0UmCaDF8WV3byzAZQqVXWpxT5/Gf+5L+3dhEXNw9uOyy2MtIr6YG0wnmI2xv62/9TJXKVh2qcU9fQmXjbo3DmMxW1iAPCrt2RYTX8yn4J5uUdiU+RbLg1x2ualFxTfqnpblIyxqq8Ds2xNHvw8TX2phAcI93ZLRz/WZXHb5eYuLD+7p1hPfaOLBNwojOREgu6cvjZMqQP3E42jib3MiPrinW+bs5wRi9got0ldasOxSm3vaC9th2VI7+p0ko0U1h2T39LnCrODArKBW9KNF6XKDNlqcG3Mqvpi/lEcMLLqC0Y/f7t2ZcwFy//KaHmeEfnRDWHiFxDeLeF/OxRfzebinVdl6vdHZLktzVHaphT8yvWCWiYREiejHHWW/1kh8VfljWxa1GSAhyQRd3rBRFKMtgi/ltOwyqXuakq8F2IqzjX4nygcCqxryLeI3VvXtwDskWYjPdnwuu6zXVHyHuKdNmFdTj36na1B2qYU8YmQOtuK0xBfZ7Lns8jOIb9Q9vZy34UIZ7ummYozb5XzZRwsBHnBPvxtRML2yy68gukPc0+tNL4R7umlF574wdrusJL4B0R3WPb3EEvfieJeuWdHvBOLTEBvc0+mXXdwhLrt8ByKbkPvYPW07odFdRm0w6ejH9a4XIbLa3dMrNo1APMkUnUXZ5V6Iq2bewe5pmBUaRJczEEe/z6DsUp97Gmh86z1KOoEhLLinUxSfF0S3Hm6wAmWX+mdP9zi+aFkA6ot+x6Ps0rB7+v2IgnXc99p9IZdd1kFEDfPHthvOgghrve/1wjj68RP3OyCg5NzTFto5axBg5HbhafE/hXgS4x8suKendPY7jzgM4STqnr62q28YTe2Tis8TZZdHIZrEuUOaeCG0w8Es+YZdDlF2abJ72naDOTZEOO7WuzDHs11UcU9fLK438RjOWPH53GSU9QPSunAbHsMZ3+3yEgSSymM4V1gO91QjCoprIjN6NfxuiCM1Po0J/Ox2OdBkdLq0lEMc6ZVl1vJ9u9b9xDzXpOAOt4npnxBFFp10ehenZfRbRPwXBJGJW8bikkxBRxF2lwZjAV4h2wohivS5yXaC2baO23AkPv8I+twKIWRGn3iGltuwjH4fg9U+c66zS75R6NeoJMPNMnbkdl4PAShRmD5Kqygoo9+R0iYEEWTLYe3eoxsz1T6AAJTg1bwmBU+DZvZeZzgW4GXIftUZ6UHHoplavMIUjdkQU5zuw8Ir1bykx3g3SwwW9+fTX/ZPWHhl+CrxbE0EKLbfDxIHsfBKcbWYJ/MLXwsBXgjXs3K8y+zP+ZvERWfU/fJVLLhyfFTM3s7ztRxffF8ijJDBXVhw5fgX4vxcR0C+/aAo2C4neWLR1XtzJN+vsssp9x38zBQWXDlW5DSK3Ccgx2LgkLIdcx/PtwA90XjOvQjPYcGV4+vEC3SIgCfK8wYWXT2H9MU6CPBktF8qyTf5yS8IEMxSgF06CHAhnlvAFpylAI9HFxySkCwFuAADiFCGyQRyDAdb8Z/AgqMQnb4AeRSEJ8bvbsaCKznAMv9Xcb2e34b5zzAjZCZAMzoHXocFV45baG3y/5yDTEQKck4dFl4d/rCwZciwHD0E+FFMRFCOl/PaFL0RLQT4DuJ2LLpSJZhP6tGUFDliOBMuY+GV4T+JJ2ghwILjx8bUb2Lh1RnTZumQgBy0DZ8j+1EhgOx5jRjN4Q5pJcC3E5/B4mfOETkmz9AG/Jc1HfEcKybjZ88n6Ew+T4u5MIeJgtygvg8iyJQ3Fkq+USyHWgpwgbwCghCyMyAs0XRE77BhebswJTXz67dwrqnri0nWgUdqBiCGTCz4K8S4PMfXWoAziPdDEKmTKxDvtHR+qIb9gVKEn8LdcOq8lkfy2rq/oC4FOJtYgihS43bZHGZojzEj286VE9shkOZyv4h+Zd+wHQjwQBT0xF3kvRBI0/lnC0+1jrsVL5a9CRBK81ove/mJVtvzIbqx4C9k1eZ/G/JiHG7p5tC1XL8T0W/iKHgM8TcQS+Lcaen6MGEdIuQnA/CCenLkgfBXmZuG2ixsvZNsxS5lZyXRunk1Juknxo3EIxD9phYF+Qt7AOJpmDyN9r3iOy1XIK6aaoOlSizCk4h/hIjq5ivE8yzZjw1M5ZquHMYiPEs2zUBQU+Me4soep9JmQ3z13hVHd5VybBiSkqnV+66zXH8mv80HNHIe5Ku6hyuclJhEH+KqadDkLcQ5SDoSvarz+YnXXguPXE8mvjuJKDY3JzP2p9NnEQbWcbfdWyC+pm7HvmH1iRrhRXjq4ZCE49u0S2DbTSMS9ngiMeFxsnj0OkrOvmi54QzLDSGQNNDjVChDHjJkgdWT/Q26WqvYR9mGyJcyCn1hNOjIDeYRb5Athjqd9x4knlKk3aDbGYAgsrs7Zm+beAJ2KfFJ6fjNs/hekLP8OhD1lDkXcjT04zdIbs1pvXCvNBWcRj843G6omSWHTI6GnyA+Ihet1YXH5tyniBZHPTnaDoutKop9I3GC0infPtvWoraut2T32td5omxXedgo4lqthZKUcsXo3ThoyKcH+BpvK/G1FplY8Cx3rrEbqLefttsyIl7LYrk7YtiOEOKR0tTA2ePLMsKoNqePWxFWctcaj68z0TaZH1z5k6pw11iOmE/9AeLXiI/JhCWrzPk1OR3sNtmG0Bn3SQN5TlZoSzMf4YUOO+RwpLVyMsPzTd6m35A3F3wcuIn4aeJxpsvXizjfaVrCCQy77HNRe4Ys4/DNwlWySX6rNMMGcpDm/im4UnbLTjS+LnSI6+Qd9qn0/+oo9Ad0TkWkAw4Ds79iWP3CgzjXjKYILJbRqpu4mvgtOdfwZsnvEq+XwmXL2DLimcRFxKMpwrWLeYjuTny5AAAAAAAAgLb4P54Tmg2IiGNXAAAAJXRFWHRkYXRlOmNyZWF0ZQAyMDIyLTAyLTI2VDEzOjUwOjI4KzAwOjAw8Y04QAAAACV0RVh0ZGF0ZTptb2RpZnkAMjAyMi0wMi0yNlQxMzo1MDoyOCswMDowMIDQgPwAAAAZdEVYdFNvZnR3YXJlAHd3dy5pbmtzY2FwZS5vcmeb7jwaAAAAAElFTkSuQmCC;container=0;" vertex="1" parent="i0zt0oU-3AJXrjKHt_ms-1">
          <mxGeometry x="-479.53000000000003" y="-1114.1" width="30.53" height="30.53" as="geometry" />
        </mxCell>
        <mxCell id="N2LMkY_gqF_srAPKnr6s-41" value="&lt;b&gt;&lt;font style=&quot;font-size: 30px;&quot;&gt;W&lt;/font&gt;&lt;/b&gt;" style="text;strokeColor=default;align=center;fillColor=default;html=1;verticalAlign=middle;whiteSpace=wrap;rounded=0;container=0;" vertex="1" parent="i0zt0oU-3AJXrjKHt_ms-1">
          <mxGeometry x="-877.9399999999998" y="-1513.04" width="30" height="30" as="geometry" />
        </mxCell>
        <mxCell id="N2LMkY_gqF_srAPKnr6s-42" value="&lt;b&gt;&lt;font style=&quot;font-size: 30px;&quot;&gt;E&lt;/font&gt;&lt;/b&gt;" style="text;strokeColor=default;align=center;fillColor=default;html=1;verticalAlign=middle;whiteSpace=wrap;rounded=0;container=0;" vertex="1" parent="i0zt0oU-3AJXrjKHt_ms-1">
          <mxGeometry x="-508.99999999999983" y="-1144.1" width="30" height="30" as="geometry" />
        </mxCell>
        <mxCell id="N2LMkY_gqF_srAPKnr6s-62" value="&lt;b&gt;&lt;font style=&quot;font-size: 30px;&quot;&gt;N&lt;/font&gt;&lt;/b&gt;" style="text;strokeColor=default;align=center;fillColor=none;html=1;verticalAlign=middle;whiteSpace=wrap;rounded=0;container=0;" vertex="1" parent="i0zt0oU-3AJXrjKHt_ms-1">
          <mxGeometry x="-351.99999999999983" y="-1610" width="30" height="30" as="geometry" />
        </mxCell>
        <mxCell id="N2LMkY_gqF_srAPKnr6s-63" value="" style="shape=image;aspect=fixed;image=data:image/png,iVBORw0KGgoAAAANSUhEUgAAAKAAAACgCAYAAACLz2ctAAAABGdBTUEAALGPC/xhBQAAACBjSFJNAAB6JgAAgIQAAPoAAACA6AAAdTAAAOpgAAA6mAAAF3CculE8AAAACXBIWXMAAKf7AACn+wE8Q2ENAAAAB3RJTUUH5gIaDTIzE9UQkAAAAAZiS0dEAP8A/wD/oL2nkwAAC7FJREFUeNrtXW2MHVUZnm23rW13gVKgxg8+SjHix4+CitAYUTBiKCUiSnfvzNxdbNVSCkWMiEqoFFG+hGBI8COIFALdOzN3Kyn1i4o2kkBUgpgqaCKlUHZ3Zu52i7Qg0uv7njmz3bTd3bv3zp05d87zJE9u4Ae09zz3Ped9z/O+xzAAAAAAAAAAAKgJllsxuku76TOca7vhdCK+FCBNAQbMDuKtxA/xPwNAKlju7TbsSICfJ+4lbiDOhgiBNKPfccRtxCrxP8QvWB79ewciBJosviKd9+hzLfF/UoDMJ4nvQhQE0oh+7yH+Y4z4mPuJN9je4DTL8/FFAc0Rn+350+nz9oPEF3MX8UwhUogQSFR8/ZU4+i0hDowjQKZLCUqnja0YSDb6+cw5JLCHJxAfcx+x1xLnRERBIAGYXhBHv8/JjLc6CZ8hLkRCAiSZeBxL/H0N4ot5O23D7diKgYajn13i7Te48qCyy2T0ieeIsg1qg0CD0e8U4t+nIL6YW4jzsBUD9YmPIpdVCqfJ+95qHfwvcXV3OTSKJYgQmAJWbt4RRz+u671SpwCrsmB9qqghIisGprj1ssHgoQbEF/Me2wlm2jgLArVtvWEswIuIryYgwN3EpeK/uWEAXzBQc9nl8QTEF/Nx6aDBFwxMID5KGKyo7LKG+GaCAuQSzjVL737RsD2IEJg4+i0ibk9QfDFfIC5GFATGFR9lqlx2ubkJ4ot5v+VRcoMoCIwT/Rotu0zGyD0txI5GJmBUfJz5hlx2ebCJ4oN7GjgUpjPq9ftsQmWXySjc02Y5mIatGIjE5wTH0OfvUhDfWPf0WYiCmqNYDigCiuh3ecJll1roETshQiQeJxP/lrL4mK9H7mlfnEEB3c5+roh+XHb5fgbii/lX+QPAgmga/c6Q57FqhvwBsR0i1Cn6UfZpej6XXR7IWHzMgN3Tpmx6B3KObne0yehC4h4FBAj3tIZb73ziVkXEF7un11glbmqHCPMtvqjN8jK56FWF+BzxfYiCORegmV3ZpSb3tOUEMyHCPIrPETceXHb5nqLii93TF4gfioeEJD+Jh+fHZ7+PEF9WWIBV2QAP93QOE4+3yWmmVcUp3NNdD0UmCaDF8WV3byzAZQqVXWpxT5/Gf+5L+3dhEXNw9uOyy2MtIr6YG0wnmI2xv62/9TJXKVh2qcU9fQmXjbo3DmMxW1iAPCrt2RYTX8yn4J5uUdiU+RbLg1x2ualFxTfqnpblIyxqq8Ds2xNHvw8TX2phAcI93ZLRz/WZXHb5eYuLD+7p1hPfaOLBNwojOREgu6cvjZMqQP3E42jib3MiPrinW+bs5wRi9got0ldasOxSm3vaC9th2VI7+p0ko0U1h2T39LnCrODArKBW9KNF6XKDNlqcG3Mqvpi/lEcMLLqC0Y/f7t2ZcwFy//KaHmeEfnRDWHiFxDeLeF/OxRfzebinVdl6vdHZLktzVHaphT8yvWCWiYREiejHHWW/1kh8VfljWxa1GSAhyQRd3rBRFKMtgi/ltOwyqXuakq8F2IqzjX4nygcCqxryLeI3VvXtwDskWYjPdnwuu6zXVHyHuKdNmFdTj36na1B2qYU8YmQOtuK0xBfZ7Lns8jOIb9Q9vZy34UIZ7ummYozb5XzZRwsBHnBPvxtRML2yy68gukPc0+tNL4R7umlF574wdrusJL4B0R3WPb3EEvfieJeuWdHvBOLTEBvc0+mXXdwhLrt8ByKbkPvYPW07odFdRm0w6ejH9a4XIbLa3dMrNo1APMkUnUXZ5V6Iq2bewe5pmBUaRJczEEe/z6DsUp97Gmh86z1KOoEhLLinUxSfF0S3Hm6wAmWX+mdP9zi+aFkA6ot+x6Ps0rB7+v2IgnXc99p9IZdd1kFEDfPHthvOgghrve/1wjj68RP3OyCg5NzTFto5axBg5HbhafE/hXgS4x8suKendPY7jzgM4STqnr62q28YTe2Tis8TZZdHIZrEuUOaeCG0w8Es+YZdDlF2abJ72naDOTZEOO7WuzDHs11UcU9fLK438RjOWPH53GSU9QPSunAbHsMZ3+3yEgSSymM4V1gO91QjCoprIjN6NfxuiCM1Po0J/Ox2OdBkdLq0lEMc6ZVl1vJ9u9b9xDzXpOAOt4npnxBFFp10ehenZfRbRPwXBJGJW8bikkxBRxF2lwZjAV4h2wohivS5yXaC2baO23AkPv8I+twKIWRGn3iGltuwjH4fg9U+c66zS75R6NeoJMPNMnbkdl4PAShRmD5Kqygoo9+R0iYEEWTLYe3eoxsz1T6AAJTg1bwmBU+DZvZeZzgW4GXIftUZ6UHHoplavMIUjdkQU5zuw8Ir1bykx3g3SwwW9+fTX/ZPWHhl+CrxbE0EKLbfDxIHsfBKcbWYJ/MLXwsBXgjXs3K8y+zP+ZvERWfU/fJVLLhyfFTM3s7ztRxffF8ijJDBXVhw5fgX4vxcR0C+/aAo2C4neWLR1XtzJN+vsssp9x38zBQWXDlW5DSK3Ccgx2LgkLIdcx/PtwA90XjOvQjPYcGV4+vEC3SIgCfK8wYWXT2H9MU6CPBktF8qyTf5yS8IEMxSgF06CHAhnlvAFpylAI9HFxySkCwFuAADiFCGyQRyDAdb8Z/AgqMQnb4AeRSEJ8bvbsaCKznAMv9Xcb2e34b5zzAjZCZAMzoHXocFV45baG3y/5yDTEQKck4dFl4d/rCwZciwHD0E+FFMRFCOl/PaFL0RLQT4DuJ2LLpSJZhP6tGUFDliOBMuY+GV4T+JJ2ghwILjx8bUb2Lh1RnTZumQgBy0DZ8j+1EhgOx5jRjN4Q5pJcC3E5/B4mfOETkmz9AG/Jc1HfEcKybjZ88n6Ew+T4u5MIeJgtygvg8iyJQ3Fkq+USyHWgpwgbwCghCyMyAs0XRE77BhebswJTXz67dwrqnri0nWgUdqBiCGTCz4K8S4PMfXWoAziPdDEKmTKxDvtHR+qIb9gVKEn8LdcOq8lkfy2rq/oC4FOJtYgihS43bZHGZojzEj286VE9shkOZyv4h+Zd+wHQjwQBT0xF3kvRBI0/lnC0+1jrsVL5a9CRBK81ove/mJVtvzIbqx4C9k1eZ/G/JiHG7p5tC1XL8T0W/iKHgM8TcQS+Lcaen6MGEdIuQnA/CCenLkgfBXmZuG2ixsvZNsxS5lZyXRunk1Juknxo3EIxD9phYF+Qt7AOJpmDyN9r3iOy1XIK6aaoOlSizCk4h/hIjq5ivE8yzZjw1M5ZquHMYiPEs2zUBQU+Me4soep9JmQ3z13hVHd5VybBiSkqnV+66zXH8mv80HNHIe5Ku6hyuclJhEH+KqadDkLcQ5SDoSvarz+YnXXguPXE8mvjuJKDY3JzP2p9NnEQbWcbfdWyC+pm7HvmH1iRrhRXjq4ZCE49u0S2DbTSMS9ngiMeFxsnj0OkrOvmi54QzLDSGQNNDjVChDHjJkgdWT/Q26WqvYR9mGyJcyCn1hNOjIDeYRb5Athjqd9x4knlKk3aDbGYAgsrs7Zm+beAJ2KfFJ6fjNs/hekLP8OhD1lDkXcjT04zdIbs1pvXCvNBWcRj843G6omSWHTI6GnyA+Ihet1YXH5tyniBZHPTnaDoutKop9I3GC0infPtvWoraut2T32td5omxXedgo4lqthZKUcsXo3ThoyKcH+BpvK/G1FplY8Cx3rrEbqLefttsyIl7LYrk7YtiOEOKR0tTA2ePLMsKoNqePWxFWctcaj68z0TaZH1z5k6pw11iOmE/9AeLXiI/JhCWrzPk1OR3sNtmG0Bn3SQN5TlZoSzMf4YUOO+RwpLVyMsPzTd6m35A3F3wcuIn4aeJxpsvXizjfaVrCCQy77HNRe4Ys4/DNwlWySX6rNMMGcpDm/im4UnbLTjS+LnSI6+Qd9qn0/+oo9Ad0TkWkAw4Ds79iWP3CgzjXjKYILJbRqpu4mvgtOdfwZsnvEq+XwmXL2DLimcRFxKMpwrWLeYjuTny5AAAAAAAAgLb4P54Tmg2IiGNXAAAAJXRFWHRkYXRlOmNyZWF0ZQAyMDIyLTAyLTI2VDEzOjUwOjI4KzAwOjAw8Y04QAAAACV0RVh0ZGF0ZTptb2RpZnkAMjAyMi0wMi0yNlQxMzo1MDoyOCswMDowMIDQgPwAAAAZdEVYdFNvZnR3YXJlAHd3dy5pbmtzY2FwZS5vcmeb7jwaAAAAAElFTkSuQmCC;container=0;" vertex="1" parent="i0zt0oU-3AJXrjKHt_ms-1">
          <mxGeometry x="-751.9999999999998" y="-1640" width="30.53" height="30.53" as="geometry" />
        </mxCell>
        <mxCell id="N2LMkY_gqF_srAPKnr6s-64" value="" style="shape=image;aspect=fixed;image=data:image/png,iVBORw0KGgoAAAANSUhEUgAAAKAAAACgCAYAAACLz2ctAAAABGdBTUEAALGPC/xhBQAAACBjSFJNAAB6JgAAgIQAAPoAAACA6AAAdTAAAOpgAAA6mAAAF3CculE8AAAACXBIWXMAAKf7AACn+wE8Q2ENAAAAB3RJTUUH5gIaDTIzE9UQkAAAAAZiS0dEAP8A/wD/oL2nkwAAC7FJREFUeNrtXW2MHVUZnm23rW13gVKgxg8+SjHix4+CitAYUTBiKCUiSnfvzNxdbNVSCkWMiEqoFFG+hGBI8COIFALdOzN3Kyn1i4o2kkBUgpgqaCKlUHZ3Zu52i7Qg0uv7njmz3bTd3bv3zp05d87zJE9u4Ae09zz3Ped9z/O+xzAAAAAAAAAAAKgJllsxuku76TOca7vhdCK+FCBNAQbMDuKtxA/xPwNAKlju7TbsSICfJ+4lbiDOhgiBNKPfccRtxCrxP8QvWB79ewciBJosviKd9+hzLfF/UoDMJ4nvQhQE0oh+7yH+Y4z4mPuJN9je4DTL8/FFAc0Rn+350+nz9oPEF3MX8UwhUogQSFR8/ZU4+i0hDowjQKZLCUqnja0YSDb6+cw5JLCHJxAfcx+x1xLnRERBIAGYXhBHv8/JjLc6CZ8hLkRCAiSZeBxL/H0N4ot5O23D7diKgYajn13i7Te48qCyy2T0ieeIsg1qg0CD0e8U4t+nIL6YW4jzsBUD9YmPIpdVCqfJ+95qHfwvcXV3OTSKJYgQmAJWbt4RRz+u671SpwCrsmB9qqghIisGprj1ssHgoQbEF/Me2wlm2jgLArVtvWEswIuIryYgwN3EpeK/uWEAXzBQc9nl8QTEF/Nx6aDBFwxMID5KGKyo7LKG+GaCAuQSzjVL737RsD2IEJg4+i0ibk9QfDFfIC5GFATGFR9lqlx2ubkJ4ot5v+VRcoMoCIwT/Rotu0zGyD0txI5GJmBUfJz5hlx2ebCJ4oN7GjgUpjPq9ftsQmWXySjc02Y5mIatGIjE5wTH0OfvUhDfWPf0WYiCmqNYDigCiuh3ecJll1roETshQiQeJxP/lrL4mK9H7mlfnEEB3c5+roh+XHb5fgbii/lX+QPAgmga/c6Q57FqhvwBsR0i1Cn6UfZpej6XXR7IWHzMgN3Tpmx6B3KObne0yehC4h4FBAj3tIZb73ziVkXEF7un11glbmqHCPMtvqjN8jK56FWF+BzxfYiCORegmV3ZpSb3tOUEMyHCPIrPETceXHb5nqLii93TF4gfioeEJD+Jh+fHZ7+PEF9WWIBV2QAP93QOE4+3yWmmVcUp3NNdD0UmCaDF8WV3byzAZQqVXWpxT5/Gf+5L+3dhEXNw9uOyy2MtIr6YG0wnmI2xv62/9TJXKVh2qcU9fQmXjbo3DmMxW1iAPCrt2RYTX8yn4J5uUdiU+RbLg1x2ualFxTfqnpblIyxqq8Ds2xNHvw8TX2phAcI93ZLRz/WZXHb5eYuLD+7p1hPfaOLBNwojOREgu6cvjZMqQP3E42jib3MiPrinW+bs5wRi9got0ldasOxSm3vaC9th2VI7+p0ko0U1h2T39LnCrODArKBW9KNF6XKDNlqcG3Mqvpi/lEcMLLqC0Y/f7t2ZcwFy//KaHmeEfnRDWHiFxDeLeF/OxRfzebinVdl6vdHZLktzVHaphT8yvWCWiYREiejHHWW/1kh8VfljWxa1GSAhyQRd3rBRFKMtgi/ltOwyqXuakq8F2IqzjX4nygcCqxryLeI3VvXtwDskWYjPdnwuu6zXVHyHuKdNmFdTj36na1B2qYU8YmQOtuK0xBfZ7Lns8jOIb9Q9vZy34UIZ7ummYozb5XzZRwsBHnBPvxtRML2yy68gukPc0+tNL4R7umlF574wdrusJL4B0R3WPb3EEvfieJeuWdHvBOLTEBvc0+mXXdwhLrt8ByKbkPvYPW07odFdRm0w6ejH9a4XIbLa3dMrNo1APMkUnUXZ5V6Iq2bewe5pmBUaRJczEEe/z6DsUp97Gmh86z1KOoEhLLinUxSfF0S3Hm6wAmWX+mdP9zi+aFkA6ot+x6Ps0rB7+v2IgnXc99p9IZdd1kFEDfPHthvOgghrve/1wjj68RP3OyCg5NzTFto5axBg5HbhafE/hXgS4x8suKendPY7jzgM4STqnr62q28YTe2Tis8TZZdHIZrEuUOaeCG0w8Es+YZdDlF2abJ72naDOTZEOO7WuzDHs11UcU9fLK438RjOWPH53GSU9QPSunAbHsMZ3+3yEgSSymM4V1gO91QjCoprIjN6NfxuiCM1Po0J/Ox2OdBkdLq0lEMc6ZVl1vJ9u9b9xDzXpOAOt4npnxBFFp10ehenZfRbRPwXBJGJW8bikkxBRxF2lwZjAV4h2wohivS5yXaC2baO23AkPv8I+twKIWRGn3iGltuwjH4fg9U+c66zS75R6NeoJMPNMnbkdl4PAShRmD5Kqygoo9+R0iYEEWTLYe3eoxsz1T6AAJTg1bwmBU+DZvZeZzgW4GXIftUZ6UHHoplavMIUjdkQU5zuw8Ir1bykx3g3SwwW9+fTX/ZPWHhl+CrxbE0EKLbfDxIHsfBKcbWYJ/MLXwsBXgjXs3K8y+zP+ZvERWfU/fJVLLhyfFTM3s7ztRxffF8ijJDBXVhw5fgX4vxcR0C+/aAo2C4neWLR1XtzJN+vsssp9x38zBQWXDlW5DSK3Ccgx2LgkLIdcx/PtwA90XjOvQjPYcGV4+vEC3SIgCfK8wYWXT2H9MU6CPBktF8qyTf5yS8IEMxSgF06CHAhnlvAFpylAI9HFxySkCwFuAADiFCGyQRyDAdb8Z/AgqMQnb4AeRSEJ8bvbsaCKznAMv9Xcb2e34b5zzAjZCZAMzoHXocFV45baG3y/5yDTEQKck4dFl4d/rCwZciwHD0E+FFMRFCOl/PaFL0RLQT4DuJ2LLpSJZhP6tGUFDliOBMuY+GV4T+JJ2ghwILjx8bUb2Lh1RnTZumQgBy0DZ8j+1EhgOx5jRjN4Q5pJcC3E5/B4mfOETkmz9AG/Jc1HfEcKybjZ88n6Ew+T4u5MIeJgtygvg8iyJQ3Fkq+USyHWgpwgbwCghCyMyAs0XRE77BhebswJTXz67dwrqnri0nWgUdqBiCGTCz4K8S4PMfXWoAziPdDEKmTKxDvtHR+qIb9gVKEn8LdcOq8lkfy2rq/oC4FOJtYgihS43bZHGZojzEj286VE9shkOZyv4h+Zd+wHQjwQBT0xF3kvRBI0/lnC0+1jrsVL5a9CRBK81ove/mJVtvzIbqx4C9k1eZ/G/JiHG7p5tC1XL8T0W/iKHgM8TcQS+Lcaen6MGEdIuQnA/CCenLkgfBXmZuG2ixsvZNsxS5lZyXRunk1Juknxo3EIxD9phYF+Qt7AOJpmDyN9r3iOy1XIK6aaoOlSizCk4h/hIjq5ivE8yzZjw1M5ZquHMYiPEs2zUBQU+Me4soep9JmQ3z13hVHd5VybBiSkqnV+66zXH8mv80HNHIe5Ku6hyuclJhEH+KqadDkLcQ5SDoSvarz+YnXXguPXE8mvjuJKDY3JzP2p9NnEQbWcbfdWyC+pm7HvmH1iRrhRXjq4ZCE49u0S2DbTSMS9ngiMeFxsnj0OkrOvmi54QzLDSGQNNDjVChDHjJkgdWT/Q26WqvYR9mGyJcyCn1hNOjIDeYRb5Athjqd9x4knlKk3aDbGYAgsrs7Zm+beAJ2KfFJ6fjNs/hekLP8OhD1lDkXcjT04zdIbs1pvXCvNBWcRj843G6omSWHTI6GnyA+Ihet1YXH5tyniBZHPTnaDoutKop9I3GC0infPtvWoraut2T32td5omxXedgo4lqthZKUcsXo3ThoyKcH+BpvK/G1FplY8Cx3rrEbqLefttsyIl7LYrk7YtiOEOKR0tTA2ePLMsKoNqePWxFWctcaj68z0TaZH1z5k6pw11iOmE/9AeLXiI/JhCWrzPk1OR3sNtmG0Bn3SQN5TlZoSzMf4YUOO+RwpLVyMsPzTd6m35A3F3wcuIn4aeJxpsvXizjfaVrCCQy77HNRe4Ys4/DNwlWySX6rNMMGcpDm/im4UnbLTjS+LnSI6+Qd9qn0/+oo9Ad0TkWkAw4Ds79iWP3CgzjXjKYILJbRqpu4mvgtOdfwZsnvEq+XwmXL2DLimcRFxKMpwrWLeYjuTny5AAAAAAAAgLb4P54Tmg2IiGNXAAAAJXRFWHRkYXRlOmNyZWF0ZQAyMDIyLTAyLTI2VDEzOjUwOjI4KzAwOjAw8Y04QAAAACV0RVh0ZGF0ZTptb2RpZnkAMjAyMi0wMi0yNlQxMzo1MDoyOCswMDowMIDQgPwAAAAZdEVYdFNvZnR3YXJlAHd3dy5pbmtzY2FwZS5vcmeb7jwaAAAAAElFTkSuQmCC;container=0;" vertex="1" parent="i0zt0oU-3AJXrjKHt_ms-1">
          <mxGeometry x="-322.53000000000003" y="-1210" width="30.53" height="30.53" as="geometry" />
        </mxCell>
        <mxCell id="N2LMkY_gqF_srAPKnr6s-65" value="&lt;b&gt;&lt;font color=&quot;#ff0000&quot; style=&quot;font-size: 30px;&quot;&gt;A&lt;/font&gt;&lt;/b&gt;" style="text;strokeColor=default;align=center;fillColor=none;html=1;verticalAlign=middle;whiteSpace=wrap;rounded=0;container=0;" vertex="1" parent="i0zt0oU-3AJXrjKHt_ms-1">
          <mxGeometry x="-351.99999999999983" y="-1638.94" width="30" height="30" as="geometry" />
        </mxCell>
        <mxCell id="N2LMkY_gqF_srAPKnr6s-66" value="&lt;b&gt;&lt;font style=&quot;font-size: 30px;&quot;&gt;W&lt;/font&gt;&lt;/b&gt;" style="text;strokeColor=default;align=center;fillColor=default;html=1;verticalAlign=middle;whiteSpace=wrap;rounded=0;container=0;" vertex="1" parent="i0zt0oU-3AJXrjKHt_ms-1">
          <mxGeometry x="-720.9399999999998" y="-1608.94" width="30" height="30" as="geometry" />
        </mxCell>
        <mxCell id="N2LMkY_gqF_srAPKnr6s-67" value="&lt;b&gt;&lt;font style=&quot;font-size: 30px;&quot;&gt;E&lt;/font&gt;&lt;/b&gt;" style="text;strokeColor=default;align=center;fillColor=default;html=1;verticalAlign=middle;whiteSpace=wrap;rounded=0;container=0;" vertex="1" parent="i0zt0oU-3AJXrjKHt_ms-1">
          <mxGeometry x="-351.99999999999983" y="-1240" width="30" height="30" as="geometry" />
        </mxCell>
        <mxCell id="N2LMkY_gqF_srAPKnr6s-68" value="&lt;b&gt;&lt;font color=&quot;#66b2ff&quot; style=&quot;font-size: 30px;&quot;&gt;B&lt;/font&gt;&lt;/b&gt;" style="text;strokeColor=default;align=center;fillColor=none;html=1;verticalAlign=middle;whiteSpace=wrap;rounded=0;container=0;" vertex="1" parent="i0zt0oU-3AJXrjKHt_ms-1">
          <mxGeometry x="-321.99999999999983" y="-1610" width="30" height="30" as="geometry" />
        </mxCell>
        <mxCell id="N2LMkY_gqF_srAPKnr6s-165" value="&lt;b&gt;&lt;font style=&quot;font-size: 30px;&quot;&gt;S&lt;/font&gt;&lt;/b&gt;" style="text;strokeColor=default;align=center;fillColor=none;html=1;verticalAlign=middle;whiteSpace=wrap;rounded=0;container=0;" vertex="1" parent="i0zt0oU-3AJXrjKHt_ms-1">
          <mxGeometry x="-877.9399999999998" y="-497.56999999999994" width="30" height="30" as="geometry" />
        </mxCell>
        <mxCell id="N2LMkY_gqF_srAPKnr6s-166" value="&lt;b&gt;&lt;font color=&quot;#ff0000&quot; style=&quot;font-size: 30px;&quot;&gt;A&lt;/font&gt;&lt;/b&gt;" style="text;strokeColor=default;align=center;fillColor=none;html=1;verticalAlign=middle;whiteSpace=wrap;rounded=0;container=0;" vertex="1" parent="i0zt0oU-3AJXrjKHt_ms-1">
          <mxGeometry x="-907.9399999999998" y="-498.0999999999999" width="30" height="30" as="geometry" />
        </mxCell>
        <mxCell id="N2LMkY_gqF_srAPKnr6s-167" value="&lt;b&gt;&lt;font color=&quot;#66b2ff&quot; style=&quot;font-size: 30px;&quot;&gt;B&lt;/font&gt;&lt;/b&gt;" style="text;strokeColor=default;align=center;fillColor=none;html=1;verticalAlign=middle;whiteSpace=wrap;rounded=0;container=0;" vertex="1" parent="i0zt0oU-3AJXrjKHt_ms-1">
          <mxGeometry x="-878.9999999999998" y="-467.56999999999994" width="30" height="30" as="geometry" />
        </mxCell>
        <mxCell id="N2LMkY_gqF_srAPKnr6s-168" value="" style="shape=image;aspect=fixed;image=data:image/png,iVBORw0KGgoAAAANSUhEUgAAAKAAAACgCAYAAACLz2ctAAAABGdBTUEAALGPC/xhBQAAACBjSFJNAAB6JgAAgIQAAPoAAACA6AAAdTAAAOpgAAA6mAAAF3CculE8AAAACXBIWXMAAKf7AACn+wE8Q2ENAAAAB3RJTUUH5gIaDTIzE9UQkAAAAAZiS0dEAP8A/wD/oL2nkwAAC7FJREFUeNrtXW2MHVUZnm23rW13gVKgxg8+SjHix4+CitAYUTBiKCUiSnfvzNxdbNVSCkWMiEqoFFG+hGBI8COIFALdOzN3Kyn1i4o2kkBUgpgqaCKlUHZ3Zu52i7Qg0uv7njmz3bTd3bv3zp05d87zJE9u4Ae09zz3Ped9z/O+xzAAAAAAAAAAAKgJllsxuku76TOca7vhdCK+FCBNAQbMDuKtxA/xPwNAKlju7TbsSICfJ+4lbiDOhgiBNKPfccRtxCrxP8QvWB79ewciBJosviKd9+hzLfF/UoDMJ4nvQhQE0oh+7yH+Y4z4mPuJN9je4DTL8/FFAc0Rn+350+nz9oPEF3MX8UwhUogQSFR8/ZU4+i0hDowjQKZLCUqnja0YSDb6+cw5JLCHJxAfcx+x1xLnRERBIAGYXhBHv8/JjLc6CZ8hLkRCAiSZeBxL/H0N4ot5O23D7diKgYajn13i7Te48qCyy2T0ieeIsg1qg0CD0e8U4t+nIL6YW4jzsBUD9YmPIpdVCqfJ+95qHfwvcXV3OTSKJYgQmAJWbt4RRz+u671SpwCrsmB9qqghIisGprj1ssHgoQbEF/Me2wlm2jgLArVtvWEswIuIryYgwN3EpeK/uWEAXzBQc9nl8QTEF/Nx6aDBFwxMID5KGKyo7LKG+GaCAuQSzjVL737RsD2IEJg4+i0ibk9QfDFfIC5GFATGFR9lqlx2ubkJ4ot5v+VRcoMoCIwT/Rotu0zGyD0txI5GJmBUfJz5hlx2ebCJ4oN7GjgUpjPq9ftsQmWXySjc02Y5mIatGIjE5wTH0OfvUhDfWPf0WYiCmqNYDigCiuh3ecJll1roETshQiQeJxP/lrL4mK9H7mlfnEEB3c5+roh+XHb5fgbii/lX+QPAgmga/c6Q57FqhvwBsR0i1Cn6UfZpej6XXR7IWHzMgN3Tpmx6B3KObne0yehC4h4FBAj3tIZb73ziVkXEF7un11glbmqHCPMtvqjN8jK56FWF+BzxfYiCORegmV3ZpSb3tOUEMyHCPIrPETceXHb5nqLii93TF4gfioeEJD+Jh+fHZ7+PEF9WWIBV2QAP93QOE4+3yWmmVcUp3NNdD0UmCaDF8WV3byzAZQqVXWpxT5/Gf+5L+3dhEXNw9uOyy2MtIr6YG0wnmI2xv62/9TJXKVh2qcU9fQmXjbo3DmMxW1iAPCrt2RYTX8yn4J5uUdiU+RbLg1x2ualFxTfqnpblIyxqq8Ds2xNHvw8TX2phAcI93ZLRz/WZXHb5eYuLD+7p1hPfaOLBNwojOREgu6cvjZMqQP3E42jib3MiPrinW+bs5wRi9got0ldasOxSm3vaC9th2VI7+p0ko0U1h2T39LnCrODArKBW9KNF6XKDNlqcG3Mqvpi/lEcMLLqC0Y/f7t2ZcwFy//KaHmeEfnRDWHiFxDeLeF/OxRfzebinVdl6vdHZLktzVHaphT8yvWCWiYREiejHHWW/1kh8VfljWxa1GSAhyQRd3rBRFKMtgi/ltOwyqXuakq8F2IqzjX4nygcCqxryLeI3VvXtwDskWYjPdnwuu6zXVHyHuKdNmFdTj36na1B2qYU8YmQOtuK0xBfZ7Lns8jOIb9Q9vZy34UIZ7ummYozb5XzZRwsBHnBPvxtRML2yy68gukPc0+tNL4R7umlF574wdrusJL4B0R3WPb3EEvfieJeuWdHvBOLTEBvc0+mXXdwhLrt8ByKbkPvYPW07odFdRm0w6ejH9a4XIbLa3dMrNo1APMkUnUXZ5V6Iq2bewe5pmBUaRJczEEe/z6DsUp97Gmh86z1KOoEhLLinUxSfF0S3Hm6wAmWX+mdP9zi+aFkA6ot+x6Ps0rB7+v2IgnXc99p9IZdd1kFEDfPHthvOgghrve/1wjj68RP3OyCg5NzTFto5axBg5HbhafE/hXgS4x8suKendPY7jzgM4STqnr62q28YTe2Tis8TZZdHIZrEuUOaeCG0w8Es+YZdDlF2abJ72naDOTZEOO7WuzDHs11UcU9fLK438RjOWPH53GSU9QPSunAbHsMZ3+3yEgSSymM4V1gO91QjCoprIjN6NfxuiCM1Po0J/Ox2OdBkdLq0lEMc6ZVl1vJ9u9b9xDzXpOAOt4npnxBFFp10ehenZfRbRPwXBJGJW8bikkxBRxF2lwZjAV4h2wohivS5yXaC2baO23AkPv8I+twKIWRGn3iGltuwjH4fg9U+c66zS75R6NeoJMPNMnbkdl4PAShRmD5Kqygoo9+R0iYEEWTLYe3eoxsz1T6AAJTg1bwmBU+DZvZeZzgW4GXIftUZ6UHHoplavMIUjdkQU5zuw8Ir1bykx3g3SwwW9+fTX/ZPWHhl+CrxbE0EKLbfDxIHsfBKcbWYJ/MLXwsBXgjXs3K8y+zP+ZvERWfU/fJVLLhyfFTM3s7ztRxffF8ijJDBXVhw5fgX4vxcR0C+/aAo2C4neWLR1XtzJN+vsssp9x38zBQWXDlW5DSK3Ccgx2LgkLIdcx/PtwA90XjOvQjPYcGV4+vEC3SIgCfK8wYWXT2H9MU6CPBktF8qyTf5yS8IEMxSgF06CHAhnlvAFpylAI9HFxySkCwFuAADiFCGyQRyDAdb8Z/AgqMQnb4AeRSEJ8bvbsaCKznAMv9Xcb2e34b5zzAjZCZAMzoHXocFV45baG3y/5yDTEQKck4dFl4d/rCwZciwHD0E+FFMRFCOl/PaFL0RLQT4DuJ2LLpSJZhP6tGUFDliOBMuY+GV4T+JJ2ghwILjx8bUb2Lh1RnTZumQgBy0DZ8j+1EhgOx5jRjN4Q5pJcC3E5/B4mfOETkmz9AG/Jc1HfEcKybjZ88n6Ew+T4u5MIeJgtygvg8iyJQ3Fkq+USyHWgpwgbwCghCyMyAs0XRE77BhebswJTXz67dwrqnri0nWgUdqBiCGTCz4K8S4PMfXWoAziPdDEKmTKxDvtHR+qIb9gVKEn8LdcOq8lkfy2rq/oC4FOJtYgihS43bZHGZojzEj286VE9shkOZyv4h+Zd+wHQjwQBT0xF3kvRBI0/lnC0+1jrsVL5a9CRBK81ove/mJVtvzIbqx4C9k1eZ/G/JiHG7p5tC1XL8T0W/iKHgM8TcQS+Lcaen6MGEdIuQnA/CCenLkgfBXmZuG2ixsvZNsxS5lZyXRunk1Juknxo3EIxD9phYF+Qt7AOJpmDyN9r3iOy1XIK6aaoOlSizCk4h/hIjq5ivE8yzZjw1M5ZquHMYiPEs2zUBQU+Me4soep9JmQ3z13hVHd5VybBiSkqnV+66zXH8mv80HNHIe5Ku6hyuclJhEH+KqadDkLcQ5SDoSvarz+YnXXguPXE8mvjuJKDY3JzP2p9NnEQbWcbfdWyC+pm7HvmH1iRrhRXjq4ZCE49u0S2DbTSMS9ngiMeFxsnj0OkrOvmi54QzLDSGQNNDjVChDHjJkgdWT/Q26WqvYR9mGyJcyCn1hNOjIDeYRb5Athjqd9x4knlKk3aDbGYAgsrs7Zm+beAJ2KfFJ6fjNs/hekLP8OhD1lDkXcjT04zdIbs1pvXCvNBWcRj843G6omSWHTI6GnyA+Ihet1YXH5tyniBZHPTnaDoutKop9I3GC0infPtvWoraut2T32td5omxXedgo4lqthZKUcsXo3ThoyKcH+BpvK/G1FplY8Cx3rrEbqLefttsyIl7LYrk7YtiOEOKR0tTA2ePLMsKoNqePWxFWctcaj68z0TaZH1z5k6pw11iOmE/9AeLXiI/JhCWrzPk1OR3sNtmG0Bn3SQN5TlZoSzMf4YUOO+RwpLVyMsPzTd6m35A3F3wcuIn4aeJxpsvXizjfaVrCCQy77HNRe4Ys4/DNwlWySX6rNMMGcpDm/im4UnbLTjS+LnSI6+Qd9qn0/+oo9Ad0TkWkAw4Ds79iWP3CgzjXjKYILJbRqpu4mvgtOdfwZsnvEq+XwmXL2DLimcRFxKMpwrWLeYjuTny5AAAAAAAAgLb4P54Tmg2IiGNXAAAAJXRFWHRkYXRlOmNyZWF0ZQAyMDIyLTAyLTI2VDEzOjUwOjI4KzAwOjAw8Y04QAAAACV0RVh0ZGF0ZTptb2RpZnkAMjAyMi0wMi0yNlQxMzo1MDoyOCswMDowMIDQgPwAAAAZdEVYdFNvZnR3YXJlAHd3dy5pbmtzY2FwZS5vcmeb7jwaAAAAAElFTkSuQmCC;container=0;" vertex="1" parent="i0zt0oU-3AJXrjKHt_ms-1">
          <mxGeometry x="-908.9999999999998" y="-898.0999999999999" width="30.53" height="30.53" as="geometry" />
        </mxCell>
        <mxCell id="N2LMkY_gqF_srAPKnr6s-169" value="" style="shape=image;aspect=fixed;image=data:image/png,iVBORw0KGgoAAAANSUhEUgAAAKAAAACgCAYAAACLz2ctAAAABGdBTUEAALGPC/xhBQAAACBjSFJNAAB6JgAAgIQAAPoAAACA6AAAdTAAAOpgAAA6mAAAF3CculE8AAAACXBIWXMAAKf7AACn+wE8Q2ENAAAAB3RJTUUH5gIaDTIzE9UQkAAAAAZiS0dEAP8A/wD/oL2nkwAAC7FJREFUeNrtXW2MHVUZnm23rW13gVKgxg8+SjHix4+CitAYUTBiKCUiSnfvzNxdbNVSCkWMiEqoFFG+hGBI8COIFALdOzN3Kyn1i4o2kkBUgpgqaCKlUHZ3Zu52i7Qg0uv7njmz3bTd3bv3zp05d87zJE9u4Ae09zz3Ped9z/O+xzAAAAAAAAAAAKgJllsxuku76TOca7vhdCK+FCBNAQbMDuKtxA/xPwNAKlju7TbsSICfJ+4lbiDOhgiBNKPfccRtxCrxP8QvWB79ewciBJosviKd9+hzLfF/UoDMJ4nvQhQE0oh+7yH+Y4z4mPuJN9je4DTL8/FFAc0Rn+350+nz9oPEF3MX8UwhUogQSFR8/ZU4+i0hDowjQKZLCUqnja0YSDb6+cw5JLCHJxAfcx+x1xLnRERBIAGYXhBHv8/JjLc6CZ8hLkRCAiSZeBxL/H0N4ot5O23D7diKgYajn13i7Te48qCyy2T0ieeIsg1qg0CD0e8U4t+nIL6YW4jzsBUD9YmPIpdVCqfJ+95qHfwvcXV3OTSKJYgQmAJWbt4RRz+u671SpwCrsmB9qqghIisGprj1ssHgoQbEF/Me2wlm2jgLArVtvWEswIuIryYgwN3EpeK/uWEAXzBQc9nl8QTEF/Nx6aDBFwxMID5KGKyo7LKG+GaCAuQSzjVL737RsD2IEJg4+i0ibk9QfDFfIC5GFATGFR9lqlx2ubkJ4ot5v+VRcoMoCIwT/Rotu0zGyD0txI5GJmBUfJz5hlx2ebCJ4oN7GjgUpjPq9ftsQmWXySjc02Y5mIatGIjE5wTH0OfvUhDfWPf0WYiCmqNYDigCiuh3ecJll1roETshQiQeJxP/lrL4mK9H7mlfnEEB3c5+roh+XHb5fgbii/lX+QPAgmga/c6Q57FqhvwBsR0i1Cn6UfZpej6XXR7IWHzMgN3Tpmx6B3KObne0yehC4h4FBAj3tIZb73ziVkXEF7un11glbmqHCPMtvqjN8jK56FWF+BzxfYiCORegmV3ZpSb3tOUEMyHCPIrPETceXHb5nqLii93TF4gfioeEJD+Jh+fHZ7+PEF9WWIBV2QAP93QOE4+3yWmmVcUp3NNdD0UmCaDF8WV3byzAZQqVXWpxT5/Gf+5L+3dhEXNw9uOyy2MtIr6YG0wnmI2xv62/9TJXKVh2qcU9fQmXjbo3DmMxW1iAPCrt2RYTX8yn4J5uUdiU+RbLg1x2ualFxTfqnpblIyxqq8Ds2xNHvw8TX2phAcI93ZLRz/WZXHb5eYuLD+7p1hPfaOLBNwojOREgu6cvjZMqQP3E42jib3MiPrinW+bs5wRi9got0ldasOxSm3vaC9th2VI7+p0ko0U1h2T39LnCrODArKBW9KNF6XKDNlqcG3Mqvpi/lEcMLLqC0Y/f7t2ZcwFy//KaHmeEfnRDWHiFxDeLeF/OxRfzebinVdl6vdHZLktzVHaphT8yvWCWiYREiejHHWW/1kh8VfljWxa1GSAhyQRd3rBRFKMtgi/ltOwyqXuakq8F2IqzjX4nygcCqxryLeI3VvXtwDskWYjPdnwuu6zXVHyHuKdNmFdTj36na1B2qYU8YmQOtuK0xBfZ7Lns8jOIb9Q9vZy34UIZ7ummYozb5XzZRwsBHnBPvxtRML2yy68gukPc0+tNL4R7umlF574wdrusJL4B0R3WPb3EEvfieJeuWdHvBOLTEBvc0+mXXdwhLrt8ByKbkPvYPW07odFdRm0w6ejH9a4XIbLa3dMrNo1APMkUnUXZ5V6Iq2bewe5pmBUaRJczEEe/z6DsUp97Gmh86z1KOoEhLLinUxSfF0S3Hm6wAmWX+mdP9zi+aFkA6ot+x6Ps0rB7+v2IgnXc99p9IZdd1kFEDfPHthvOgghrve/1wjj68RP3OyCg5NzTFto5axBg5HbhafE/hXgS4x8suKendPY7jzgM4STqnr62q28YTe2Tis8TZZdHIZrEuUOaeCG0w8Es+YZdDlF2abJ72naDOTZEOO7WuzDHs11UcU9fLK438RjOWPH53GSU9QPSunAbHsMZ3+3yEgSSymM4V1gO91QjCoprIjN6NfxuiCM1Po0J/Ox2OdBkdLq0lEMc6ZVl1vJ9u9b9xDzXpOAOt4npnxBFFp10ehenZfRbRPwXBJGJW8bikkxBRxF2lwZjAV4h2wohivS5yXaC2baO23AkPv8I+twKIWRGn3iGltuwjH4fg9U+c66zS75R6NeoJMPNMnbkdl4PAShRmD5Kqygoo9+R0iYEEWTLYe3eoxsz1T6AAJTg1bwmBU+DZvZeZzgW4GXIftUZ6UHHoplavMIUjdkQU5zuw8Ir1bykx3g3SwwW9+fTX/ZPWHhl+CrxbE0EKLbfDxIHsfBKcbWYJ/MLXwsBXgjXs3K8y+zP+ZvERWfU/fJVLLhyfFTM3s7ztRxffF8ijJDBXVhw5fgX4vxcR0C+/aAo2C4neWLR1XtzJN+vsssp9x38zBQWXDlW5DSK3Ccgx2LgkLIdcx/PtwA90XjOvQjPYcGV4+vEC3SIgCfK8wYWXT2H9MU6CPBktF8qyTf5yS8IEMxSgF06CHAhnlvAFpylAI9HFxySkCwFuAADiFCGyQRyDAdb8Z/AgqMQnb4AeRSEJ8bvbsaCKznAMv9Xcb2e34b5zzAjZCZAMzoHXocFV45baG3y/5yDTEQKck4dFl4d/rCwZciwHD0E+FFMRFCOl/PaFL0RLQT4DuJ2LLpSJZhP6tGUFDliOBMuY+GV4T+JJ2ghwILjx8bUb2Lh1RnTZumQgBy0DZ8j+1EhgOx5jRjN4Q5pJcC3E5/B4mfOETkmz9AG/Jc1HfEcKybjZ88n6Ew+T4u5MIeJgtygvg8iyJQ3Fkq+USyHWgpwgbwCghCyMyAs0XRE77BhebswJTXz67dwrqnri0nWgUdqBiCGTCz4K8S4PMfXWoAziPdDEKmTKxDvtHR+qIb9gVKEn8LdcOq8lkfy2rq/oC4FOJtYgihS43bZHGZojzEj286VE9shkOZyv4h+Zd+wHQjwQBT0xF3kvRBI0/lnC0+1jrsVL5a9CRBK81ove/mJVtvzIbqx4C9k1eZ/G/JiHG7p5tC1XL8T0W/iKHgM8TcQS+Lcaen6MGEdIuQnA/CCenLkgfBXmZuG2ixsvZNsxS5lZyXRunk1Juknxo3EIxD9phYF+Qt7AOJpmDyN9r3iOy1XIK6aaoOlSizCk4h/hIjq5ivE8yzZjw1M5ZquHMYiPEs2zUBQU+Me4soep9JmQ3z13hVHd5VybBiSkqnV+66zXH8mv80HNHIe5Ku6hyuclJhEH+KqadDkLcQ5SDoSvarz+YnXXguPXE8mvjuJKDY3JzP2p9NnEQbWcbfdWyC+pm7HvmH1iRrhRXjq4ZCE49u0S2DbTSMS9ngiMeFxsnj0OkrOvmi54QzLDSGQNNDjVChDHjJkgdWT/Q26WqvYR9mGyJcyCn1hNOjIDeYRb5Athjqd9x4knlKk3aDbGYAgsrs7Zm+beAJ2KfFJ6fjNs/hekLP8OhD1lDkXcjT04zdIbs1pvXCvNBWcRj843G6omSWHTI6GnyA+Ihet1YXH5tyniBZHPTnaDoutKop9I3GC0infPtvWoraut2T32td5omxXedgo4lqthZKUcsXo3ThoyKcH+BpvK/G1FplY8Cx3rrEbqLefttsyIl7LYrk7YtiOEOKR0tTA2ePLMsKoNqePWxFWctcaj68z0TaZH1z5k6pw11iOmE/9AeLXiI/JhCWrzPk1OR3sNtmG0Bn3SQN5TlZoSzMf4YUOO+RwpLVyMsPzTd6m35A3F3wcuIn4aeJxpsvXizjfaVrCCQy77HNRe4Ys4/DNwlWySX6rNMMGcpDm/im4UnbLTjS+LnSI6+Qd9qn0/+oo9Ad0TkWkAw4Ds79iWP3CgzjXjKYILJbRqpu4mvgtOdfwZsnvEq+XwmXL2DLimcRFxKMpwrWLeYjuTny5AAAAAAAAgLb4P54Tmg2IiGNXAAAAJXRFWHRkYXRlOmNyZWF0ZQAyMDIyLTAyLTI2VDEzOjUwOjI4KzAwOjAw8Y04QAAAACV0RVh0ZGF0ZTptb2RpZnkAMjAyMi0wMi0yNlQxMzo1MDoyOCswMDowMIDQgPwAAAAZdEVYdFNvZnR3YXJlAHd3dy5pbmtzY2FwZS5vcmeb7jwaAAAAAElFTkSuQmCC;container=0;" vertex="1" parent="i0zt0oU-3AJXrjKHt_ms-1">
          <mxGeometry x="-479.53000000000003" y="-468.0999999999999" width="30.53" height="30.53" as="geometry" />
        </mxCell>
        <mxCell id="N2LMkY_gqF_srAPKnr6s-170" value="&lt;b&gt;&lt;font style=&quot;font-size: 30px;&quot;&gt;W&lt;/font&gt;&lt;/b&gt;" style="text;strokeColor=default;align=center;fillColor=default;html=1;verticalAlign=middle;whiteSpace=wrap;rounded=0;container=0;" vertex="1" parent="i0zt0oU-3AJXrjKHt_ms-1">
          <mxGeometry x="-877.9399999999998" y="-867.04" width="30" height="30" as="geometry" />
        </mxCell>
        <mxCell id="N2LMkY_gqF_srAPKnr6s-171" value="&lt;b&gt;&lt;font style=&quot;font-size: 30px;&quot;&gt;E&lt;/font&gt;&lt;/b&gt;" style="text;strokeColor=default;align=center;fillColor=default;html=1;verticalAlign=middle;whiteSpace=wrap;rounded=0;container=0;" vertex="1" parent="i0zt0oU-3AJXrjKHt_ms-1">
          <mxGeometry x="-508.99999999999983" y="-498.0999999999999" width="30" height="30" as="geometry" />
        </mxCell>
        <mxCell id="N2LMkY_gqF_srAPKnr6s-193" value="&lt;b&gt;&lt;font style=&quot;font-size: 30px;&quot;&gt;N&lt;/font&gt;&lt;/b&gt;" style="text;strokeColor=default;align=center;fillColor=none;html=1;verticalAlign=middle;whiteSpace=wrap;rounded=0;container=0;" vertex="1" parent="i0zt0oU-3AJXrjKHt_ms-1">
          <mxGeometry x="-351.99999999999983" y="-964" width="30" height="30" as="geometry" />
        </mxCell>
        <mxCell id="N2LMkY_gqF_srAPKnr6s-194" value="" style="shape=image;aspect=fixed;image=data:image/png,iVBORw0KGgoAAAANSUhEUgAAAKAAAACgCAYAAACLz2ctAAAABGdBTUEAALGPC/xhBQAAACBjSFJNAAB6JgAAgIQAAPoAAACA6AAAdTAAAOpgAAA6mAAAF3CculE8AAAACXBIWXMAAKf7AACn+wE8Q2ENAAAAB3RJTUUH5gIaDTIzE9UQkAAAAAZiS0dEAP8A/wD/oL2nkwAAC7FJREFUeNrtXW2MHVUZnm23rW13gVKgxg8+SjHix4+CitAYUTBiKCUiSnfvzNxdbNVSCkWMiEqoFFG+hGBI8COIFALdOzN3Kyn1i4o2kkBUgpgqaCKlUHZ3Zu52i7Qg0uv7njmz3bTd3bv3zp05d87zJE9u4Ae09zz3Ped9z/O+xzAAAAAAAAAAAKgJllsxuku76TOca7vhdCK+FCBNAQbMDuKtxA/xPwNAKlju7TbsSICfJ+4lbiDOhgiBNKPfccRtxCrxP8QvWB79ewciBJosviKd9+hzLfF/UoDMJ4nvQhQE0oh+7yH+Y4z4mPuJN9je4DTL8/FFAc0Rn+350+nz9oPEF3MX8UwhUogQSFR8/ZU4+i0hDowjQKZLCUqnja0YSDb6+cw5JLCHJxAfcx+x1xLnRERBIAGYXhBHv8/JjLc6CZ8hLkRCAiSZeBxL/H0N4ot5O23D7diKgYajn13i7Te48qCyy2T0ieeIsg1qg0CD0e8U4t+nIL6YW4jzsBUD9YmPIpdVCqfJ+95qHfwvcXV3OTSKJYgQmAJWbt4RRz+u671SpwCrsmB9qqghIisGprj1ssHgoQbEF/Me2wlm2jgLArVtvWEswIuIryYgwN3EpeK/uWEAXzBQc9nl8QTEF/Nx6aDBFwxMID5KGKyo7LKG+GaCAuQSzjVL737RsD2IEJg4+i0ibk9QfDFfIC5GFATGFR9lqlx2ubkJ4ot5v+VRcoMoCIwT/Rotu0zGyD0txI5GJmBUfJz5hlx2ebCJ4oN7GjgUpjPq9ftsQmWXySjc02Y5mIatGIjE5wTH0OfvUhDfWPf0WYiCmqNYDigCiuh3ecJll1roETshQiQeJxP/lrL4mK9H7mlfnEEB3c5+roh+XHb5fgbii/lX+QPAgmga/c6Q57FqhvwBsR0i1Cn6UfZpej6XXR7IWHzMgN3Tpmx6B3KObne0yehC4h4FBAj3tIZb73ziVkXEF7un11glbmqHCPMtvqjN8jK56FWF+BzxfYiCORegmV3ZpSb3tOUEMyHCPIrPETceXHb5nqLii93TF4gfioeEJD+Jh+fHZ7+PEF9WWIBV2QAP93QOE4+3yWmmVcUp3NNdD0UmCaDF8WV3byzAZQqVXWpxT5/Gf+5L+3dhEXNw9uOyy2MtIr6YG0wnmI2xv62/9TJXKVh2qcU9fQmXjbo3DmMxW1iAPCrt2RYTX8yn4J5uUdiU+RbLg1x2ualFxTfqnpblIyxqq8Ds2xNHvw8TX2phAcI93ZLRz/WZXHb5eYuLD+7p1hPfaOLBNwojOREgu6cvjZMqQP3E42jib3MiPrinW+bs5wRi9got0ldasOxSm3vaC9th2VI7+p0ko0U1h2T39LnCrODArKBW9KNF6XKDNlqcG3Mqvpi/lEcMLLqC0Y/f7t2ZcwFy//KaHmeEfnRDWHiFxDeLeF/OxRfzebinVdl6vdHZLktzVHaphT8yvWCWiYREiejHHWW/1kh8VfljWxa1GSAhyQRd3rBRFKMtgi/ltOwyqXuakq8F2IqzjX4nygcCqxryLeI3VvXtwDskWYjPdnwuu6zXVHyHuKdNmFdTj36na1B2qYU8YmQOtuK0xBfZ7Lns8jOIb9Q9vZy34UIZ7ummYozb5XzZRwsBHnBPvxtRML2yy68gukPc0+tNL4R7umlF574wdrusJL4B0R3WPb3EEvfieJeuWdHvBOLTEBvc0+mXXdwhLrt8ByKbkPvYPW07odFdRm0w6ejH9a4XIbLa3dMrNo1APMkUnUXZ5V6Iq2bewe5pmBUaRJczEEe/z6DsUp97Gmh86z1KOoEhLLinUxSfF0S3Hm6wAmWX+mdP9zi+aFkA6ot+x6Ps0rB7+v2IgnXc99p9IZdd1kFEDfPHthvOgghrve/1wjj68RP3OyCg5NzTFto5axBg5HbhafE/hXgS4x8suKendPY7jzgM4STqnr62q28YTe2Tis8TZZdHIZrEuUOaeCG0w8Es+YZdDlF2abJ72naDOTZEOO7WuzDHs11UcU9fLK438RjOWPH53GSU9QPSunAbHsMZ3+3yEgSSymM4V1gO91QjCoprIjN6NfxuiCM1Po0J/Ox2OdBkdLq0lEMc6ZVl1vJ9u9b9xDzXpOAOt4npnxBFFp10ehenZfRbRPwXBJGJW8bikkxBRxF2lwZjAV4h2wohivS5yXaC2baO23AkPv8I+twKIWRGn3iGltuwjH4fg9U+c66zS75R6NeoJMPNMnbkdl4PAShRmD5Kqygoo9+R0iYEEWTLYe3eoxsz1T6AAJTg1bwmBU+DZvZeZzgW4GXIftUZ6UHHoplavMIUjdkQU5zuw8Ir1bykx3g3SwwW9+fTX/ZPWHhl+CrxbE0EKLbfDxIHsfBKcbWYJ/MLXwsBXgjXs3K8y+zP+ZvERWfU/fJVLLhyfFTM3s7ztRxffF8ijJDBXVhw5fgX4vxcR0C+/aAo2C4neWLR1XtzJN+vsssp9x38zBQWXDlW5DSK3Ccgx2LgkLIdcx/PtwA90XjOvQjPYcGV4+vEC3SIgCfK8wYWXT2H9MU6CPBktF8qyTf5yS8IEMxSgF06CHAhnlvAFpylAI9HFxySkCwFuAADiFCGyQRyDAdb8Z/AgqMQnb4AeRSEJ8bvbsaCKznAMv9Xcb2e34b5zzAjZCZAMzoHXocFV45baG3y/5yDTEQKck4dFl4d/rCwZciwHD0E+FFMRFCOl/PaFL0RLQT4DuJ2LLpSJZhP6tGUFDliOBMuY+GV4T+JJ2ghwILjx8bUb2Lh1RnTZumQgBy0DZ8j+1EhgOx5jRjN4Q5pJcC3E5/B4mfOETkmz9AG/Jc1HfEcKybjZ88n6Ew+T4u5MIeJgtygvg8iyJQ3Fkq+USyHWgpwgbwCghCyMyAs0XRE77BhebswJTXz67dwrqnri0nWgUdqBiCGTCz4K8S4PMfXWoAziPdDEKmTKxDvtHR+qIb9gVKEn8LdcOq8lkfy2rq/oC4FOJtYgihS43bZHGZojzEj286VE9shkOZyv4h+Zd+wHQjwQBT0xF3kvRBI0/lnC0+1jrsVL5a9CRBK81ove/mJVtvzIbqx4C9k1eZ/G/JiHG7p5tC1XL8T0W/iKHgM8TcQS+Lcaen6MGEdIuQnA/CCenLkgfBXmZuG2ixsvZNsxS5lZyXRunk1Juknxo3EIxD9phYF+Qt7AOJpmDyN9r3iOy1XIK6aaoOlSizCk4h/hIjq5ivE8yzZjw1M5ZquHMYiPEs2zUBQU+Me4soep9JmQ3z13hVHd5VybBiSkqnV+66zXH8mv80HNHIe5Ku6hyuclJhEH+KqadDkLcQ5SDoSvarz+YnXXguPXE8mvjuJKDY3JzP2p9NnEQbWcbfdWyC+pm7HvmH1iRrhRXjq4ZCE49u0S2DbTSMS9ngiMeFxsnj0OkrOvmi54QzLDSGQNNDjVChDHjJkgdWT/Q26WqvYR9mGyJcyCn1hNOjIDeYRb5Athjqd9x4knlKk3aDbGYAgsrs7Zm+beAJ2KfFJ6fjNs/hekLP8OhD1lDkXcjT04zdIbs1pvXCvNBWcRj843G6omSWHTI6GnyA+Ihet1YXH5tyniBZHPTnaDoutKop9I3GC0infPtvWoraut2T32td5omxXedgo4lqthZKUcsXo3ThoyKcH+BpvK/G1FplY8Cx3rrEbqLefttsyIl7LYrk7YtiOEOKR0tTA2ePLMsKoNqePWxFWctcaj68z0TaZH1z5k6pw11iOmE/9AeLXiI/JhCWrzPk1OR3sNtmG0Bn3SQN5TlZoSzMf4YUOO+RwpLVyMsPzTd6m35A3F3wcuIn4aeJxpsvXizjfaVrCCQy77HNRe4Ys4/DNwlWySX6rNMMGcpDm/im4UnbLTjS+LnSI6+Qd9qn0/+oo9Ad0TkWkAw4Ds79iWP3CgzjXjKYILJbRqpu4mvgtOdfwZsnvEq+XwmXL2DLimcRFxKMpwrWLeYjuTny5AAAAAAAAgLb4P54Tmg2IiGNXAAAAJXRFWHRkYXRlOmNyZWF0ZQAyMDIyLTAyLTI2VDEzOjUwOjI4KzAwOjAw8Y04QAAAACV0RVh0ZGF0ZTptb2RpZnkAMjAyMi0wMi0yNlQxMzo1MDoyOCswMDowMIDQgPwAAAAZdEVYdFNvZnR3YXJlAHd3dy5pbmtzY2FwZS5vcmeb7jwaAAAAAElFTkSuQmCC;container=0;" vertex="1" parent="i0zt0oU-3AJXrjKHt_ms-1">
          <mxGeometry x="-751.9999999999998" y="-994" width="30.53" height="30.53" as="geometry" />
        </mxCell>
        <mxCell id="N2LMkY_gqF_srAPKnr6s-195" value="" style="shape=image;aspect=fixed;image=data:image/png,iVBORw0KGgoAAAANSUhEUgAAAKAAAACgCAYAAACLz2ctAAAABGdBTUEAALGPC/xhBQAAACBjSFJNAAB6JgAAgIQAAPoAAACA6AAAdTAAAOpgAAA6mAAAF3CculE8AAAACXBIWXMAAKf7AACn+wE8Q2ENAAAAB3RJTUUH5gIaDTIzE9UQkAAAAAZiS0dEAP8A/wD/oL2nkwAAC7FJREFUeNrtXW2MHVUZnm23rW13gVKgxg8+SjHix4+CitAYUTBiKCUiSnfvzNxdbNVSCkWMiEqoFFG+hGBI8COIFALdOzN3Kyn1i4o2kkBUgpgqaCKlUHZ3Zu52i7Qg0uv7njmz3bTd3bv3zp05d87zJE9u4Ae09zz3Ped9z/O+xzAAAAAAAAAAAKgJllsxuku76TOca7vhdCK+FCBNAQbMDuKtxA/xPwNAKlju7TbsSICfJ+4lbiDOhgiBNKPfccRtxCrxP8QvWB79ewciBJosviKd9+hzLfF/UoDMJ4nvQhQE0oh+7yH+Y4z4mPuJN9je4DTL8/FFAc0Rn+350+nz9oPEF3MX8UwhUogQSFR8/ZU4+i0hDowjQKZLCUqnja0YSDb6+cw5JLCHJxAfcx+x1xLnRERBIAGYXhBHv8/JjLc6CZ8hLkRCAiSZeBxL/H0N4ot5O23D7diKgYajn13i7Te48qCyy2T0ieeIsg1qg0CD0e8U4t+nIL6YW4jzsBUD9YmPIpdVCqfJ+95qHfwvcXV3OTSKJYgQmAJWbt4RRz+u671SpwCrsmB9qqghIisGprj1ssHgoQbEF/Me2wlm2jgLArVtvWEswIuIryYgwN3EpeK/uWEAXzBQc9nl8QTEF/Nx6aDBFwxMID5KGKyo7LKG+GaCAuQSzjVL737RsD2IEJg4+i0ibk9QfDFfIC5GFATGFR9lqlx2ubkJ4ot5v+VRcoMoCIwT/Rotu0zGyD0txI5GJmBUfJz5hlx2ebCJ4oN7GjgUpjPq9ftsQmWXySjc02Y5mIatGIjE5wTH0OfvUhDfWPf0WYiCmqNYDigCiuh3ecJll1roETshQiQeJxP/lrL4mK9H7mlfnEEB3c5+roh+XHb5fgbii/lX+QPAgmga/c6Q57FqhvwBsR0i1Cn6UfZpej6XXR7IWHzMgN3Tpmx6B3KObne0yehC4h4FBAj3tIZb73ziVkXEF7un11glbmqHCPMtvqjN8jK56FWF+BzxfYiCORegmV3ZpSb3tOUEMyHCPIrPETceXHb5nqLii93TF4gfioeEJD+Jh+fHZ7+PEF9WWIBV2QAP93QOE4+3yWmmVcUp3NNdD0UmCaDF8WV3byzAZQqVXWpxT5/Gf+5L+3dhEXNw9uOyy2MtIr6YG0wnmI2xv62/9TJXKVh2qcU9fQmXjbo3DmMxW1iAPCrt2RYTX8yn4J5uUdiU+RbLg1x2ualFxTfqnpblIyxqq8Ds2xNHvw8TX2phAcI93ZLRz/WZXHb5eYuLD+7p1hPfaOLBNwojOREgu6cvjZMqQP3E42jib3MiPrinW+bs5wRi9got0ldasOxSm3vaC9th2VI7+p0ko0U1h2T39LnCrODArKBW9KNF6XKDNlqcG3Mqvpi/lEcMLLqC0Y/f7t2ZcwFy//KaHmeEfnRDWHiFxDeLeF/OxRfzebinVdl6vdHZLktzVHaphT8yvWCWiYREiejHHWW/1kh8VfljWxa1GSAhyQRd3rBRFKMtgi/ltOwyqXuakq8F2IqzjX4nygcCqxryLeI3VvXtwDskWYjPdnwuu6zXVHyHuKdNmFdTj36na1B2qYU8YmQOtuK0xBfZ7Lns8jOIb9Q9vZy34UIZ7ummYozb5XzZRwsBHnBPvxtRML2yy68gukPc0+tNL4R7umlF574wdrusJL4B0R3WPb3EEvfieJeuWdHvBOLTEBvc0+mXXdwhLrt8ByKbkPvYPW07odFdRm0w6ejH9a4XIbLa3dMrNo1APMkUnUXZ5V6Iq2bewe5pmBUaRJczEEe/z6DsUp97Gmh86z1KOoEhLLinUxSfF0S3Hm6wAmWX+mdP9zi+aFkA6ot+x6Ps0rB7+v2IgnXc99p9IZdd1kFEDfPHthvOgghrve/1wjj68RP3OyCg5NzTFto5axBg5HbhafE/hXgS4x8suKendPY7jzgM4STqnr62q28YTe2Tis8TZZdHIZrEuUOaeCG0w8Es+YZdDlF2abJ72naDOTZEOO7WuzDHs11UcU9fLK438RjOWPH53GSU9QPSunAbHsMZ3+3yEgSSymM4V1gO91QjCoprIjN6NfxuiCM1Po0J/Ox2OdBkdLq0lEMc6ZVl1vJ9u9b9xDzXpOAOt4npnxBFFp10ehenZfRbRPwXBJGJW8bikkxBRxF2lwZjAV4h2wohivS5yXaC2baO23AkPv8I+twKIWRGn3iGltuwjH4fg9U+c66zS75R6NeoJMPNMnbkdl4PAShRmD5Kqygoo9+R0iYEEWTLYe3eoxsz1T6AAJTg1bwmBU+DZvZeZzgW4GXIftUZ6UHHoplavMIUjdkQU5zuw8Ir1bykx3g3SwwW9+fTX/ZPWHhl+CrxbE0EKLbfDxIHsfBKcbWYJ/MLXwsBXgjXs3K8y+zP+ZvERWfU/fJVLLhyfFTM3s7ztRxffF8ijJDBXVhw5fgX4vxcR0C+/aAo2C4neWLR1XtzJN+vsssp9x38zBQWXDlW5DSK3Ccgx2LgkLIdcx/PtwA90XjOvQjPYcGV4+vEC3SIgCfK8wYWXT2H9MU6CPBktF8qyTf5yS8IEMxSgF06CHAhnlvAFpylAI9HFxySkCwFuAADiFCGyQRyDAdb8Z/AgqMQnb4AeRSEJ8bvbsaCKznAMv9Xcb2e34b5zzAjZCZAMzoHXocFV45baG3y/5yDTEQKck4dFl4d/rCwZciwHD0E+FFMRFCOl/PaFL0RLQT4DuJ2LLpSJZhP6tGUFDliOBMuY+GV4T+JJ2ghwILjx8bUb2Lh1RnTZumQgBy0DZ8j+1EhgOx5jRjN4Q5pJcC3E5/B4mfOETkmz9AG/Jc1HfEcKybjZ88n6Ew+T4u5MIeJgtygvg8iyJQ3Fkq+USyHWgpwgbwCghCyMyAs0XRE77BhebswJTXz67dwrqnri0nWgUdqBiCGTCz4K8S4PMfXWoAziPdDEKmTKxDvtHR+qIb9gVKEn8LdcOq8lkfy2rq/oC4FOJtYgihS43bZHGZojzEj286VE9shkOZyv4h+Zd+wHQjwQBT0xF3kvRBI0/lnC0+1jrsVL5a9CRBK81ove/mJVtvzIbqx4C9k1eZ/G/JiHG7p5tC1XL8T0W/iKHgM8TcQS+Lcaen6MGEdIuQnA/CCenLkgfBXmZuG2ixsvZNsxS5lZyXRunk1Juknxo3EIxD9phYF+Qt7AOJpmDyN9r3iOy1XIK6aaoOlSizCk4h/hIjq5ivE8yzZjw1M5ZquHMYiPEs2zUBQU+Me4soep9JmQ3z13hVHd5VybBiSkqnV+66zXH8mv80HNHIe5Ku6hyuclJhEH+KqadDkLcQ5SDoSvarz+YnXXguPXE8mvjuJKDY3JzP2p9NnEQbWcbfdWyC+pm7HvmH1iRrhRXjq4ZCE49u0S2DbTSMS9ngiMeFxsnj0OkrOvmi54QzLDSGQNNDjVChDHjJkgdWT/Q26WqvYR9mGyJcyCn1hNOjIDeYRb5Athjqd9x4knlKk3aDbGYAgsrs7Zm+beAJ2KfFJ6fjNs/hekLP8OhD1lDkXcjT04zdIbs1pvXCvNBWcRj843G6omSWHTI6GnyA+Ihet1YXH5tyniBZHPTnaDoutKop9I3GC0infPtvWoraut2T32td5omxXedgo4lqthZKUcsXo3ThoyKcH+BpvK/G1FplY8Cx3rrEbqLefttsyIl7LYrk7YtiOEOKR0tTA2ePLMsKoNqePWxFWctcaj68z0TaZH1z5k6pw11iOmE/9AeLXiI/JhCWrzPk1OR3sNtmG0Bn3SQN5TlZoSzMf4YUOO+RwpLVyMsPzTd6m35A3F3wcuIn4aeJxpsvXizjfaVrCCQy77HNRe4Ys4/DNwlWySX6rNMMGcpDm/im4UnbLTjS+LnSI6+Qd9qn0/+oo9Ad0TkWkAw4Ds79iWP3CgzjXjKYILJbRqpu4mvgtOdfwZsnvEq+XwmXL2DLimcRFxKMpwrWLeYjuTny5AAAAAAAAgLb4P54Tmg2IiGNXAAAAJXRFWHRkYXRlOmNyZWF0ZQAyMDIyLTAyLTI2VDEzOjUwOjI4KzAwOjAw8Y04QAAAACV0RVh0ZGF0ZTptb2RpZnkAMjAyMi0wMi0yNlQxMzo1MDoyOCswMDowMIDQgPwAAAAZdEVYdFNvZnR3YXJlAHd3dy5pbmtzY2FwZS5vcmeb7jwaAAAAAElFTkSuQmCC;container=0;" vertex="1" parent="i0zt0oU-3AJXrjKHt_ms-1">
          <mxGeometry x="-322.53000000000003" y="-564" width="30.53" height="30.53" as="geometry" />
        </mxCell>
        <mxCell id="N2LMkY_gqF_srAPKnr6s-196" value="&lt;b&gt;&lt;font color=&quot;#ff0000&quot; style=&quot;font-size: 30px;&quot;&gt;A&lt;/font&gt;&lt;/b&gt;" style="text;strokeColor=default;align=center;fillColor=none;html=1;verticalAlign=middle;whiteSpace=wrap;rounded=0;container=0;" vertex="1" parent="i0zt0oU-3AJXrjKHt_ms-1">
          <mxGeometry x="-351.99999999999983" y="-992.94" width="30" height="30" as="geometry" />
        </mxCell>
        <mxCell id="N2LMkY_gqF_srAPKnr6s-197" value="&lt;b&gt;&lt;font style=&quot;font-size: 30px;&quot;&gt;W&lt;/font&gt;&lt;/b&gt;" style="text;strokeColor=default;align=center;fillColor=default;html=1;verticalAlign=middle;whiteSpace=wrap;rounded=0;container=0;" vertex="1" parent="i0zt0oU-3AJXrjKHt_ms-1">
          <mxGeometry x="-720.9399999999998" y="-962.94" width="30" height="30" as="geometry" />
        </mxCell>
        <mxCell id="N2LMkY_gqF_srAPKnr6s-198" value="&lt;b&gt;&lt;font style=&quot;font-size: 30px;&quot;&gt;E&lt;/font&gt;&lt;/b&gt;" style="text;strokeColor=default;align=center;fillColor=default;html=1;verticalAlign=middle;whiteSpace=wrap;rounded=0;container=0;" vertex="1" parent="i0zt0oU-3AJXrjKHt_ms-1">
          <mxGeometry x="-351.99999999999983" y="-594" width="30" height="30" as="geometry" />
        </mxCell>
        <mxCell id="N2LMkY_gqF_srAPKnr6s-199" value="&lt;b&gt;&lt;font color=&quot;#66b2ff&quot; style=&quot;font-size: 30px;&quot;&gt;B&lt;/font&gt;&lt;/b&gt;" style="text;strokeColor=default;align=center;fillColor=none;html=1;verticalAlign=middle;whiteSpace=wrap;rounded=0;container=0;" vertex="1" parent="i0zt0oU-3AJXrjKHt_ms-1">
          <mxGeometry x="-321.99999999999983" y="-964" width="30" height="30" as="geometry" />
        </mxCell>
        <mxCell id="i0zt0oU-3AJXrjKHt_ms-36" value="&lt;b&gt;&lt;font style=&quot;font-size: 30px;&quot;&gt;S&lt;/font&gt;&lt;/b&gt;" style="text;strokeColor=default;align=center;fillColor=none;html=1;verticalAlign=middle;whiteSpace=wrap;rounded=0;container=0;" parent="i0zt0oU-3AJXrjKHt_ms-1" vertex="1">
          <mxGeometry x="-2046.9399999999998" y="-1137.57" width="30" height="30" as="geometry" />
        </mxCell>
        <mxCell id="HzdDTih6rlxNozK_kz3W-3" value="&lt;b&gt;&lt;font color=&quot;#ff0000&quot; style=&quot;font-size: 30px;&quot;&gt;A&lt;/font&gt;&lt;/b&gt;" style="text;strokeColor=default;align=center;fillColor=none;html=1;verticalAlign=middle;whiteSpace=wrap;rounded=0;container=0;" parent="i0zt0oU-3AJXrjKHt_ms-1" vertex="1">
          <mxGeometry x="-2076.9399999999996" y="-1138.1" width="30" height="30" as="geometry" />
        </mxCell>
        <mxCell id="HzdDTih6rlxNozK_kz3W-4" value="&lt;b&gt;&lt;font color=&quot;#66b2ff&quot; style=&quot;font-size: 30px;&quot;&gt;B&lt;/font&gt;&lt;/b&gt;" style="text;strokeColor=default;align=center;fillColor=none;html=1;verticalAlign=middle;whiteSpace=wrap;rounded=0;container=0;" parent="i0zt0oU-3AJXrjKHt_ms-1" vertex="1">
          <mxGeometry x="-2047.9999999999998" y="-1107.57" width="30" height="30" as="geometry" />
        </mxCell>
        <mxCell id="2ChNvNFg1Hmtz30S6cTf-71" value="" style="shape=image;aspect=fixed;image=data:image/png,iVBORw0KGgoAAAANSUhEUgAAAKAAAACgCAYAAACLz2ctAAAABGdBTUEAALGPC/xhBQAAACBjSFJNAAB6JgAAgIQAAPoAAACA6AAAdTAAAOpgAAA6mAAAF3CculE8AAAACXBIWXMAAKf7AACn+wE8Q2ENAAAAB3RJTUUH5gIaDTIzE9UQkAAAAAZiS0dEAP8A/wD/oL2nkwAAC7FJREFUeNrtXW2MHVUZnm23rW13gVKgxg8+SjHix4+CitAYUTBiKCUiSnfvzNxdbNVSCkWMiEqoFFG+hGBI8COIFALdOzN3Kyn1i4o2kkBUgpgqaCKlUHZ3Zu52i7Qg0uv7njmz3bTd3bv3zp05d87zJE9u4Ae09zz3Ped9z/O+xzAAAAAAAAAAAKgJllsxuku76TOca7vhdCK+FCBNAQbMDuKtxA/xPwNAKlju7TbsSICfJ+4lbiDOhgiBNKPfccRtxCrxP8QvWB79ewciBJosviKd9+hzLfF/UoDMJ4nvQhQE0oh+7yH+Y4z4mPuJN9je4DTL8/FFAc0Rn+350+nz9oPEF3MX8UwhUogQSFR8/ZU4+i0hDowjQKZLCUqnja0YSDb6+cw5JLCHJxAfcx+x1xLnRERBIAGYXhBHv8/JjLc6CZ8hLkRCAiSZeBxL/H0N4ot5O23D7diKgYajn13i7Te48qCyy2T0ieeIsg1qg0CD0e8U4t+nIL6YW4jzsBUD9YmPIpdVCqfJ+95qHfwvcXV3OTSKJYgQmAJWbt4RRz+u671SpwCrsmB9qqghIisGprj1ssHgoQbEF/Me2wlm2jgLArVtvWEswIuIryYgwN3EpeK/uWEAXzBQc9nl8QTEF/Nx6aDBFwxMID5KGKyo7LKG+GaCAuQSzjVL737RsD2IEJg4+i0ibk9QfDFfIC5GFATGFR9lqlx2ubkJ4ot5v+VRcoMoCIwT/Rotu0zGyD0txI5GJmBUfJz5hlx2ebCJ4oN7GjgUpjPq9ftsQmWXySjc02Y5mIatGIjE5wTH0OfvUhDfWPf0WYiCmqNYDigCiuh3ecJll1roETshQiQeJxP/lrL4mK9H7mlfnEEB3c5+roh+XHb5fgbii/lX+QPAgmga/c6Q57FqhvwBsR0i1Cn6UfZpej6XXR7IWHzMgN3Tpmx6B3KObne0yehC4h4FBAj3tIZb73ziVkXEF7un11glbmqHCPMtvqjN8jK56FWF+BzxfYiCORegmV3ZpSb3tOUEMyHCPIrPETceXHb5nqLii93TF4gfioeEJD+Jh+fHZ7+PEF9WWIBV2QAP93QOE4+3yWmmVcUp3NNdD0UmCaDF8WV3byzAZQqVXWpxT5/Gf+5L+3dhEXNw9uOyy2MtIr6YG0wnmI2xv62/9TJXKVh2qcU9fQmXjbo3DmMxW1iAPCrt2RYTX8yn4J5uUdiU+RbLg1x2ualFxTfqnpblIyxqq8Ds2xNHvw8TX2phAcI93ZLRz/WZXHb5eYuLD+7p1hPfaOLBNwojOREgu6cvjZMqQP3E42jib3MiPrinW+bs5wRi9got0ldasOxSm3vaC9th2VI7+p0ko0U1h2T39LnCrODArKBW9KNF6XKDNlqcG3Mqvpi/lEcMLLqC0Y/f7t2ZcwFy//KaHmeEfnRDWHiFxDeLeF/OxRfzebinVdl6vdHZLktzVHaphT8yvWCWiYREiejHHWW/1kh8VfljWxa1GSAhyQRd3rBRFKMtgi/ltOwyqXuakq8F2IqzjX4nygcCqxryLeI3VvXtwDskWYjPdnwuu6zXVHyHuKdNmFdTj36na1B2qYU8YmQOtuK0xBfZ7Lns8jOIb9Q9vZy34UIZ7ummYozb5XzZRwsBHnBPvxtRML2yy68gukPc0+tNL4R7umlF574wdrusJL4B0R3WPb3EEvfieJeuWdHvBOLTEBvc0+mXXdwhLrt8ByKbkPvYPW07odFdRm0w6ejH9a4XIbLa3dMrNo1APMkUnUXZ5V6Iq2bewe5pmBUaRJczEEe/z6DsUp97Gmh86z1KOoEhLLinUxSfF0S3Hm6wAmWX+mdP9zi+aFkA6ot+x6Ps0rB7+v2IgnXc99p9IZdd1kFEDfPHthvOgghrve/1wjj68RP3OyCg5NzTFto5axBg5HbhafE/hXgS4x8suKendPY7jzgM4STqnr62q28YTe2Tis8TZZdHIZrEuUOaeCG0w8Es+YZdDlF2abJ72naDOTZEOO7WuzDHs11UcU9fLK438RjOWPH53GSU9QPSunAbHsMZ3+3yEgSSymM4V1gO91QjCoprIjN6NfxuiCM1Po0J/Ox2OdBkdLq0lEMc6ZVl1vJ9u9b9xDzXpOAOt4npnxBFFp10ehenZfRbRPwXBJGJW8bikkxBRxF2lwZjAV4h2wohivS5yXaC2baO23AkPv8I+twKIWRGn3iGltuwjH4fg9U+c66zS75R6NeoJMPNMnbkdl4PAShRmD5Kqygoo9+R0iYEEWTLYe3eoxsz1T6AAJTg1bwmBU+DZvZeZzgW4GXIftUZ6UHHoplavMIUjdkQU5zuw8Ir1bykx3g3SwwW9+fTX/ZPWHhl+CrxbE0EKLbfDxIHsfBKcbWYJ/MLXwsBXgjXs3K8y+zP+ZvERWfU/fJVLLhyfFTM3s7ztRxffF8ijJDBXVhw5fgX4vxcR0C+/aAo2C4neWLR1XtzJN+vsssp9x38zBQWXDlW5DSK3Ccgx2LgkLIdcx/PtwA90XjOvQjPYcGV4+vEC3SIgCfK8wYWXT2H9MU6CPBktF8qyTf5yS8IEMxSgF06CHAhnlvAFpylAI9HFxySkCwFuAADiFCGyQRyDAdb8Z/AgqMQnb4AeRSEJ8bvbsaCKznAMv9Xcb2e34b5zzAjZCZAMzoHXocFV45baG3y/5yDTEQKck4dFl4d/rCwZciwHD0E+FFMRFCOl/PaFL0RLQT4DuJ2LLpSJZhP6tGUFDliOBMuY+GV4T+JJ2ghwILjx8bUb2Lh1RnTZumQgBy0DZ8j+1EhgOx5jRjN4Q5pJcC3E5/B4mfOETkmz9AG/Jc1HfEcKybjZ88n6Ew+T4u5MIeJgtygvg8iyJQ3Fkq+USyHWgpwgbwCghCyMyAs0XRE77BhebswJTXz67dwrqnri0nWgUdqBiCGTCz4K8S4PMfXWoAziPdDEKmTKxDvtHR+qIb9gVKEn8LdcOq8lkfy2rq/oC4FOJtYgihS43bZHGZojzEj286VE9shkOZyv4h+Zd+wHQjwQBT0xF3kvRBI0/lnC0+1jrsVL5a9CRBK81ove/mJVtvzIbqx4C9k1eZ/G/JiHG7p5tC1XL8T0W/iKHgM8TcQS+Lcaen6MGEdIuQnA/CCenLkgfBXmZuG2ixsvZNsxS5lZyXRunk1Juknxo3EIxD9phYF+Qt7AOJpmDyN9r3iOy1XIK6aaoOlSizCk4h/hIjq5ivE8yzZjw1M5ZquHMYiPEs2zUBQU+Me4soep9JmQ3z13hVHd5VybBiSkqnV+66zXH8mv80HNHIe5Ku6hyuclJhEH+KqadDkLcQ5SDoSvarz+YnXXguPXE8mvjuJKDY3JzP2p9NnEQbWcbfdWyC+pm7HvmH1iRrhRXjq4ZCE49u0S2DbTSMS9ngiMeFxsnj0OkrOvmi54QzLDSGQNNDjVChDHjJkgdWT/Q26WqvYR9mGyJcyCn1hNOjIDeYRb5Athjqd9x4knlKk3aDbGYAgsrs7Zm+beAJ2KfFJ6fjNs/hekLP8OhD1lDkXcjT04zdIbs1pvXCvNBWcRj843G6omSWHTI6GnyA+Ihet1YXH5tyniBZHPTnaDoutKop9I3GC0infPtvWoraut2T32td5omxXedgo4lqthZKUcsXo3ThoyKcH+BpvK/G1FplY8Cx3rrEbqLefttsyIl7LYrk7YtiOEOKR0tTA2ePLMsKoNqePWxFWctcaj68z0TaZH1z5k6pw11iOmE/9AeLXiI/JhCWrzPk1OR3sNtmG0Bn3SQN5TlZoSzMf4YUOO+RwpLVyMsPzTd6m35A3F3wcuIn4aeJxpsvXizjfaVrCCQy77HNRe4Ys4/DNwlWySX6rNMMGcpDm/im4UnbLTjS+LnSI6+Qd9qn0/+oo9Ad0TkWkAw4Ds79iWP3CgzjXjKYILJbRqpu4mvgtOdfwZsnvEq+XwmXL2DLimcRFxKMpwrWLeYjuTny5AAAAAAAAgLb4P54Tmg2IiGNXAAAAJXRFWHRkYXRlOmNyZWF0ZQAyMDIyLTAyLTI2VDEzOjUwOjI4KzAwOjAw8Y04QAAAACV0RVh0ZGF0ZTptb2RpZnkAMjAyMi0wMi0yNlQxMzo1MDoyOCswMDowMIDQgPwAAAAZdEVYdFNvZnR3YXJlAHd3dy5pbmtzY2FwZS5vcmeb7jwaAAAAAElFTkSuQmCC;container=0;" parent="i0zt0oU-3AJXrjKHt_ms-1" vertex="1">
          <mxGeometry x="-2078" y="-1538.1" width="30.53" height="30.53" as="geometry" />
        </mxCell>
        <mxCell id="2ChNvNFg1Hmtz30S6cTf-72" value="" style="shape=image;aspect=fixed;image=data:image/png,iVBORw0KGgoAAAANSUhEUgAAAKAAAACgCAYAAACLz2ctAAAABGdBTUEAALGPC/xhBQAAACBjSFJNAAB6JgAAgIQAAPoAAACA6AAAdTAAAOpgAAA6mAAAF3CculE8AAAACXBIWXMAAKf7AACn+wE8Q2ENAAAAB3RJTUUH5gIaDTIzE9UQkAAAAAZiS0dEAP8A/wD/oL2nkwAAC7FJREFUeNrtXW2MHVUZnm23rW13gVKgxg8+SjHix4+CitAYUTBiKCUiSnfvzNxdbNVSCkWMiEqoFFG+hGBI8COIFALdOzN3Kyn1i4o2kkBUgpgqaCKlUHZ3Zu52i7Qg0uv7njmz3bTd3bv3zp05d87zJE9u4Ae09zz3Ped9z/O+xzAAAAAAAAAAAKgJllsxuku76TOca7vhdCK+FCBNAQbMDuKtxA/xPwNAKlju7TbsSICfJ+4lbiDOhgiBNKPfccRtxCrxP8QvWB79ewciBJosviKd9+hzLfF/UoDMJ4nvQhQE0oh+7yH+Y4z4mPuJN9je4DTL8/FFAc0Rn+350+nz9oPEF3MX8UwhUogQSFR8/ZU4+i0hDowjQKZLCUqnja0YSDb6+cw5JLCHJxAfcx+x1xLnRERBIAGYXhBHv8/JjLc6CZ8hLkRCAiSZeBxL/H0N4ot5O23D7diKgYajn13i7Te48qCyy2T0ieeIsg1qg0CD0e8U4t+nIL6YW4jzsBUD9YmPIpdVCqfJ+95qHfwvcXV3OTSKJYgQmAJWbt4RRz+u671SpwCrsmB9qqghIisGprj1ssHgoQbEF/Me2wlm2jgLArVtvWEswIuIryYgwN3EpeK/uWEAXzBQc9nl8QTEF/Nx6aDBFwxMID5KGKyo7LKG+GaCAuQSzjVL737RsD2IEJg4+i0ibk9QfDFfIC5GFATGFR9lqlx2ubkJ4ot5v+VRcoMoCIwT/Rotu0zGyD0txI5GJmBUfJz5hlx2ebCJ4oN7GjgUpjPq9ftsQmWXySjc02Y5mIatGIjE5wTH0OfvUhDfWPf0WYiCmqNYDigCiuh3ecJll1roETshQiQeJxP/lrL4mK9H7mlfnEEB3c5+roh+XHb5fgbii/lX+QPAgmga/c6Q57FqhvwBsR0i1Cn6UfZpej6XXR7IWHzMgN3Tpmx6B3KObne0yehC4h4FBAj3tIZb73ziVkXEF7un11glbmqHCPMtvqjN8jK56FWF+BzxfYiCORegmV3ZpSb3tOUEMyHCPIrPETceXHb5nqLii93TF4gfioeEJD+Jh+fHZ7+PEF9WWIBV2QAP93QOE4+3yWmmVcUp3NNdD0UmCaDF8WV3byzAZQqVXWpxT5/Gf+5L+3dhEXNw9uOyy2MtIr6YG0wnmI2xv62/9TJXKVh2qcU9fQmXjbo3DmMxW1iAPCrt2RYTX8yn4J5uUdiU+RbLg1x2ualFxTfqnpblIyxqq8Ds2xNHvw8TX2phAcI93ZLRz/WZXHb5eYuLD+7p1hPfaOLBNwojOREgu6cvjZMqQP3E42jib3MiPrinW+bs5wRi9got0ldasOxSm3vaC9th2VI7+p0ko0U1h2T39LnCrODArKBW9KNF6XKDNlqcG3Mqvpi/lEcMLLqC0Y/f7t2ZcwFy//KaHmeEfnRDWHiFxDeLeF/OxRfzebinVdl6vdHZLktzVHaphT8yvWCWiYREiejHHWW/1kh8VfljWxa1GSAhyQRd3rBRFKMtgi/ltOwyqXuakq8F2IqzjX4nygcCqxryLeI3VvXtwDskWYjPdnwuu6zXVHyHuKdNmFdTj36na1B2qYU8YmQOtuK0xBfZ7Lns8jOIb9Q9vZy34UIZ7ummYozb5XzZRwsBHnBPvxtRML2yy68gukPc0+tNL4R7umlF574wdrusJL4B0R3WPb3EEvfieJeuWdHvBOLTEBvc0+mXXdwhLrt8ByKbkPvYPW07odFdRm0w6ejH9a4XIbLa3dMrNo1APMkUnUXZ5V6Iq2bewe5pmBUaRJczEEe/z6DsUp97Gmh86z1KOoEhLLinUxSfF0S3Hm6wAmWX+mdP9zi+aFkA6ot+x6Ps0rB7+v2IgnXc99p9IZdd1kFEDfPHthvOgghrve/1wjj68RP3OyCg5NzTFto5axBg5HbhafE/hXgS4x8suKendPY7jzgM4STqnr62q28YTe2Tis8TZZdHIZrEuUOaeCG0w8Es+YZdDlF2abJ72naDOTZEOO7WuzDHs11UcU9fLK438RjOWPH53GSU9QPSunAbHsMZ3+3yEgSSymM4V1gO91QjCoprIjN6NfxuiCM1Po0J/Ox2OdBkdLq0lEMc6ZVl1vJ9u9b9xDzXpOAOt4npnxBFFp10ehenZfRbRPwXBJGJW8bikkxBRxF2lwZjAV4h2wohivS5yXaC2baO23AkPv8I+twKIWRGn3iGltuwjH4fg9U+c66zS75R6NeoJMPNMnbkdl4PAShRmD5Kqygoo9+R0iYEEWTLYe3eoxsz1T6AAJTg1bwmBU+DZvZeZzgW4GXIftUZ6UHHoplavMIUjdkQU5zuw8Ir1bykx3g3SwwW9+fTX/ZPWHhl+CrxbE0EKLbfDxIHsfBKcbWYJ/MLXwsBXgjXs3K8y+zP+ZvERWfU/fJVLLhyfFTM3s7ztRxffF8ijJDBXVhw5fgX4vxcR0C+/aAo2C4neWLR1XtzJN+vsssp9x38zBQWXDlW5DSK3Ccgx2LgkLIdcx/PtwA90XjOvQjPYcGV4+vEC3SIgCfK8wYWXT2H9MU6CPBktF8qyTf5yS8IEMxSgF06CHAhnlvAFpylAI9HFxySkCwFuAADiFCGyQRyDAdb8Z/AgqMQnb4AeRSEJ8bvbsaCKznAMv9Xcb2e34b5zzAjZCZAMzoHXocFV45baG3y/5yDTEQKck4dFl4d/rCwZciwHD0E+FFMRFCOl/PaFL0RLQT4DuJ2LLpSJZhP6tGUFDliOBMuY+GV4T+JJ2ghwILjx8bUb2Lh1RnTZumQgBy0DZ8j+1EhgOx5jRjN4Q5pJcC3E5/B4mfOETkmz9AG/Jc1HfEcKybjZ88n6Ew+T4u5MIeJgtygvg8iyJQ3Fkq+USyHWgpwgbwCghCyMyAs0XRE77BhebswJTXz67dwrqnri0nWgUdqBiCGTCz4K8S4PMfXWoAziPdDEKmTKxDvtHR+qIb9gVKEn8LdcOq8lkfy2rq/oC4FOJtYgihS43bZHGZojzEj286VE9shkOZyv4h+Zd+wHQjwQBT0xF3kvRBI0/lnC0+1jrsVL5a9CRBK81ove/mJVtvzIbqx4C9k1eZ/G/JiHG7p5tC1XL8T0W/iKHgM8TcQS+Lcaen6MGEdIuQnA/CCenLkgfBXmZuG2ixsvZNsxS5lZyXRunk1Juknxo3EIxD9phYF+Qt7AOJpmDyN9r3iOy1XIK6aaoOlSizCk4h/hIjq5ivE8yzZjw1M5ZquHMYiPEs2zUBQU+Me4soep9JmQ3z13hVHd5VybBiSkqnV+66zXH8mv80HNHIe5Ku6hyuclJhEH+KqadDkLcQ5SDoSvarz+YnXXguPXE8mvjuJKDY3JzP2p9NnEQbWcbfdWyC+pm7HvmH1iRrhRXjq4ZCE49u0S2DbTSMS9ngiMeFxsnj0OkrOvmi54QzLDSGQNNDjVChDHjJkgdWT/Q26WqvYR9mGyJcyCn1hNOjIDeYRb5Athjqd9x4knlKk3aDbGYAgsrs7Zm+beAJ2KfFJ6fjNs/hekLP8OhD1lDkXcjT04zdIbs1pvXCvNBWcRj843G6omSWHTI6GnyA+Ihet1YXH5tyniBZHPTnaDoutKop9I3GC0infPtvWoraut2T32td5omxXedgo4lqthZKUcsXo3ThoyKcH+BpvK/G1FplY8Cx3rrEbqLefttsyIl7LYrk7YtiOEOKR0tTA2ePLMsKoNqePWxFWctcaj68z0TaZH1z5k6pw11iOmE/9AeLXiI/JhCWrzPk1OR3sNtmG0Bn3SQN5TlZoSzMf4YUOO+RwpLVyMsPzTd6m35A3F3wcuIn4aeJxpsvXizjfaVrCCQy77HNRe4Ys4/DNwlWySX6rNMMGcpDm/im4UnbLTjS+LnSI6+Qd9qn0/+oo9Ad0TkWkAw4Ds79iWP3CgzjXjKYILJbRqpu4mvgtOdfwZsnvEq+XwmXL2DLimcRFxKMpwrWLeYjuTny5AAAAAAAAgLb4P54Tmg2IiGNXAAAAJXRFWHRkYXRlOmNyZWF0ZQAyMDIyLTAyLTI2VDEzOjUwOjI4KzAwOjAw8Y04QAAAACV0RVh0ZGF0ZTptb2RpZnkAMjAyMi0wMi0yNlQxMzo1MDoyOCswMDowMIDQgPwAAAAZdEVYdFNvZnR3YXJlAHd3dy5pbmtzY2FwZS5vcmeb7jwaAAAAAElFTkSuQmCC;container=0;" parent="i0zt0oU-3AJXrjKHt_ms-1" vertex="1">
          <mxGeometry x="-1648.5299999999997" y="-1108.1" width="30.53" height="30.53" as="geometry" />
        </mxCell>
        <mxCell id="2ChNvNFg1Hmtz30S6cTf-74" value="&lt;b&gt;&lt;font style=&quot;font-size: 30px;&quot;&gt;W&lt;/font&gt;&lt;/b&gt;" style="text;strokeColor=default;align=center;fillColor=default;html=1;verticalAlign=middle;whiteSpace=wrap;rounded=0;container=0;" parent="i0zt0oU-3AJXrjKHt_ms-1" vertex="1">
          <mxGeometry x="-2046.9399999999998" y="-1507.04" width="30" height="30" as="geometry" />
        </mxCell>
        <mxCell id="2ChNvNFg1Hmtz30S6cTf-75" value="&lt;b&gt;&lt;font style=&quot;font-size: 30px;&quot;&gt;E&lt;/font&gt;&lt;/b&gt;" style="text;strokeColor=default;align=center;fillColor=default;html=1;verticalAlign=middle;whiteSpace=wrap;rounded=0;container=0;" parent="i0zt0oU-3AJXrjKHt_ms-1" vertex="1">
          <mxGeometry x="-1677.9999999999998" y="-1138.1" width="30" height="30" as="geometry" />
        </mxCell>
        <mxCell id="N2LMkY_gqF_srAPKnr6s-94" value="&lt;b&gt;&lt;font style=&quot;font-size: 30px;&quot;&gt;S&lt;/font&gt;&lt;/b&gt;" style="text;strokeColor=default;align=center;fillColor=none;html=1;verticalAlign=middle;whiteSpace=wrap;rounded=0;container=0;" vertex="1" parent="i0zt0oU-3AJXrjKHt_ms-1">
          <mxGeometry x="-2046.9399999999998" y="-537.5699999999999" width="30" height="30" as="geometry" />
        </mxCell>
        <mxCell id="N2LMkY_gqF_srAPKnr6s-95" value="&lt;b&gt;&lt;font color=&quot;#ff0000&quot; style=&quot;font-size: 30px;&quot;&gt;A&lt;/font&gt;&lt;/b&gt;" style="text;strokeColor=default;align=center;fillColor=none;html=1;verticalAlign=middle;whiteSpace=wrap;rounded=0;container=0;" vertex="1" parent="i0zt0oU-3AJXrjKHt_ms-1">
          <mxGeometry x="-2076.9399999999996" y="-538.0999999999999" width="30" height="30" as="geometry" />
        </mxCell>
        <mxCell id="N2LMkY_gqF_srAPKnr6s-96" value="&lt;b&gt;&lt;font color=&quot;#66b2ff&quot; style=&quot;font-size: 30px;&quot;&gt;B&lt;/font&gt;&lt;/b&gt;" style="text;strokeColor=default;align=center;fillColor=none;html=1;verticalAlign=middle;whiteSpace=wrap;rounded=0;container=0;" vertex="1" parent="i0zt0oU-3AJXrjKHt_ms-1">
          <mxGeometry x="-2047.9999999999998" y="-507.56999999999994" width="30" height="30" as="geometry" />
        </mxCell>
        <mxCell id="N2LMkY_gqF_srAPKnr6s-97" value="" style="shape=image;aspect=fixed;image=data:image/png,iVBORw0KGgoAAAANSUhEUgAAAKAAAACgCAYAAACLz2ctAAAABGdBTUEAALGPC/xhBQAAACBjSFJNAAB6JgAAgIQAAPoAAACA6AAAdTAAAOpgAAA6mAAAF3CculE8AAAACXBIWXMAAKf7AACn+wE8Q2ENAAAAB3RJTUUH5gIaDTIzE9UQkAAAAAZiS0dEAP8A/wD/oL2nkwAAC7FJREFUeNrtXW2MHVUZnm23rW13gVKgxg8+SjHix4+CitAYUTBiKCUiSnfvzNxdbNVSCkWMiEqoFFG+hGBI8COIFALdOzN3Kyn1i4o2kkBUgpgqaCKlUHZ3Zu52i7Qg0uv7njmz3bTd3bv3zp05d87zJE9u4Ae09zz3Ped9z/O+xzAAAAAAAAAAAKgJllsxuku76TOca7vhdCK+FCBNAQbMDuKtxA/xPwNAKlju7TbsSICfJ+4lbiDOhgiBNKPfccRtxCrxP8QvWB79ewciBJosviKd9+hzLfF/UoDMJ4nvQhQE0oh+7yH+Y4z4mPuJN9je4DTL8/FFAc0Rn+350+nz9oPEF3MX8UwhUogQSFR8/ZU4+i0hDowjQKZLCUqnja0YSDb6+cw5JLCHJxAfcx+x1xLnRERBIAGYXhBHv8/JjLc6CZ8hLkRCAiSZeBxL/H0N4ot5O23D7diKgYajn13i7Te48qCyy2T0ieeIsg1qg0CD0e8U4t+nIL6YW4jzsBUD9YmPIpdVCqfJ+95qHfwvcXV3OTSKJYgQmAJWbt4RRz+u671SpwCrsmB9qqghIisGprj1ssHgoQbEF/Me2wlm2jgLArVtvWEswIuIryYgwN3EpeK/uWEAXzBQc9nl8QTEF/Nx6aDBFwxMID5KGKyo7LKG+GaCAuQSzjVL737RsD2IEJg4+i0ibk9QfDFfIC5GFATGFR9lqlx2ubkJ4ot5v+VRcoMoCIwT/Rotu0zGyD0txI5GJmBUfJz5hlx2ebCJ4oN7GjgUpjPq9ftsQmWXySjc02Y5mIatGIjE5wTH0OfvUhDfWPf0WYiCmqNYDigCiuh3ecJll1roETshQiQeJxP/lrL4mK9H7mlfnEEB3c5+roh+XHb5fgbii/lX+QPAgmga/c6Q57FqhvwBsR0i1Cn6UfZpej6XXR7IWHzMgN3Tpmx6B3KObne0yehC4h4FBAj3tIZb73ziVkXEF7un11glbmqHCPMtvqjN8jK56FWF+BzxfYiCORegmV3ZpSb3tOUEMyHCPIrPETceXHb5nqLii93TF4gfioeEJD+Jh+fHZ7+PEF9WWIBV2QAP93QOE4+3yWmmVcUp3NNdD0UmCaDF8WV3byzAZQqVXWpxT5/Gf+5L+3dhEXNw9uOyy2MtIr6YG0wnmI2xv62/9TJXKVh2qcU9fQmXjbo3DmMxW1iAPCrt2RYTX8yn4J5uUdiU+RbLg1x2ualFxTfqnpblIyxqq8Ds2xNHvw8TX2phAcI93ZLRz/WZXHb5eYuLD+7p1hPfaOLBNwojOREgu6cvjZMqQP3E42jib3MiPrinW+bs5wRi9got0ldasOxSm3vaC9th2VI7+p0ko0U1h2T39LnCrODArKBW9KNF6XKDNlqcG3Mqvpi/lEcMLLqC0Y/f7t2ZcwFy//KaHmeEfnRDWHiFxDeLeF/OxRfzebinVdl6vdHZLktzVHaphT8yvWCWiYREiejHHWW/1kh8VfljWxa1GSAhyQRd3rBRFKMtgi/ltOwyqXuakq8F2IqzjX4nygcCqxryLeI3VvXtwDskWYjPdnwuu6zXVHyHuKdNmFdTj36na1B2qYU8YmQOtuK0xBfZ7Lns8jOIb9Q9vZy34UIZ7ummYozb5XzZRwsBHnBPvxtRML2yy68gukPc0+tNL4R7umlF574wdrusJL4B0R3WPb3EEvfieJeuWdHvBOLTEBvc0+mXXdwhLrt8ByKbkPvYPW07odFdRm0w6ejH9a4XIbLa3dMrNo1APMkUnUXZ5V6Iq2bewe5pmBUaRJczEEe/z6DsUp97Gmh86z1KOoEhLLinUxSfF0S3Hm6wAmWX+mdP9zi+aFkA6ot+x6Ps0rB7+v2IgnXc99p9IZdd1kFEDfPHthvOgghrve/1wjj68RP3OyCg5NzTFto5axBg5HbhafE/hXgS4x8suKendPY7jzgM4STqnr62q28YTe2Tis8TZZdHIZrEuUOaeCG0w8Es+YZdDlF2abJ72naDOTZEOO7WuzDHs11UcU9fLK438RjOWPH53GSU9QPSunAbHsMZ3+3yEgSSymM4V1gO91QjCoprIjN6NfxuiCM1Po0J/Ox2OdBkdLq0lEMc6ZVl1vJ9u9b9xDzXpOAOt4npnxBFFp10ehenZfRbRPwXBJGJW8bikkxBRxF2lwZjAV4h2wohivS5yXaC2baO23AkPv8I+twKIWRGn3iGltuwjH4fg9U+c66zS75R6NeoJMPNMnbkdl4PAShRmD5Kqygoo9+R0iYEEWTLYe3eoxsz1T6AAJTg1bwmBU+DZvZeZzgW4GXIftUZ6UHHoplavMIUjdkQU5zuw8Ir1bykx3g3SwwW9+fTX/ZPWHhl+CrxbE0EKLbfDxIHsfBKcbWYJ/MLXwsBXgjXs3K8y+zP+ZvERWfU/fJVLLhyfFTM3s7ztRxffF8ijJDBXVhw5fgX4vxcR0C+/aAo2C4neWLR1XtzJN+vsssp9x38zBQWXDlW5DSK3Ccgx2LgkLIdcx/PtwA90XjOvQjPYcGV4+vEC3SIgCfK8wYWXT2H9MU6CPBktF8qyTf5yS8IEMxSgF06CHAhnlvAFpylAI9HFxySkCwFuAADiFCGyQRyDAdb8Z/AgqMQnb4AeRSEJ8bvbsaCKznAMv9Xcb2e34b5zzAjZCZAMzoHXocFV45baG3y/5yDTEQKck4dFl4d/rCwZciwHD0E+FFMRFCOl/PaFL0RLQT4DuJ2LLpSJZhP6tGUFDliOBMuY+GV4T+JJ2ghwILjx8bUb2Lh1RnTZumQgBy0DZ8j+1EhgOx5jRjN4Q5pJcC3E5/B4mfOETkmz9AG/Jc1HfEcKybjZ88n6Ew+T4u5MIeJgtygvg8iyJQ3Fkq+USyHWgpwgbwCghCyMyAs0XRE77BhebswJTXz67dwrqnri0nWgUdqBiCGTCz4K8S4PMfXWoAziPdDEKmTKxDvtHR+qIb9gVKEn8LdcOq8lkfy2rq/oC4FOJtYgihS43bZHGZojzEj286VE9shkOZyv4h+Zd+wHQjwQBT0xF3kvRBI0/lnC0+1jrsVL5a9CRBK81ove/mJVtvzIbqx4C9k1eZ/G/JiHG7p5tC1XL8T0W/iKHgM8TcQS+Lcaen6MGEdIuQnA/CCenLkgfBXmZuG2ixsvZNsxS5lZyXRunk1Juknxo3EIxD9phYF+Qt7AOJpmDyN9r3iOy1XIK6aaoOlSizCk4h/hIjq5ivE8yzZjw1M5ZquHMYiPEs2zUBQU+Me4soep9JmQ3z13hVHd5VybBiSkqnV+66zXH8mv80HNHIe5Ku6hyuclJhEH+KqadDkLcQ5SDoSvarz+YnXXguPXE8mvjuJKDY3JzP2p9NnEQbWcbfdWyC+pm7HvmH1iRrhRXjq4ZCE49u0S2DbTSMS9ngiMeFxsnj0OkrOvmi54QzLDSGQNNDjVChDHjJkgdWT/Q26WqvYR9mGyJcyCn1hNOjIDeYRb5Athjqd9x4knlKk3aDbGYAgsrs7Zm+beAJ2KfFJ6fjNs/hekLP8OhD1lDkXcjT04zdIbs1pvXCvNBWcRj843G6omSWHTI6GnyA+Ihet1YXH5tyniBZHPTnaDoutKop9I3GC0infPtvWoraut2T32td5omxXedgo4lqthZKUcsXo3ThoyKcH+BpvK/G1FplY8Cx3rrEbqLefttsyIl7LYrk7YtiOEOKR0tTA2ePLMsKoNqePWxFWctcaj68z0TaZH1z5k6pw11iOmE/9AeLXiI/JhCWrzPk1OR3sNtmG0Bn3SQN5TlZoSzMf4YUOO+RwpLVyMsPzTd6m35A3F3wcuIn4aeJxpsvXizjfaVrCCQy77HNRe4Ys4/DNwlWySX6rNMMGcpDm/im4UnbLTjS+LnSI6+Qd9qn0/+oo9Ad0TkWkAw4Ds79iWP3CgzjXjKYILJbRqpu4mvgtOdfwZsnvEq+XwmXL2DLimcRFxKMpwrWLeYjuTny5AAAAAAAAgLb4P54Tmg2IiGNXAAAAJXRFWHRkYXRlOmNyZWF0ZQAyMDIyLTAyLTI2VDEzOjUwOjI4KzAwOjAw8Y04QAAAACV0RVh0ZGF0ZTptb2RpZnkAMjAyMi0wMi0yNlQxMzo1MDoyOCswMDowMIDQgPwAAAAZdEVYdFNvZnR3YXJlAHd3dy5pbmtzY2FwZS5vcmeb7jwaAAAAAElFTkSuQmCC;container=0;" vertex="1" parent="i0zt0oU-3AJXrjKHt_ms-1">
          <mxGeometry x="-2078" y="-938.0999999999999" width="30.53" height="30.53" as="geometry" />
        </mxCell>
        <mxCell id="N2LMkY_gqF_srAPKnr6s-98" value="" style="shape=image;aspect=fixed;image=data:image/png,iVBORw0KGgoAAAANSUhEUgAAAKAAAACgCAYAAACLz2ctAAAABGdBTUEAALGPC/xhBQAAACBjSFJNAAB6JgAAgIQAAPoAAACA6AAAdTAAAOpgAAA6mAAAF3CculE8AAAACXBIWXMAAKf7AACn+wE8Q2ENAAAAB3RJTUUH5gIaDTIzE9UQkAAAAAZiS0dEAP8A/wD/oL2nkwAAC7FJREFUeNrtXW2MHVUZnm23rW13gVKgxg8+SjHix4+CitAYUTBiKCUiSnfvzNxdbNVSCkWMiEqoFFG+hGBI8COIFALdOzN3Kyn1i4o2kkBUgpgqaCKlUHZ3Zu52i7Qg0uv7njmz3bTd3bv3zp05d87zJE9u4Ae09zz3Ped9z/O+xzAAAAAAAAAAAKgJllsxuku76TOca7vhdCK+FCBNAQbMDuKtxA/xPwNAKlju7TbsSICfJ+4lbiDOhgiBNKPfccRtxCrxP8QvWB79ewciBJosviKd9+hzLfF/UoDMJ4nvQhQE0oh+7yH+Y4z4mPuJN9je4DTL8/FFAc0Rn+350+nz9oPEF3MX8UwhUogQSFR8/ZU4+i0hDowjQKZLCUqnja0YSDb6+cw5JLCHJxAfcx+x1xLnRERBIAGYXhBHv8/JjLc6CZ8hLkRCAiSZeBxL/H0N4ot5O23D7diKgYajn13i7Te48qCyy2T0ieeIsg1qg0CD0e8U4t+nIL6YW4jzsBUD9YmPIpdVCqfJ+95qHfwvcXV3OTSKJYgQmAJWbt4RRz+u671SpwCrsmB9qqghIisGprj1ssHgoQbEF/Me2wlm2jgLArVtvWEswIuIryYgwN3EpeK/uWEAXzBQc9nl8QTEF/Nx6aDBFwxMID5KGKyo7LKG+GaCAuQSzjVL737RsD2IEJg4+i0ibk9QfDFfIC5GFATGFR9lqlx2ubkJ4ot5v+VRcoMoCIwT/Rotu0zGyD0txI5GJmBUfJz5hlx2ebCJ4oN7GjgUpjPq9ftsQmWXySjc02Y5mIatGIjE5wTH0OfvUhDfWPf0WYiCmqNYDigCiuh3ecJll1roETshQiQeJxP/lrL4mK9H7mlfnEEB3c5+roh+XHb5fgbii/lX+QPAgmga/c6Q57FqhvwBsR0i1Cn6UfZpej6XXR7IWHzMgN3Tpmx6B3KObne0yehC4h4FBAj3tIZb73ziVkXEF7un11glbmqHCPMtvqjN8jK56FWF+BzxfYiCORegmV3ZpSb3tOUEMyHCPIrPETceXHb5nqLii93TF4gfioeEJD+Jh+fHZ7+PEF9WWIBV2QAP93QOE4+3yWmmVcUp3NNdD0UmCaDF8WV3byzAZQqVXWpxT5/Gf+5L+3dhEXNw9uOyy2MtIr6YG0wnmI2xv62/9TJXKVh2qcU9fQmXjbo3DmMxW1iAPCrt2RYTX8yn4J5uUdiU+RbLg1x2ualFxTfqnpblIyxqq8Ds2xNHvw8TX2phAcI93ZLRz/WZXHb5eYuLD+7p1hPfaOLBNwojOREgu6cvjZMqQP3E42jib3MiPrinW+bs5wRi9got0ldasOxSm3vaC9th2VI7+p0ko0U1h2T39LnCrODArKBW9KNF6XKDNlqcG3Mqvpi/lEcMLLqC0Y/f7t2ZcwFy//KaHmeEfnRDWHiFxDeLeF/OxRfzebinVdl6vdHZLktzVHaphT8yvWCWiYREiejHHWW/1kh8VfljWxa1GSAhyQRd3rBRFKMtgi/ltOwyqXuakq8F2IqzjX4nygcCqxryLeI3VvXtwDskWYjPdnwuu6zXVHyHuKdNmFdTj36na1B2qYU8YmQOtuK0xBfZ7Lns8jOIb9Q9vZy34UIZ7ummYozb5XzZRwsBHnBPvxtRML2yy68gukPc0+tNL4R7umlF574wdrusJL4B0R3WPb3EEvfieJeuWdHvBOLTEBvc0+mXXdwhLrt8ByKbkPvYPW07odFdRm0w6ejH9a4XIbLa3dMrNo1APMkUnUXZ5V6Iq2bewe5pmBUaRJczEEe/z6DsUp97Gmh86z1KOoEhLLinUxSfF0S3Hm6wAmWX+mdP9zi+aFkA6ot+x6Ps0rB7+v2IgnXc99p9IZdd1kFEDfPHthvOgghrve/1wjj68RP3OyCg5NzTFto5axBg5HbhafE/hXgS4x8suKendPY7jzgM4STqnr62q28YTe2Tis8TZZdHIZrEuUOaeCG0w8Es+YZdDlF2abJ72naDOTZEOO7WuzDHs11UcU9fLK438RjOWPH53GSU9QPSunAbHsMZ3+3yEgSSymM4V1gO91QjCoprIjN6NfxuiCM1Po0J/Ox2OdBkdLq0lEMc6ZVl1vJ9u9b9xDzXpOAOt4npnxBFFp10ehenZfRbRPwXBJGJW8bikkxBRxF2lwZjAV4h2wohivS5yXaC2baO23AkPv8I+twKIWRGn3iGltuwjH4fg9U+c66zS75R6NeoJMPNMnbkdl4PAShRmD5Kqygoo9+R0iYEEWTLYe3eoxsz1T6AAJTg1bwmBU+DZvZeZzgW4GXIftUZ6UHHoplavMIUjdkQU5zuw8Ir1bykx3g3SwwW9+fTX/ZPWHhl+CrxbE0EKLbfDxIHsfBKcbWYJ/MLXwsBXgjXs3K8y+zP+ZvERWfU/fJVLLhyfFTM3s7ztRxffF8ijJDBXVhw5fgX4vxcR0C+/aAo2C4neWLR1XtzJN+vsssp9x38zBQWXDlW5DSK3Ccgx2LgkLIdcx/PtwA90XjOvQjPYcGV4+vEC3SIgCfK8wYWXT2H9MU6CPBktF8qyTf5yS8IEMxSgF06CHAhnlvAFpylAI9HFxySkCwFuAADiFCGyQRyDAdb8Z/AgqMQnb4AeRSEJ8bvbsaCKznAMv9Xcb2e34b5zzAjZCZAMzoHXocFV45baG3y/5yDTEQKck4dFl4d/rCwZciwHD0E+FFMRFCOl/PaFL0RLQT4DuJ2LLpSJZhP6tGUFDliOBMuY+GV4T+JJ2ghwILjx8bUb2Lh1RnTZumQgBy0DZ8j+1EhgOx5jRjN4Q5pJcC3E5/B4mfOETkmz9AG/Jc1HfEcKybjZ88n6Ew+T4u5MIeJgtygvg8iyJQ3Fkq+USyHWgpwgbwCghCyMyAs0XRE77BhebswJTXz67dwrqnri0nWgUdqBiCGTCz4K8S4PMfXWoAziPdDEKmTKxDvtHR+qIb9gVKEn8LdcOq8lkfy2rq/oC4FOJtYgihS43bZHGZojzEj286VE9shkOZyv4h+Zd+wHQjwQBT0xF3kvRBI0/lnC0+1jrsVL5a9CRBK81ove/mJVtvzIbqx4C9k1eZ/G/JiHG7p5tC1XL8T0W/iKHgM8TcQS+Lcaen6MGEdIuQnA/CCenLkgfBXmZuG2ixsvZNsxS5lZyXRunk1Juknxo3EIxD9phYF+Qt7AOJpmDyN9r3iOy1XIK6aaoOlSizCk4h/hIjq5ivE8yzZjw1M5ZquHMYiPEs2zUBQU+Me4soep9JmQ3z13hVHd5VybBiSkqnV+66zXH8mv80HNHIe5Ku6hyuclJhEH+KqadDkLcQ5SDoSvarz+YnXXguPXE8mvjuJKDY3JzP2p9NnEQbWcbfdWyC+pm7HvmH1iRrhRXjq4ZCE49u0S2DbTSMS9ngiMeFxsnj0OkrOvmi54QzLDSGQNNDjVChDHjJkgdWT/Q26WqvYR9mGyJcyCn1hNOjIDeYRb5Athjqd9x4knlKk3aDbGYAgsrs7Zm+beAJ2KfFJ6fjNs/hekLP8OhD1lDkXcjT04zdIbs1pvXCvNBWcRj843G6omSWHTI6GnyA+Ihet1YXH5tyniBZHPTnaDoutKop9I3GC0infPtvWoraut2T32td5omxXedgo4lqthZKUcsXo3ThoyKcH+BpvK/G1FplY8Cx3rrEbqLefttsyIl7LYrk7YtiOEOKR0tTA2ePLMsKoNqePWxFWctcaj68z0TaZH1z5k6pw11iOmE/9AeLXiI/JhCWrzPk1OR3sNtmG0Bn3SQN5TlZoSzMf4YUOO+RwpLVyMsPzTd6m35A3F3wcuIn4aeJxpsvXizjfaVrCCQy77HNRe4Ys4/DNwlWySX6rNMMGcpDm/im4UnbLTjS+LnSI6+Qd9qn0/+oo9Ad0TkWkAw4Ds79iWP3CgzjXjKYILJbRqpu4mvgtOdfwZsnvEq+XwmXL2DLimcRFxKMpwrWLeYjuTny5AAAAAAAAgLb4P54Tmg2IiGNXAAAAJXRFWHRkYXRlOmNyZWF0ZQAyMDIyLTAyLTI2VDEzOjUwOjI4KzAwOjAw8Y04QAAAACV0RVh0ZGF0ZTptb2RpZnkAMjAyMi0wMi0yNlQxMzo1MDoyOCswMDowMIDQgPwAAAAZdEVYdFNvZnR3YXJlAHd3dy5pbmtzY2FwZS5vcmeb7jwaAAAAAElFTkSuQmCC;container=0;" vertex="1" parent="i0zt0oU-3AJXrjKHt_ms-1">
          <mxGeometry x="-1648.5299999999997" y="-508.0999999999999" width="30.53" height="30.53" as="geometry" />
        </mxCell>
        <mxCell id="N2LMkY_gqF_srAPKnr6s-99" value="&lt;b&gt;&lt;font style=&quot;font-size: 30px;&quot;&gt;W&lt;/font&gt;&lt;/b&gt;" style="text;strokeColor=default;align=center;fillColor=default;html=1;verticalAlign=middle;whiteSpace=wrap;rounded=0;container=0;" vertex="1" parent="i0zt0oU-3AJXrjKHt_ms-1">
          <mxGeometry x="-2046.9399999999998" y="-907.04" width="30" height="30" as="geometry" />
        </mxCell>
        <mxCell id="N2LMkY_gqF_srAPKnr6s-100" value="&lt;b&gt;&lt;font style=&quot;font-size: 30px;&quot;&gt;E&lt;/font&gt;&lt;/b&gt;" style="text;strokeColor=default;align=center;fillColor=default;html=1;verticalAlign=middle;whiteSpace=wrap;rounded=0;container=0;" vertex="1" parent="i0zt0oU-3AJXrjKHt_ms-1">
          <mxGeometry x="-1677.9999999999998" y="-538.0999999999999" width="30" height="30" as="geometry" />
        </mxCell>
        <mxCell id="N2LMkY_gqF_srAPKnr6s-120" value="&lt;b&gt;&lt;font style=&quot;font-size: 30px;&quot;&gt;N&lt;/font&gt;&lt;/b&gt;" style="text;strokeColor=default;align=center;fillColor=none;html=1;verticalAlign=middle;whiteSpace=wrap;rounded=0;container=0;" vertex="1" parent="i0zt0oU-3AJXrjKHt_ms-1">
          <mxGeometry x="-1520.9999999999998" y="-1004" width="30" height="30" as="geometry" />
        </mxCell>
        <mxCell id="N2LMkY_gqF_srAPKnr6s-121" value="" style="shape=image;aspect=fixed;image=data:image/png,iVBORw0KGgoAAAANSUhEUgAAAKAAAACgCAYAAACLz2ctAAAABGdBTUEAALGPC/xhBQAAACBjSFJNAAB6JgAAgIQAAPoAAACA6AAAdTAAAOpgAAA6mAAAF3CculE8AAAACXBIWXMAAKf7AACn+wE8Q2ENAAAAB3RJTUUH5gIaDTIzE9UQkAAAAAZiS0dEAP8A/wD/oL2nkwAAC7FJREFUeNrtXW2MHVUZnm23rW13gVKgxg8+SjHix4+CitAYUTBiKCUiSnfvzNxdbNVSCkWMiEqoFFG+hGBI8COIFALdOzN3Kyn1i4o2kkBUgpgqaCKlUHZ3Zu52i7Qg0uv7njmz3bTd3bv3zp05d87zJE9u4Ae09zz3Ped9z/O+xzAAAAAAAAAAAKgJllsxuku76TOca7vhdCK+FCBNAQbMDuKtxA/xPwNAKlju7TbsSICfJ+4lbiDOhgiBNKPfccRtxCrxP8QvWB79ewciBJosviKd9+hzLfF/UoDMJ4nvQhQE0oh+7yH+Y4z4mPuJN9je4DTL8/FFAc0Rn+350+nz9oPEF3MX8UwhUogQSFR8/ZU4+i0hDowjQKZLCUqnja0YSDb6+cw5JLCHJxAfcx+x1xLnRERBIAGYXhBHv8/JjLc6CZ8hLkRCAiSZeBxL/H0N4ot5O23D7diKgYajn13i7Te48qCyy2T0ieeIsg1qg0CD0e8U4t+nIL6YW4jzsBUD9YmPIpdVCqfJ+95qHfwvcXV3OTSKJYgQmAJWbt4RRz+u671SpwCrsmB9qqghIisGprj1ssHgoQbEF/Me2wlm2jgLArVtvWEswIuIryYgwN3EpeK/uWEAXzBQc9nl8QTEF/Nx6aDBFwxMID5KGKyo7LKG+GaCAuQSzjVL737RsD2IEJg4+i0ibk9QfDFfIC5GFATGFR9lqlx2ubkJ4ot5v+VRcoMoCIwT/Rotu0zGyD0txI5GJmBUfJz5hlx2ebCJ4oN7GjgUpjPq9ftsQmWXySjc02Y5mIatGIjE5wTH0OfvUhDfWPf0WYiCmqNYDigCiuh3ecJll1roETshQiQeJxP/lrL4mK9H7mlfnEEB3c5+roh+XHb5fgbii/lX+QPAgmga/c6Q57FqhvwBsR0i1Cn6UfZpej6XXR7IWHzMgN3Tpmx6B3KObne0yehC4h4FBAj3tIZb73ziVkXEF7un11glbmqHCPMtvqjN8jK56FWF+BzxfYiCORegmV3ZpSb3tOUEMyHCPIrPETceXHb5nqLii93TF4gfioeEJD+Jh+fHZ7+PEF9WWIBV2QAP93QOE4+3yWmmVcUp3NNdD0UmCaDF8WV3byzAZQqVXWpxT5/Gf+5L+3dhEXNw9uOyy2MtIr6YG0wnmI2xv62/9TJXKVh2qcU9fQmXjbo3DmMxW1iAPCrt2RYTX8yn4J5uUdiU+RbLg1x2ualFxTfqnpblIyxqq8Ds2xNHvw8TX2phAcI93ZLRz/WZXHb5eYuLD+7p1hPfaOLBNwojOREgu6cvjZMqQP3E42jib3MiPrinW+bs5wRi9got0ldasOxSm3vaC9th2VI7+p0ko0U1h2T39LnCrODArKBW9KNF6XKDNlqcG3Mqvpi/lEcMLLqC0Y/f7t2ZcwFy//KaHmeEfnRDWHiFxDeLeF/OxRfzebinVdl6vdHZLktzVHaphT8yvWCWiYREiejHHWW/1kh8VfljWxa1GSAhyQRd3rBRFKMtgi/ltOwyqXuakq8F2IqzjX4nygcCqxryLeI3VvXtwDskWYjPdnwuu6zXVHyHuKdNmFdTj36na1B2qYU8YmQOtuK0xBfZ7Lns8jOIb9Q9vZy34UIZ7ummYozb5XzZRwsBHnBPvxtRML2yy68gukPc0+tNL4R7umlF574wdrusJL4B0R3WPb3EEvfieJeuWdHvBOLTEBvc0+mXXdwhLrt8ByKbkPvYPW07odFdRm0w6ejH9a4XIbLa3dMrNo1APMkUnUXZ5V6Iq2bewe5pmBUaRJczEEe/z6DsUp97Gmh86z1KOoEhLLinUxSfF0S3Hm6wAmWX+mdP9zi+aFkA6ot+x6Ps0rB7+v2IgnXc99p9IZdd1kFEDfPHthvOgghrve/1wjj68RP3OyCg5NzTFto5axBg5HbhafE/hXgS4x8suKendPY7jzgM4STqnr62q28YTe2Tis8TZZdHIZrEuUOaeCG0w8Es+YZdDlF2abJ72naDOTZEOO7WuzDHs11UcU9fLK438RjOWPH53GSU9QPSunAbHsMZ3+3yEgSSymM4V1gO91QjCoprIjN6NfxuiCM1Po0J/Ox2OdBkdLq0lEMc6ZVl1vJ9u9b9xDzXpOAOt4npnxBFFp10ehenZfRbRPwXBJGJW8bikkxBRxF2lwZjAV4h2wohivS5yXaC2baO23AkPv8I+twKIWRGn3iGltuwjH4fg9U+c66zS75R6NeoJMPNMnbkdl4PAShRmD5Kqygoo9+R0iYEEWTLYe3eoxsz1T6AAJTg1bwmBU+DZvZeZzgW4GXIftUZ6UHHoplavMIUjdkQU5zuw8Ir1bykx3g3SwwW9+fTX/ZPWHhl+CrxbE0EKLbfDxIHsfBKcbWYJ/MLXwsBXgjXs3K8y+zP+ZvERWfU/fJVLLhyfFTM3s7ztRxffF8ijJDBXVhw5fgX4vxcR0C+/aAo2C4neWLR1XtzJN+vsssp9x38zBQWXDlW5DSK3Ccgx2LgkLIdcx/PtwA90XjOvQjPYcGV4+vEC3SIgCfK8wYWXT2H9MU6CPBktF8qyTf5yS8IEMxSgF06CHAhnlvAFpylAI9HFxySkCwFuAADiFCGyQRyDAdb8Z/AgqMQnb4AeRSEJ8bvbsaCKznAMv9Xcb2e34b5zzAjZCZAMzoHXocFV45baG3y/5yDTEQKck4dFl4d/rCwZciwHD0E+FFMRFCOl/PaFL0RLQT4DuJ2LLpSJZhP6tGUFDliOBMuY+GV4T+JJ2ghwILjx8bUb2Lh1RnTZumQgBy0DZ8j+1EhgOx5jRjN4Q5pJcC3E5/B4mfOETkmz9AG/Jc1HfEcKybjZ88n6Ew+T4u5MIeJgtygvg8iyJQ3Fkq+USyHWgpwgbwCghCyMyAs0XRE77BhebswJTXz67dwrqnri0nWgUdqBiCGTCz4K8S4PMfXWoAziPdDEKmTKxDvtHR+qIb9gVKEn8LdcOq8lkfy2rq/oC4FOJtYgihS43bZHGZojzEj286VE9shkOZyv4h+Zd+wHQjwQBT0xF3kvRBI0/lnC0+1jrsVL5a9CRBK81ove/mJVtvzIbqx4C9k1eZ/G/JiHG7p5tC1XL8T0W/iKHgM8TcQS+Lcaen6MGEdIuQnA/CCenLkgfBXmZuG2ixsvZNsxS5lZyXRunk1Juknxo3EIxD9phYF+Qt7AOJpmDyN9r3iOy1XIK6aaoOlSizCk4h/hIjq5ivE8yzZjw1M5ZquHMYiPEs2zUBQU+Me4soep9JmQ3z13hVHd5VybBiSkqnV+66zXH8mv80HNHIe5Ku6hyuclJhEH+KqadDkLcQ5SDoSvarz+YnXXguPXE8mvjuJKDY3JzP2p9NnEQbWcbfdWyC+pm7HvmH1iRrhRXjq4ZCE49u0S2DbTSMS9ngiMeFxsnj0OkrOvmi54QzLDSGQNNDjVChDHjJkgdWT/Q26WqvYR9mGyJcyCn1hNOjIDeYRb5Athjqd9x4knlKk3aDbGYAgsrs7Zm+beAJ2KfFJ6fjNs/hekLP8OhD1lDkXcjT04zdIbs1pvXCvNBWcRj843G6omSWHTI6GnyA+Ihet1YXH5tyniBZHPTnaDoutKop9I3GC0infPtvWoraut2T32td5omxXedgo4lqthZKUcsXo3ThoyKcH+BpvK/G1FplY8Cx3rrEbqLefttsyIl7LYrk7YtiOEOKR0tTA2ePLMsKoNqePWxFWctcaj68z0TaZH1z5k6pw11iOmE/9AeLXiI/JhCWrzPk1OR3sNtmG0Bn3SQN5TlZoSzMf4YUOO+RwpLVyMsPzTd6m35A3F3wcuIn4aeJxpsvXizjfaVrCCQy77HNRe4Ys4/DNwlWySX6rNMMGcpDm/im4UnbLTjS+LnSI6+Qd9qn0/+oo9Ad0TkWkAw4Ds79iWP3CgzjXjKYILJbRqpu4mvgtOdfwZsnvEq+XwmXL2DLimcRFxKMpwrWLeYjuTny5AAAAAAAAgLb4P54Tmg2IiGNXAAAAJXRFWHRkYXRlOmNyZWF0ZQAyMDIyLTAyLTI2VDEzOjUwOjI4KzAwOjAw8Y04QAAAACV0RVh0ZGF0ZTptb2RpZnkAMjAyMi0wMi0yNlQxMzo1MDoyOCswMDowMIDQgPwAAAAZdEVYdFNvZnR3YXJlAHd3dy5pbmtzY2FwZS5vcmeb7jwaAAAAAElFTkSuQmCC;container=0;" vertex="1" parent="i0zt0oU-3AJXrjKHt_ms-1">
          <mxGeometry x="-1920.9999999999998" y="-1034" width="30.53" height="30.53" as="geometry" />
        </mxCell>
        <mxCell id="N2LMkY_gqF_srAPKnr6s-122" value="" style="shape=image;aspect=fixed;image=data:image/png,iVBORw0KGgoAAAANSUhEUgAAAKAAAACgCAYAAACLz2ctAAAABGdBTUEAALGPC/xhBQAAACBjSFJNAAB6JgAAgIQAAPoAAACA6AAAdTAAAOpgAAA6mAAAF3CculE8AAAACXBIWXMAAKf7AACn+wE8Q2ENAAAAB3RJTUUH5gIaDTIzE9UQkAAAAAZiS0dEAP8A/wD/oL2nkwAAC7FJREFUeNrtXW2MHVUZnm23rW13gVKgxg8+SjHix4+CitAYUTBiKCUiSnfvzNxdbNVSCkWMiEqoFFG+hGBI8COIFALdOzN3Kyn1i4o2kkBUgpgqaCKlUHZ3Zu52i7Qg0uv7njmz3bTd3bv3zp05d87zJE9u4Ae09zz3Ped9z/O+xzAAAAAAAAAAAKgJllsxuku76TOca7vhdCK+FCBNAQbMDuKtxA/xPwNAKlju7TbsSICfJ+4lbiDOhgiBNKPfccRtxCrxP8QvWB79ewciBJosviKd9+hzLfF/UoDMJ4nvQhQE0oh+7yH+Y4z4mPuJN9je4DTL8/FFAc0Rn+350+nz9oPEF3MX8UwhUogQSFR8/ZU4+i0hDowjQKZLCUqnja0YSDb6+cw5JLCHJxAfcx+x1xLnRERBIAGYXhBHv8/JjLc6CZ8hLkRCAiSZeBxL/H0N4ot5O23D7diKgYajn13i7Te48qCyy2T0ieeIsg1qg0CD0e8U4t+nIL6YW4jzsBUD9YmPIpdVCqfJ+95qHfwvcXV3OTSKJYgQmAJWbt4RRz+u671SpwCrsmB9qqghIisGprj1ssHgoQbEF/Me2wlm2jgLArVtvWEswIuIryYgwN3EpeK/uWEAXzBQc9nl8QTEF/Nx6aDBFwxMID5KGKyo7LKG+GaCAuQSzjVL737RsD2IEJg4+i0ibk9QfDFfIC5GFATGFR9lqlx2ubkJ4ot5v+VRcoMoCIwT/Rotu0zGyD0txI5GJmBUfJz5hlx2ebCJ4oN7GjgUpjPq9ftsQmWXySjc02Y5mIatGIjE5wTH0OfvUhDfWPf0WYiCmqNYDigCiuh3ecJll1roETshQiQeJxP/lrL4mK9H7mlfnEEB3c5+roh+XHb5fgbii/lX+QPAgmga/c6Q57FqhvwBsR0i1Cn6UfZpej6XXR7IWHzMgN3Tpmx6B3KObne0yehC4h4FBAj3tIZb73ziVkXEF7un11glbmqHCPMtvqjN8jK56FWF+BzxfYiCORegmV3ZpSb3tOUEMyHCPIrPETceXHb5nqLii93TF4gfioeEJD+Jh+fHZ7+PEF9WWIBV2QAP93QOE4+3yWmmVcUp3NNdD0UmCaDF8WV3byzAZQqVXWpxT5/Gf+5L+3dhEXNw9uOyy2MtIr6YG0wnmI2xv62/9TJXKVh2qcU9fQmXjbo3DmMxW1iAPCrt2RYTX8yn4J5uUdiU+RbLg1x2ualFxTfqnpblIyxqq8Ds2xNHvw8TX2phAcI93ZLRz/WZXHb5eYuLD+7p1hPfaOLBNwojOREgu6cvjZMqQP3E42jib3MiPrinW+bs5wRi9got0ldasOxSm3vaC9th2VI7+p0ko0U1h2T39LnCrODArKBW9KNF6XKDNlqcG3Mqvpi/lEcMLLqC0Y/f7t2ZcwFy//KaHmeEfnRDWHiFxDeLeF/OxRfzebinVdl6vdHZLktzVHaphT8yvWCWiYREiejHHWW/1kh8VfljWxa1GSAhyQRd3rBRFKMtgi/ltOwyqXuakq8F2IqzjX4nygcCqxryLeI3VvXtwDskWYjPdnwuu6zXVHyHuKdNmFdTj36na1B2qYU8YmQOtuK0xBfZ7Lns8jOIb9Q9vZy34UIZ7ummYozb5XzZRwsBHnBPvxtRML2yy68gukPc0+tNL4R7umlF574wdrusJL4B0R3WPb3EEvfieJeuWdHvBOLTEBvc0+mXXdwhLrt8ByKbkPvYPW07odFdRm0w6ejH9a4XIbLa3dMrNo1APMkUnUXZ5V6Iq2bewe5pmBUaRJczEEe/z6DsUp97Gmh86z1KOoEhLLinUxSfF0S3Hm6wAmWX+mdP9zi+aFkA6ot+x6Ps0rB7+v2IgnXc99p9IZdd1kFEDfPHthvOgghrve/1wjj68RP3OyCg5NzTFto5axBg5HbhafE/hXgS4x8suKendPY7jzgM4STqnr62q28YTe2Tis8TZZdHIZrEuUOaeCG0w8Es+YZdDlF2abJ72naDOTZEOO7WuzDHs11UcU9fLK438RjOWPH53GSU9QPSunAbHsMZ3+3yEgSSymM4V1gO91QjCoprIjN6NfxuiCM1Po0J/Ox2OdBkdLq0lEMc6ZVl1vJ9u9b9xDzXpOAOt4npnxBFFp10ehenZfRbRPwXBJGJW8bikkxBRxF2lwZjAV4h2wohivS5yXaC2baO23AkPv8I+twKIWRGn3iGltuwjH4fg9U+c66zS75R6NeoJMPNMnbkdl4PAShRmD5Kqygoo9+R0iYEEWTLYe3eoxsz1T6AAJTg1bwmBU+DZvZeZzgW4GXIftUZ6UHHoplavMIUjdkQU5zuw8Ir1bykx3g3SwwW9+fTX/ZPWHhl+CrxbE0EKLbfDxIHsfBKcbWYJ/MLXwsBXgjXs3K8y+zP+ZvERWfU/fJVLLhyfFTM3s7ztRxffF8ijJDBXVhw5fgX4vxcR0C+/aAo2C4neWLR1XtzJN+vsssp9x38zBQWXDlW5DSK3Ccgx2LgkLIdcx/PtwA90XjOvQjPYcGV4+vEC3SIgCfK8wYWXT2H9MU6CPBktF8qyTf5yS8IEMxSgF06CHAhnlvAFpylAI9HFxySkCwFuAADiFCGyQRyDAdb8Z/AgqMQnb4AeRSEJ8bvbsaCKznAMv9Xcb2e34b5zzAjZCZAMzoHXocFV45baG3y/5yDTEQKck4dFl4d/rCwZciwHD0E+FFMRFCOl/PaFL0RLQT4DuJ2LLpSJZhP6tGUFDliOBMuY+GV4T+JJ2ghwILjx8bUb2Lh1RnTZumQgBy0DZ8j+1EhgOx5jRjN4Q5pJcC3E5/B4mfOETkmz9AG/Jc1HfEcKybjZ88n6Ew+T4u5MIeJgtygvg8iyJQ3Fkq+USyHWgpwgbwCghCyMyAs0XRE77BhebswJTXz67dwrqnri0nWgUdqBiCGTCz4K8S4PMfXWoAziPdDEKmTKxDvtHR+qIb9gVKEn8LdcOq8lkfy2rq/oC4FOJtYgihS43bZHGZojzEj286VE9shkOZyv4h+Zd+wHQjwQBT0xF3kvRBI0/lnC0+1jrsVL5a9CRBK81ove/mJVtvzIbqx4C9k1eZ/G/JiHG7p5tC1XL8T0W/iKHgM8TcQS+Lcaen6MGEdIuQnA/CCenLkgfBXmZuG2ixsvZNsxS5lZyXRunk1Juknxo3EIxD9phYF+Qt7AOJpmDyN9r3iOy1XIK6aaoOlSizCk4h/hIjq5ivE8yzZjw1M5ZquHMYiPEs2zUBQU+Me4soep9JmQ3z13hVHd5VybBiSkqnV+66zXH8mv80HNHIe5Ku6hyuclJhEH+KqadDkLcQ5SDoSvarz+YnXXguPXE8mvjuJKDY3JzP2p9NnEQbWcbfdWyC+pm7HvmH1iRrhRXjq4ZCE49u0S2DbTSMS9ngiMeFxsnj0OkrOvmi54QzLDSGQNNDjVChDHjJkgdWT/Q26WqvYR9mGyJcyCn1hNOjIDeYRb5Athjqd9x4knlKk3aDbGYAgsrs7Zm+beAJ2KfFJ6fjNs/hekLP8OhD1lDkXcjT04zdIbs1pvXCvNBWcRj843G6omSWHTI6GnyA+Ihet1YXH5tyniBZHPTnaDoutKop9I3GC0infPtvWoraut2T32td5omxXedgo4lqthZKUcsXo3ThoyKcH+BpvK/G1FplY8Cx3rrEbqLefttsyIl7LYrk7YtiOEOKR0tTA2ePLMsKoNqePWxFWctcaj68z0TaZH1z5k6pw11iOmE/9AeLXiI/JhCWrzPk1OR3sNtmG0Bn3SQN5TlZoSzMf4YUOO+RwpLVyMsPzTd6m35A3F3wcuIn4aeJxpsvXizjfaVrCCQy77HNRe4Ys4/DNwlWySX6rNMMGcpDm/im4UnbLTjS+LnSI6+Qd9qn0/+oo9Ad0TkWkAw4Ds79iWP3CgzjXjKYILJbRqpu4mvgtOdfwZsnvEq+XwmXL2DLimcRFxKMpwrWLeYjuTny5AAAAAAAAgLb4P54Tmg2IiGNXAAAAJXRFWHRkYXRlOmNyZWF0ZQAyMDIyLTAyLTI2VDEzOjUwOjI4KzAwOjAw8Y04QAAAACV0RVh0ZGF0ZTptb2RpZnkAMjAyMi0wMi0yNlQxMzo1MDoyOCswMDowMIDQgPwAAAAZdEVYdFNvZnR3YXJlAHd3dy5pbmtzY2FwZS5vcmeb7jwaAAAAAElFTkSuQmCC;container=0;" vertex="1" parent="i0zt0oU-3AJXrjKHt_ms-1">
          <mxGeometry x="-1491.5299999999997" y="-604" width="30.53" height="30.53" as="geometry" />
        </mxCell>
        <mxCell id="N2LMkY_gqF_srAPKnr6s-123" value="&lt;b&gt;&lt;font color=&quot;#ff0000&quot; style=&quot;font-size: 30px;&quot;&gt;A&lt;/font&gt;&lt;/b&gt;" style="text;strokeColor=default;align=center;fillColor=none;html=1;verticalAlign=middle;whiteSpace=wrap;rounded=0;container=0;" vertex="1" parent="i0zt0oU-3AJXrjKHt_ms-1">
          <mxGeometry x="-1520.9999999999998" y="-1032.94" width="30" height="30" as="geometry" />
        </mxCell>
        <mxCell id="N2LMkY_gqF_srAPKnr6s-124" value="&lt;b&gt;&lt;font style=&quot;font-size: 30px;&quot;&gt;W&lt;/font&gt;&lt;/b&gt;" style="text;strokeColor=default;align=center;fillColor=default;html=1;verticalAlign=middle;whiteSpace=wrap;rounded=0;container=0;" vertex="1" parent="i0zt0oU-3AJXrjKHt_ms-1">
          <mxGeometry x="-1889.9399999999998" y="-1002.94" width="30" height="30" as="geometry" />
        </mxCell>
        <mxCell id="N2LMkY_gqF_srAPKnr6s-125" value="&lt;b&gt;&lt;font style=&quot;font-size: 30px;&quot;&gt;E&lt;/font&gt;&lt;/b&gt;" style="text;strokeColor=default;align=center;fillColor=default;html=1;verticalAlign=middle;whiteSpace=wrap;rounded=0;container=0;" vertex="1" parent="i0zt0oU-3AJXrjKHt_ms-1">
          <mxGeometry x="-1520.9999999999998" y="-634" width="30" height="30" as="geometry" />
        </mxCell>
        <mxCell id="N2LMkY_gqF_srAPKnr6s-126" value="&lt;b&gt;&lt;font color=&quot;#66b2ff&quot; style=&quot;font-size: 30px;&quot;&gt;B&lt;/font&gt;&lt;/b&gt;" style="text;strokeColor=default;align=center;fillColor=none;html=1;verticalAlign=middle;whiteSpace=wrap;rounded=0;container=0;" vertex="1" parent="i0zt0oU-3AJXrjKHt_ms-1">
          <mxGeometry x="-1490.9999999999998" y="-1004" width="30" height="30" as="geometry" />
        </mxCell>
        <mxCell id="2ChNvNFg1Hmtz30S6cTf-52" value="&lt;font color=&quot;#999999&quot; style=&quot;font-size: 30px;&quot;&gt;25&lt;/font&gt;" style="whiteSpace=wrap;html=1;aspect=fixed;container=0;" parent="i0zt0oU-3AJXrjKHt_ms-1" vertex="1">
          <mxGeometry x="-1727.9999999999998" y="-1187.57" width="80" height="80" as="geometry" />
        </mxCell>
        <mxCell id="2ChNvNFg1Hmtz30S6cTf-53" value="&lt;font color=&quot;#999999&quot; style=&quot;font-size: 30px;&quot;&gt;24&lt;/font&gt;" style="whiteSpace=wrap;html=1;aspect=fixed;container=0;" parent="i0zt0oU-3AJXrjKHt_ms-1" vertex="1">
          <mxGeometry x="-1807.9999999999998" y="-1187.57" width="80" height="80" as="geometry" />
        </mxCell>
        <mxCell id="2ChNvNFg1Hmtz30S6cTf-54" value="&lt;font color=&quot;#999999&quot; style=&quot;font-size: 30px;&quot;&gt;23&lt;/font&gt;" style="whiteSpace=wrap;html=1;aspect=fixed;container=0;" parent="i0zt0oU-3AJXrjKHt_ms-1" vertex="1">
          <mxGeometry x="-1887.9999999999998" y="-1187.57" width="80" height="80" as="geometry" />
        </mxCell>
        <mxCell id="2ChNvNFg1Hmtz30S6cTf-55" value="&lt;font color=&quot;#999999&quot; style=&quot;font-size: 30px;&quot;&gt;22&lt;/font&gt;" style="whiteSpace=wrap;html=1;aspect=fixed;container=0;" parent="i0zt0oU-3AJXrjKHt_ms-1" vertex="1">
          <mxGeometry x="-1967.9999999999998" y="-1187.57" width="80" height="80" as="geometry" />
        </mxCell>
        <mxCell id="2ChNvNFg1Hmtz30S6cTf-56" value="&lt;font color=&quot;#999999&quot; style=&quot;font-size: 30px;&quot;&gt;21&lt;/font&gt;" style="whiteSpace=wrap;html=1;aspect=fixed;container=0;" parent="i0zt0oU-3AJXrjKHt_ms-1" vertex="1">
          <mxGeometry x="-2047.9999999999998" y="-1187.57" width="80" height="80" as="geometry" />
        </mxCell>
        <mxCell id="2ChNvNFg1Hmtz30S6cTf-57" value="&lt;font color=&quot;#999999&quot; style=&quot;font-size: 30px;&quot;&gt;16&lt;/font&gt;" style="whiteSpace=wrap;html=1;aspect=fixed;container=0;" parent="i0zt0oU-3AJXrjKHt_ms-1" vertex="1">
          <mxGeometry x="-2047.9999999999998" y="-1267.57" width="80" height="80" as="geometry" />
        </mxCell>
        <mxCell id="2ChNvNFg1Hmtz30S6cTf-58" value="&lt;font color=&quot;#999999&quot; style=&quot;font-size: 30px;&quot;&gt;11&lt;/font&gt;" style="whiteSpace=wrap;html=1;aspect=fixed;container=0;" parent="i0zt0oU-3AJXrjKHt_ms-1" vertex="1">
          <mxGeometry x="-2047.9999999999998" y="-1347.57" width="80" height="80" as="geometry" />
        </mxCell>
        <mxCell id="2ChNvNFg1Hmtz30S6cTf-59" value="&lt;font color=&quot;#999999&quot; style=&quot;font-size: 30px;&quot;&gt;6&lt;/font&gt;" style="whiteSpace=wrap;html=1;aspect=fixed;container=0;" parent="i0zt0oU-3AJXrjKHt_ms-1" vertex="1">
          <mxGeometry x="-2047.9999999999998" y="-1427.57" width="80" height="80" as="geometry" />
        </mxCell>
        <mxCell id="2ChNvNFg1Hmtz30S6cTf-60" value="&lt;font color=&quot;#999999&quot; style=&quot;font-size: 30px;&quot;&gt;1&lt;/font&gt;" style="whiteSpace=wrap;html=1;aspect=fixed;container=0;" parent="i0zt0oU-3AJXrjKHt_ms-1" vertex="1">
          <mxGeometry x="-2047.9999999999998" y="-1507.57" width="80" height="80" as="geometry" />
        </mxCell>
        <mxCell id="2ChNvNFg1Hmtz30S6cTf-61" value="&lt;font color=&quot;#999999&quot; style=&quot;font-size: 30px;&quot;&gt;7&lt;/font&gt;" style="whiteSpace=wrap;html=1;aspect=fixed;container=0;" parent="i0zt0oU-3AJXrjKHt_ms-1" vertex="1">
          <mxGeometry x="-1967.9999999999998" y="-1427.57" width="80" height="80" as="geometry" />
        </mxCell>
        <mxCell id="2ChNvNFg1Hmtz30S6cTf-62" value="&lt;font color=&quot;#999999&quot; style=&quot;font-size: 30px;&quot;&gt;12&lt;/font&gt;" style="whiteSpace=wrap;html=1;aspect=fixed;container=0;" parent="i0zt0oU-3AJXrjKHt_ms-1" vertex="1">
          <mxGeometry x="-1967.9999999999998" y="-1347.57" width="80" height="80" as="geometry" />
        </mxCell>
        <mxCell id="2ChNvNFg1Hmtz30S6cTf-63" value="&lt;font color=&quot;#999999&quot; style=&quot;font-size: 30px;&quot;&gt;13&lt;/font&gt;" style="whiteSpace=wrap;html=1;aspect=fixed;container=0;" parent="i0zt0oU-3AJXrjKHt_ms-1" vertex="1">
          <mxGeometry x="-1887.9999999999998" y="-1347.57" width="80" height="80" as="geometry" />
        </mxCell>
        <mxCell id="2ChNvNFg1Hmtz30S6cTf-64" value="&lt;font color=&quot;#999999&quot; style=&quot;font-size: 30px;&quot;&gt;17&lt;/font&gt;" style="whiteSpace=wrap;html=1;aspect=fixed;container=0;" parent="i0zt0oU-3AJXrjKHt_ms-1" vertex="1">
          <mxGeometry x="-1967.9999999999998" y="-1267.57" width="80" height="80" as="geometry" />
        </mxCell>
        <mxCell id="2ChNvNFg1Hmtz30S6cTf-65" value="&lt;font color=&quot;#999999&quot; style=&quot;font-size: 30px;&quot;&gt;18&lt;/font&gt;" style="whiteSpace=wrap;html=1;aspect=fixed;container=0;" parent="i0zt0oU-3AJXrjKHt_ms-1" vertex="1">
          <mxGeometry x="-1887.9999999999998" y="-1267.57" width="80" height="80" as="geometry" />
        </mxCell>
        <mxCell id="2ChNvNFg1Hmtz30S6cTf-66" value="&lt;font color=&quot;#999999&quot; style=&quot;font-size: 30px;&quot;&gt;19&lt;/font&gt;" style="whiteSpace=wrap;html=1;aspect=fixed;container=0;" parent="i0zt0oU-3AJXrjKHt_ms-1" vertex="1">
          <mxGeometry x="-1807.9999999999998" y="-1267.57" width="80" height="80" as="geometry" />
        </mxCell>
        <mxCell id="2ChNvNFg1Hmtz30S6cTf-68" value="" style="html=1;shadow=0;dashed=0;align=center;verticalAlign=middle;shape=mxgraph.arrows2.quadArrow;dy=10;dx=20;notch=24;arrowHead=10;fillColor=#dae8fc;strokeColor=#6c8ebf;container=0;" parent="i0zt0oU-3AJXrjKHt_ms-1" vertex="1">
          <mxGeometry x="-2002.9999999999998" y="-1382.57" width="150" height="150" as="geometry" />
        </mxCell>
        <mxCell id="2ChNvNFg1Hmtz30S6cTf-69" value="" style="shape=image;aspect=fixed;image=data:image/png,iVBORw0KGgoAAAANSUhEUgAAABgAAAAaCAYAAACtv5zzAAAABmJLR0QA/wD/AP+gvaeTAAAACXBIWXMAAAsSAAALEgHS3X78AAAAB3RJTUUH5goWEREWieId2wAAAB1pVFh0Q29tbWVudAAAAAAAQ3JlYXRlZCB3aXRoIEdJTVBkLmUHAAABAElEQVRIx8VVKxKEMAx97CAqkUgkEllZyRE4CkfgKBwBWVm5EolEIutYwWZnyVA+u0P7DDMhSV/y0jTCG0KIGV+w1ka4AFf8AzcjopOnbgIAdIkFAFQyPVUJxbdmBACUkwAAJGUCLxXE3JDphQExqmQ67yUgP4pDsf5/vwauXv4Krp1/DYahBwDUleJabPae7E2rNw8IMEVZjitaHPn5u8kuJqQJVXZk59PkXwMOWRab9jRf7GNvw2oQu3qa5uJUAvKjSihPuF1EN9LVexdM91xtAH8vmlJqte+NMcu3WV44WSf7zJmflDLwLvrMP2POmVGlRxX6myKuxb/QWvuZoheV8Gpm5jJgHAAAAABJRU5ErkJggg==;container=0;" parent="i0zt0oU-3AJXrjKHt_ms-1" vertex="1">
          <mxGeometry x="-1952.4599999999998" y="-1334.07" width="48.92" height="53" as="geometry" />
        </mxCell>
        <mxCell id="N2LMkY_gqF_srAPKnr6s-76" value="&lt;font color=&quot;#999999&quot; style=&quot;font-size: 30px;&quot;&gt;25&lt;/font&gt;" style="whiteSpace=wrap;html=1;aspect=fixed;container=0;" vertex="1" parent="i0zt0oU-3AJXrjKHt_ms-1">
          <mxGeometry x="-1727.9999999999998" y="-587.5699999999999" width="80" height="80" as="geometry" />
        </mxCell>
        <mxCell id="N2LMkY_gqF_srAPKnr6s-77" value="&lt;font color=&quot;#999999&quot; style=&quot;font-size: 30px;&quot;&gt;24&lt;/font&gt;" style="whiteSpace=wrap;html=1;aspect=fixed;container=0;" vertex="1" parent="i0zt0oU-3AJXrjKHt_ms-1">
          <mxGeometry x="-1807.9999999999998" y="-587.5699999999999" width="80" height="80" as="geometry" />
        </mxCell>
        <mxCell id="N2LMkY_gqF_srAPKnr6s-78" value="&lt;font color=&quot;#999999&quot; style=&quot;font-size: 30px;&quot;&gt;23&lt;/font&gt;" style="whiteSpace=wrap;html=1;aspect=fixed;container=0;" vertex="1" parent="i0zt0oU-3AJXrjKHt_ms-1">
          <mxGeometry x="-1887.9999999999998" y="-587.5699999999999" width="80" height="80" as="geometry" />
        </mxCell>
        <mxCell id="N2LMkY_gqF_srAPKnr6s-79" value="&lt;font color=&quot;#999999&quot; style=&quot;font-size: 30px;&quot;&gt;22&lt;/font&gt;" style="whiteSpace=wrap;html=1;aspect=fixed;container=0;" vertex="1" parent="i0zt0oU-3AJXrjKHt_ms-1">
          <mxGeometry x="-1967.9999999999998" y="-587.5699999999999" width="80" height="80" as="geometry" />
        </mxCell>
        <mxCell id="N2LMkY_gqF_srAPKnr6s-80" value="&lt;font color=&quot;#999999&quot; style=&quot;font-size: 30px;&quot;&gt;21&lt;/font&gt;" style="whiteSpace=wrap;html=1;aspect=fixed;container=0;" vertex="1" parent="i0zt0oU-3AJXrjKHt_ms-1">
          <mxGeometry x="-2047.9999999999998" y="-587.5699999999999" width="80" height="80" as="geometry" />
        </mxCell>
        <mxCell id="N2LMkY_gqF_srAPKnr6s-81" value="&lt;font color=&quot;#999999&quot; style=&quot;font-size: 30px;&quot;&gt;16&lt;/font&gt;" style="whiteSpace=wrap;html=1;aspect=fixed;container=0;" vertex="1" parent="i0zt0oU-3AJXrjKHt_ms-1">
          <mxGeometry x="-2047.9999999999998" y="-667.5699999999999" width="80" height="80" as="geometry" />
        </mxCell>
        <mxCell id="N2LMkY_gqF_srAPKnr6s-82" value="&lt;font color=&quot;#999999&quot; style=&quot;font-size: 30px;&quot;&gt;11&lt;/font&gt;" style="whiteSpace=wrap;html=1;aspect=fixed;container=0;" vertex="1" parent="i0zt0oU-3AJXrjKHt_ms-1">
          <mxGeometry x="-2047.9999999999998" y="-747.5699999999999" width="80" height="80" as="geometry" />
        </mxCell>
        <mxCell id="N2LMkY_gqF_srAPKnr6s-83" value="&lt;font color=&quot;#999999&quot; style=&quot;font-size: 30px;&quot;&gt;6&lt;/font&gt;" style="whiteSpace=wrap;html=1;aspect=fixed;container=0;" vertex="1" parent="i0zt0oU-3AJXrjKHt_ms-1">
          <mxGeometry x="-2047.9999999999998" y="-827.5699999999999" width="80" height="80" as="geometry" />
        </mxCell>
        <mxCell id="N2LMkY_gqF_srAPKnr6s-84" value="&lt;font color=&quot;#999999&quot; style=&quot;font-size: 30px;&quot;&gt;1&lt;/font&gt;" style="whiteSpace=wrap;html=1;aspect=fixed;container=0;" vertex="1" parent="i0zt0oU-3AJXrjKHt_ms-1">
          <mxGeometry x="-2047.9999999999998" y="-907.5699999999999" width="80" height="80" as="geometry" />
        </mxCell>
        <mxCell id="N2LMkY_gqF_srAPKnr6s-85" value="&lt;font color=&quot;#999999&quot; style=&quot;font-size: 30px;&quot;&gt;7&lt;/font&gt;" style="whiteSpace=wrap;html=1;aspect=fixed;container=0;" vertex="1" parent="i0zt0oU-3AJXrjKHt_ms-1">
          <mxGeometry x="-1967.9999999999998" y="-827.5699999999999" width="80" height="80" as="geometry" />
        </mxCell>
        <mxCell id="N2LMkY_gqF_srAPKnr6s-86" value="&lt;font color=&quot;#999999&quot; style=&quot;font-size: 30px;&quot;&gt;12&lt;/font&gt;" style="whiteSpace=wrap;html=1;aspect=fixed;container=0;" vertex="1" parent="i0zt0oU-3AJXrjKHt_ms-1">
          <mxGeometry x="-1967.9999999999998" y="-747.5699999999999" width="80" height="80" as="geometry" />
        </mxCell>
        <mxCell id="N2LMkY_gqF_srAPKnr6s-87" value="&lt;font color=&quot;#999999&quot; style=&quot;font-size: 30px;&quot;&gt;13&lt;/font&gt;" style="whiteSpace=wrap;html=1;aspect=fixed;container=0;" vertex="1" parent="i0zt0oU-3AJXrjKHt_ms-1">
          <mxGeometry x="-1887.9999999999998" y="-747.5699999999999" width="80" height="80" as="geometry" />
        </mxCell>
        <mxCell id="N2LMkY_gqF_srAPKnr6s-88" value="&lt;font color=&quot;#999999&quot; style=&quot;font-size: 30px;&quot;&gt;17&lt;/font&gt;" style="whiteSpace=wrap;html=1;aspect=fixed;container=0;" vertex="1" parent="i0zt0oU-3AJXrjKHt_ms-1">
          <mxGeometry x="-1967.9999999999998" y="-667.5699999999999" width="80" height="80" as="geometry" />
        </mxCell>
        <mxCell id="N2LMkY_gqF_srAPKnr6s-89" value="&lt;font color=&quot;#999999&quot; style=&quot;font-size: 30px;&quot;&gt;18&lt;/font&gt;" style="whiteSpace=wrap;html=1;aspect=fixed;container=0;" vertex="1" parent="i0zt0oU-3AJXrjKHt_ms-1">
          <mxGeometry x="-1887.9999999999998" y="-667.5699999999999" width="80" height="80" as="geometry" />
        </mxCell>
        <mxCell id="N2LMkY_gqF_srAPKnr6s-90" value="&lt;font color=&quot;#999999&quot; style=&quot;font-size: 30px;&quot;&gt;19&lt;/font&gt;" style="whiteSpace=wrap;html=1;aspect=fixed;container=0;" vertex="1" parent="i0zt0oU-3AJXrjKHt_ms-1">
          <mxGeometry x="-1807.9999999999998" y="-667.5699999999999" width="80" height="80" as="geometry" />
        </mxCell>
        <mxCell id="N2LMkY_gqF_srAPKnr6s-128" value="" style="html=1;shadow=0;dashed=0;align=center;verticalAlign=middle;shape=mxgraph.arrows2.uTurnArrow;dy=11;arrowHead=43;dx2=25;rotation=0;fillColor=#dae8fc;strokeColor=#6c8ebf;movable=1;resizable=1;rotatable=1;deletable=1;editable=1;locked=0;connectable=1;container=0;flipV=1;" vertex="1" parent="i0zt0oU-3AJXrjKHt_ms-1">
          <mxGeometry x="-2018.9999999999998" y="-737.57" width="90" height="80" as="geometry" />
        </mxCell>
        <mxCell id="N2LMkY_gqF_srAPKnr6s-129" value="" style="html=1;shadow=0;dashed=0;align=center;verticalAlign=middle;shape=mxgraph.arrows2.uTurnArrow;dy=11;arrowHead=43;dx2=25;rotation=0;fillColor=#dae8fc;strokeColor=#6c8ebf;flipV=1;flipH=1;movable=1;resizable=1;rotatable=1;deletable=1;editable=1;locked=0;connectable=1;container=0;" vertex="1" parent="i0zt0oU-3AJXrjKHt_ms-1">
          <mxGeometry x="-1928.9999999999998" y="-737.57" width="90" height="80" as="geometry" />
        </mxCell>
        <mxCell id="N2LMkY_gqF_srAPKnr6s-130" value="" style="shape=image;aspect=fixed;image=data:image/png,iVBORw0KGgoAAAANSUhEUgAAABgAAAAaCAYAAACtv5zzAAAABmJLR0QA/wD/AP+gvaeTAAAACXBIWXMAAAsSAAALEgHS3X78AAAAB3RJTUUH5goWEREWieId2wAAAB1pVFh0Q29tbWVudAAAAAAAQ3JlYXRlZCB3aXRoIEdJTVBkLmUHAAABAElEQVRIx8VVKxKEMAx97CAqkUgkEllZyRE4CkfgKBwBWVm5EolEIutYwWZnyVA+u0P7DDMhSV/y0jTCG0KIGV+w1ka4AFf8AzcjopOnbgIAdIkFAFQyPVUJxbdmBACUkwAAJGUCLxXE3JDphQExqmQ67yUgP4pDsf5/vwauXv4Krp1/DYahBwDUleJabPae7E2rNw8IMEVZjitaHPn5u8kuJqQJVXZk59PkXwMOWRab9jRf7GNvw2oQu3qa5uJUAvKjSihPuF1EN9LVexdM91xtAH8vmlJqte+NMcu3WV44WSf7zJmflDLwLvrMP2POmVGlRxX6myKuxb/QWvuZoheV8Gpm5jJgHAAAAABJRU5ErkJggg==;movable=1;resizable=1;rotatable=1;deletable=1;editable=1;locked=0;connectable=1;container=0;" vertex="1" parent="i0zt0oU-3AJXrjKHt_ms-1">
          <mxGeometry x="-1953.4599999999998" y="-734.07" width="48.92" height="53" as="geometry" />
        </mxCell>
        <mxCell id="N2LMkY_gqF_srAPKnr6s-131" value="" style="shape=singleArrow;direction=south;whiteSpace=wrap;html=1;fillColor=#dae8fc;strokeColor=#6c8ebf;arrowWidth=0.36666666666666664;arrowSize=0.40718562874251496;movable=1;resizable=1;rotatable=1;deletable=1;editable=1;locked=0;connectable=1;container=0;" vertex="1" parent="i0zt0oU-3AJXrjKHt_ms-1">
          <mxGeometry x="-1958.9999999999998" y="-681.07" width="60" height="83.5" as="geometry" />
        </mxCell>
        <mxCell id="N2LMkY_gqF_srAPKnr6s-102" value="&lt;font color=&quot;#999999&quot; style=&quot;font-size: 30px;&quot;&gt;1&lt;/font&gt;" style="whiteSpace=wrap;html=1;aspect=fixed;container=0;" vertex="1" parent="i0zt0oU-3AJXrjKHt_ms-1">
          <mxGeometry x="-1890.9999999999998" y="-1003.47" width="80" height="80" as="geometry" />
        </mxCell>
        <mxCell id="N2LMkY_gqF_srAPKnr6s-103" value="&lt;font color=&quot;#999999&quot; style=&quot;font-size: 30px;&quot;&gt;2&lt;/font&gt;" style="whiteSpace=wrap;html=1;aspect=fixed;container=0;" vertex="1" parent="i0zt0oU-3AJXrjKHt_ms-1">
          <mxGeometry x="-1810.9999999999998" y="-1003.47" width="80" height="80" as="geometry" />
        </mxCell>
        <mxCell id="N2LMkY_gqF_srAPKnr6s-104" value="&lt;font color=&quot;#999999&quot; style=&quot;font-size: 30px;&quot;&gt;3&lt;/font&gt;" style="whiteSpace=wrap;html=1;aspect=fixed;container=0;" vertex="1" parent="i0zt0oU-3AJXrjKHt_ms-1">
          <mxGeometry x="-1730.9999999999998" y="-1003.47" width="80" height="80" as="geometry" />
        </mxCell>
        <mxCell id="N2LMkY_gqF_srAPKnr6s-105" value="&lt;font color=&quot;#999999&quot; style=&quot;font-size: 30px;&quot;&gt;4&lt;/font&gt;" style="whiteSpace=wrap;html=1;aspect=fixed;container=0;" vertex="1" parent="i0zt0oU-3AJXrjKHt_ms-1">
          <mxGeometry x="-1650.9999999999998" y="-1003.47" width="80" height="80" as="geometry" />
        </mxCell>
        <mxCell id="N2LMkY_gqF_srAPKnr6s-106" value="&lt;font color=&quot;#999999&quot; style=&quot;font-size: 30px;&quot;&gt;5&lt;/font&gt;" style="whiteSpace=wrap;html=1;aspect=fixed;container=0;" vertex="1" parent="i0zt0oU-3AJXrjKHt_ms-1">
          <mxGeometry x="-1570.9999999999998" y="-1003.47" width="80" height="80" as="geometry" />
        </mxCell>
        <mxCell id="N2LMkY_gqF_srAPKnr6s-107" value="&lt;font color=&quot;#999999&quot; style=&quot;font-size: 30px;&quot;&gt;10&lt;/font&gt;" style="whiteSpace=wrap;html=1;aspect=fixed;container=0;" vertex="1" parent="i0zt0oU-3AJXrjKHt_ms-1">
          <mxGeometry x="-1570.9999999999998" y="-923.47" width="80" height="80" as="geometry" />
        </mxCell>
        <mxCell id="N2LMkY_gqF_srAPKnr6s-108" value="&lt;font color=&quot;#999999&quot; style=&quot;font-size: 30px;&quot;&gt;15&lt;/font&gt;" style="whiteSpace=wrap;html=1;aspect=fixed;container=0;" vertex="1" parent="i0zt0oU-3AJXrjKHt_ms-1">
          <mxGeometry x="-1570.9999999999998" y="-843.47" width="80" height="80" as="geometry" />
        </mxCell>
        <mxCell id="N2LMkY_gqF_srAPKnr6s-109" value="&lt;font color=&quot;#999999&quot; style=&quot;font-size: 30px;&quot;&gt;20&lt;/font&gt;" style="whiteSpace=wrap;html=1;aspect=fixed;container=0;" vertex="1" parent="i0zt0oU-3AJXrjKHt_ms-1">
          <mxGeometry x="-1570.9999999999998" y="-763.47" width="80" height="80" as="geometry" />
        </mxCell>
        <mxCell id="N2LMkY_gqF_srAPKnr6s-110" value="&lt;font color=&quot;#999999&quot; style=&quot;font-size: 30px;&quot;&gt;25&lt;/font&gt;" style="whiteSpace=wrap;html=1;aspect=fixed;container=0;" vertex="1" parent="i0zt0oU-3AJXrjKHt_ms-1">
          <mxGeometry x="-1570.9999999999998" y="-683.47" width="80" height="80" as="geometry" />
        </mxCell>
        <mxCell id="N2LMkY_gqF_srAPKnr6s-111" value="&lt;font color=&quot;#999999&quot; style=&quot;font-size: 30px;&quot;&gt;19&lt;/font&gt;" style="whiteSpace=wrap;html=1;aspect=fixed;container=0;" vertex="1" parent="i0zt0oU-3AJXrjKHt_ms-1">
          <mxGeometry x="-1650.9999999999998" y="-763.47" width="80" height="80" as="geometry" />
        </mxCell>
        <mxCell id="N2LMkY_gqF_srAPKnr6s-112" value="&lt;font color=&quot;#999999&quot; style=&quot;font-size: 30px;&quot;&gt;14&lt;/font&gt;" style="whiteSpace=wrap;html=1;aspect=fixed;container=0;" vertex="1" parent="i0zt0oU-3AJXrjKHt_ms-1">
          <mxGeometry x="-1650.9999999999998" y="-843.47" width="80" height="80" as="geometry" />
        </mxCell>
        <mxCell id="N2LMkY_gqF_srAPKnr6s-113" value="&lt;font color=&quot;#999999&quot; style=&quot;font-size: 30px;&quot;&gt;13&lt;/font&gt;" style="whiteSpace=wrap;html=1;aspect=fixed;container=0;" vertex="1" parent="i0zt0oU-3AJXrjKHt_ms-1">
          <mxGeometry x="-1730.9999999999998" y="-843.47" width="80" height="80" as="geometry" />
        </mxCell>
        <mxCell id="N2LMkY_gqF_srAPKnr6s-114" value="&lt;font color=&quot;#999999&quot; style=&quot;font-size: 30px;&quot;&gt;9&lt;/font&gt;" style="whiteSpace=wrap;html=1;aspect=fixed;container=0;" vertex="1" parent="i0zt0oU-3AJXrjKHt_ms-1">
          <mxGeometry x="-1650.9999999999998" y="-923.47" width="80" height="80" as="geometry" />
        </mxCell>
        <mxCell id="N2LMkY_gqF_srAPKnr6s-115" value="&lt;font color=&quot;#999999&quot; style=&quot;font-size: 30px;&quot;&gt;8&lt;/font&gt;" style="whiteSpace=wrap;html=1;aspect=fixed;container=0;" vertex="1" parent="i0zt0oU-3AJXrjKHt_ms-1">
          <mxGeometry x="-1730.9999999999998" y="-923.47" width="80" height="80" as="geometry" />
        </mxCell>
        <mxCell id="N2LMkY_gqF_srAPKnr6s-116" value="&lt;font color=&quot;#999999&quot; style=&quot;font-size: 30px;&quot;&gt;7&lt;/font&gt;" style="whiteSpace=wrap;html=1;aspect=fixed;container=0;" vertex="1" parent="i0zt0oU-3AJXrjKHt_ms-1">
          <mxGeometry x="-1810.9999999999998" y="-923.47" width="80" height="80" as="geometry" />
        </mxCell>
        <mxCell id="N2LMkY_gqF_srAPKnr6s-133" value="" style="html=1;shadow=0;dashed=0;align=center;verticalAlign=middle;shape=mxgraph.arrows2.uTurnArrow;dy=11;arrowHead=43;dx2=25;rotation=0;fillColor=#dae8fc;strokeColor=#6c8ebf;movable=1;resizable=1;rotatable=1;deletable=1;editable=1;locked=0;connectable=1;container=0;flipV=1;" vertex="1" parent="i0zt0oU-3AJXrjKHt_ms-1">
          <mxGeometry x="-1700.9999999999998" y="-913.47" width="90" height="80" as="geometry" />
        </mxCell>
        <mxCell id="N2LMkY_gqF_srAPKnr6s-134" value="" style="html=1;shadow=0;dashed=0;align=center;verticalAlign=middle;shape=mxgraph.arrows2.uTurnArrow;dy=11;arrowHead=43;dx2=25;rotation=0;fillColor=#dae8fc;strokeColor=#6c8ebf;flipV=1;flipH=1;movable=1;resizable=1;rotatable=1;deletable=1;editable=1;locked=0;connectable=1;container=0;" vertex="1" parent="i0zt0oU-3AJXrjKHt_ms-1">
          <mxGeometry x="-1610.9999999999998" y="-913.47" width="90" height="80" as="geometry" />
        </mxCell>
        <mxCell id="N2LMkY_gqF_srAPKnr6s-135" value="" style="shape=image;aspect=fixed;image=data:image/png,iVBORw0KGgoAAAANSUhEUgAAABgAAAAaCAYAAACtv5zzAAAABmJLR0QA/wD/AP+gvaeTAAAACXBIWXMAAAsSAAALEgHS3X78AAAAB3RJTUUH5goWEREWieId2wAAAB1pVFh0Q29tbWVudAAAAAAAQ3JlYXRlZCB3aXRoIEdJTVBkLmUHAAABAElEQVRIx8VVKxKEMAx97CAqkUgkEllZyRE4CkfgKBwBWVm5EolEIutYwWZnyVA+u0P7DDMhSV/y0jTCG0KIGV+w1ka4AFf8AzcjopOnbgIAdIkFAFQyPVUJxbdmBACUkwAAJGUCLxXE3JDphQExqmQ67yUgP4pDsf5/vwauXv4Krp1/DYahBwDUleJabPae7E2rNw8IMEVZjitaHPn5u8kuJqQJVXZk59PkXwMOWRab9jRf7GNvw2oQu3qa5uJUAvKjSihPuF1EN9LVexdM91xtAH8vmlJqte+NMcu3WV44WSf7zJmflDLwLvrMP2POmVGlRxX6myKuxb/QWvuZoheV8Gpm5jJgHAAAAABJRU5ErkJggg==;movable=1;resizable=1;rotatable=1;deletable=1;editable=1;locked=0;connectable=1;container=0;" vertex="1" parent="i0zt0oU-3AJXrjKHt_ms-1">
          <mxGeometry x="-1635.4599999999998" y="-909.97" width="48.92" height="53" as="geometry" />
        </mxCell>
        <mxCell id="N2LMkY_gqF_srAPKnr6s-136" value="" style="shape=singleArrow;direction=south;whiteSpace=wrap;html=1;fillColor=#dae8fc;strokeColor=#6c8ebf;arrowWidth=0.36666666666666664;arrowSize=0.40718562874251496;movable=1;resizable=1;rotatable=1;deletable=1;editable=1;locked=0;connectable=1;container=0;" vertex="1" parent="i0zt0oU-3AJXrjKHt_ms-1">
          <mxGeometry x="-1640.9999999999998" y="-856.97" width="60" height="83.5" as="geometry" />
        </mxCell>
        <mxCell id="i0zt0oU-3AJXrjKHt_ms-35" value="&lt;b&gt;&lt;font style=&quot;font-size: 30px;&quot;&gt;N&lt;/font&gt;&lt;/b&gt;" style="text;strokeColor=default;align=center;fillColor=none;html=1;verticalAlign=middle;whiteSpace=wrap;rounded=0;container=0;" parent="i0zt0oU-3AJXrjKHt_ms-1" vertex="1">
          <mxGeometry x="-1520.9999999999998" y="-1604" width="30" height="30" as="geometry" />
        </mxCell>
        <mxCell id="i0zt0oU-3AJXrjKHt_ms-40" value="" style="shape=image;aspect=fixed;image=data:image/png,iVBORw0KGgoAAAANSUhEUgAAAKAAAACgCAYAAACLz2ctAAAABGdBTUEAALGPC/xhBQAAACBjSFJNAAB6JgAAgIQAAPoAAACA6AAAdTAAAOpgAAA6mAAAF3CculE8AAAACXBIWXMAAKf7AACn+wE8Q2ENAAAAB3RJTUUH5gIaDTIzE9UQkAAAAAZiS0dEAP8A/wD/oL2nkwAAC7FJREFUeNrtXW2MHVUZnm23rW13gVKgxg8+SjHix4+CitAYUTBiKCUiSnfvzNxdbNVSCkWMiEqoFFG+hGBI8COIFALdOzN3Kyn1i4o2kkBUgpgqaCKlUHZ3Zu52i7Qg0uv7njmz3bTd3bv3zp05d87zJE9u4Ae09zz3Ped9z/O+xzAAAAAAAAAAAKgJllsxuku76TOca7vhdCK+FCBNAQbMDuKtxA/xPwNAKlju7TbsSICfJ+4lbiDOhgiBNKPfccRtxCrxP8QvWB79ewciBJosviKd9+hzLfF/UoDMJ4nvQhQE0oh+7yH+Y4z4mPuJN9je4DTL8/FFAc0Rn+350+nz9oPEF3MX8UwhUogQSFR8/ZU4+i0hDowjQKZLCUqnja0YSDb6+cw5JLCHJxAfcx+x1xLnRERBIAGYXhBHv8/JjLc6CZ8hLkRCAiSZeBxL/H0N4ot5O23D7diKgYajn13i7Te48qCyy2T0ieeIsg1qg0CD0e8U4t+nIL6YW4jzsBUD9YmPIpdVCqfJ+95qHfwvcXV3OTSKJYgQmAJWbt4RRz+u671SpwCrsmB9qqghIisGprj1ssHgoQbEF/Me2wlm2jgLArVtvWEswIuIryYgwN3EpeK/uWEAXzBQc9nl8QTEF/Nx6aDBFwxMID5KGKyo7LKG+GaCAuQSzjVL737RsD2IEJg4+i0ibk9QfDFfIC5GFATGFR9lqlx2ubkJ4ot5v+VRcoMoCIwT/Rotu0zGyD0txI5GJmBUfJz5hlx2ebCJ4oN7GjgUpjPq9ftsQmWXySjc02Y5mIatGIjE5wTH0OfvUhDfWPf0WYiCmqNYDigCiuh3ecJll1roETshQiQeJxP/lrL4mK9H7mlfnEEB3c5+roh+XHb5fgbii/lX+QPAgmga/c6Q57FqhvwBsR0i1Cn6UfZpej6XXR7IWHzMgN3Tpmx6B3KObne0yehC4h4FBAj3tIZb73ziVkXEF7un11glbmqHCPMtvqjN8jK56FWF+BzxfYiCORegmV3ZpSb3tOUEMyHCPIrPETceXHb5nqLii93TF4gfioeEJD+Jh+fHZ7+PEF9WWIBV2QAP93QOE4+3yWmmVcUp3NNdD0UmCaDF8WV3byzAZQqVXWpxT5/Gf+5L+3dhEXNw9uOyy2MtIr6YG0wnmI2xv62/9TJXKVh2qcU9fQmXjbo3DmMxW1iAPCrt2RYTX8yn4J5uUdiU+RbLg1x2ualFxTfqnpblIyxqq8Ds2xNHvw8TX2phAcI93ZLRz/WZXHb5eYuLD+7p1hPfaOLBNwojOREgu6cvjZMqQP3E42jib3MiPrinW+bs5wRi9got0ldasOxSm3vaC9th2VI7+p0ko0U1h2T39LnCrODArKBW9KNF6XKDNlqcG3Mqvpi/lEcMLLqC0Y/f7t2ZcwFy//KaHmeEfnRDWHiFxDeLeF/OxRfzebinVdl6vdHZLktzVHaphT8yvWCWiYREiejHHWW/1kh8VfljWxa1GSAhyQRd3rBRFKMtgi/ltOwyqXuakq8F2IqzjX4nygcCqxryLeI3VvXtwDskWYjPdnwuu6zXVHyHuKdNmFdTj36na1B2qYU8YmQOtuK0xBfZ7Lns8jOIb9Q9vZy34UIZ7ummYozb5XzZRwsBHnBPvxtRML2yy68gukPc0+tNL4R7umlF574wdrusJL4B0R3WPb3EEvfieJeuWdHvBOLTEBvc0+mXXdwhLrt8ByKbkPvYPW07odFdRm0w6ejH9a4XIbLa3dMrNo1APMkUnUXZ5V6Iq2bewe5pmBUaRJczEEe/z6DsUp97Gmh86z1KOoEhLLinUxSfF0S3Hm6wAmWX+mdP9zi+aFkA6ot+x6Ps0rB7+v2IgnXc99p9IZdd1kFEDfPHthvOgghrve/1wjj68RP3OyCg5NzTFto5axBg5HbhafE/hXgS4x8suKendPY7jzgM4STqnr62q28YTe2Tis8TZZdHIZrEuUOaeCG0w8Es+YZdDlF2abJ72naDOTZEOO7WuzDHs11UcU9fLK438RjOWPH53GSU9QPSunAbHsMZ3+3yEgSSymM4V1gO91QjCoprIjN6NfxuiCM1Po0J/Ox2OdBkdLq0lEMc6ZVl1vJ9u9b9xDzXpOAOt4npnxBFFp10ehenZfRbRPwXBJGJW8bikkxBRxF2lwZjAV4h2wohivS5yXaC2baO23AkPv8I+twKIWRGn3iGltuwjH4fg9U+c66zS75R6NeoJMPNMnbkdl4PAShRmD5Kqygoo9+R0iYEEWTLYe3eoxsz1T6AAJTg1bwmBU+DZvZeZzgW4GXIftUZ6UHHoplavMIUjdkQU5zuw8Ir1bykx3g3SwwW9+fTX/ZPWHhl+CrxbE0EKLbfDxIHsfBKcbWYJ/MLXwsBXgjXs3K8y+zP+ZvERWfU/fJVLLhyfFTM3s7ztRxffF8ijJDBXVhw5fgX4vxcR0C+/aAo2C4neWLR1XtzJN+vsssp9x38zBQWXDlW5DSK3Ccgx2LgkLIdcx/PtwA90XjOvQjPYcGV4+vEC3SIgCfK8wYWXT2H9MU6CPBktF8qyTf5yS8IEMxSgF06CHAhnlvAFpylAI9HFxySkCwFuAADiFCGyQRyDAdb8Z/AgqMQnb4AeRSEJ8bvbsaCKznAMv9Xcb2e34b5zzAjZCZAMzoHXocFV45baG3y/5yDTEQKck4dFl4d/rCwZciwHD0E+FFMRFCOl/PaFL0RLQT4DuJ2LLpSJZhP6tGUFDliOBMuY+GV4T+JJ2ghwILjx8bUb2Lh1RnTZumQgBy0DZ8j+1EhgOx5jRjN4Q5pJcC3E5/B4mfOETkmz9AG/Jc1HfEcKybjZ88n6Ew+T4u5MIeJgtygvg8iyJQ3Fkq+USyHWgpwgbwCghCyMyAs0XRE77BhebswJTXz67dwrqnri0nWgUdqBiCGTCz4K8S4PMfXWoAziPdDEKmTKxDvtHR+qIb9gVKEn8LdcOq8lkfy2rq/oC4FOJtYgihS43bZHGZojzEj286VE9shkOZyv4h+Zd+wHQjwQBT0xF3kvRBI0/lnC0+1jrsVL5a9CRBK81ove/mJVtvzIbqx4C9k1eZ/G/JiHG7p5tC1XL8T0W/iKHgM8TcQS+Lcaen6MGEdIuQnA/CCenLkgfBXmZuG2ixsvZNsxS5lZyXRunk1Juknxo3EIxD9phYF+Qt7AOJpmDyN9r3iOy1XIK6aaoOlSizCk4h/hIjq5ivE8yzZjw1M5ZquHMYiPEs2zUBQU+Me4soep9JmQ3z13hVHd5VybBiSkqnV+66zXH8mv80HNHIe5Ku6hyuclJhEH+KqadDkLcQ5SDoSvarz+YnXXguPXE8mvjuJKDY3JzP2p9NnEQbWcbfdWyC+pm7HvmH1iRrhRXjq4ZCE49u0S2DbTSMS9ngiMeFxsnj0OkrOvmi54QzLDSGQNNDjVChDHjJkgdWT/Q26WqvYR9mGyJcyCn1hNOjIDeYRb5Athjqd9x4knlKk3aDbGYAgsrs7Zm+beAJ2KfFJ6fjNs/hekLP8OhD1lDkXcjT04zdIbs1pvXCvNBWcRj843G6omSWHTI6GnyA+Ihet1YXH5tyniBZHPTnaDoutKop9I3GC0infPtvWoraut2T32td5omxXedgo4lqthZKUcsXo3ThoyKcH+BpvK/G1FplY8Cx3rrEbqLefttsyIl7LYrk7YtiOEOKR0tTA2ePLMsKoNqePWxFWctcaj68z0TaZH1z5k6pw11iOmE/9AeLXiI/JhCWrzPk1OR3sNtmG0Bn3SQN5TlZoSzMf4YUOO+RwpLVyMsPzTd6m35A3F3wcuIn4aeJxpsvXizjfaVrCCQy77HNRe4Ys4/DNwlWySX6rNMMGcpDm/im4UnbLTjS+LnSI6+Qd9qn0/+oo9Ad0TkWkAw4Ds79iWP3CgzjXjKYILJbRqpu4mvgtOdfwZsnvEq+XwmXL2DLimcRFxKMpwrWLeYjuTny5AAAAAAAAgLb4P54Tmg2IiGNXAAAAJXRFWHRkYXRlOmNyZWF0ZQAyMDIyLTAyLTI2VDEzOjUwOjI4KzAwOjAw8Y04QAAAACV0RVh0ZGF0ZTptb2RpZnkAMjAyMi0wMi0yNlQxMzo1MDoyOCswMDowMIDQgPwAAAAZdEVYdFNvZnR3YXJlAHd3dy5pbmtzY2FwZS5vcmeb7jwaAAAAAElFTkSuQmCC;container=0;" parent="i0zt0oU-3AJXrjKHt_ms-1" vertex="1">
          <mxGeometry x="-1920.9999999999998" y="-1634" width="30.53" height="30.53" as="geometry" />
        </mxCell>
        <mxCell id="i0zt0oU-3AJXrjKHt_ms-42" value="" style="shape=image;aspect=fixed;image=data:image/png,iVBORw0KGgoAAAANSUhEUgAAAKAAAACgCAYAAACLz2ctAAAABGdBTUEAALGPC/xhBQAAACBjSFJNAAB6JgAAgIQAAPoAAACA6AAAdTAAAOpgAAA6mAAAF3CculE8AAAACXBIWXMAAKf7AACn+wE8Q2ENAAAAB3RJTUUH5gIaDTIzE9UQkAAAAAZiS0dEAP8A/wD/oL2nkwAAC7FJREFUeNrtXW2MHVUZnm23rW13gVKgxg8+SjHix4+CitAYUTBiKCUiSnfvzNxdbNVSCkWMiEqoFFG+hGBI8COIFALdOzN3Kyn1i4o2kkBUgpgqaCKlUHZ3Zu52i7Qg0uv7njmz3bTd3bv3zp05d87zJE9u4Ae09zz3Ped9z/O+xzAAAAAAAAAAAKgJllsxuku76TOca7vhdCK+FCBNAQbMDuKtxA/xPwNAKlju7TbsSICfJ+4lbiDOhgiBNKPfccRtxCrxP8QvWB79ewciBJosviKd9+hzLfF/UoDMJ4nvQhQE0oh+7yH+Y4z4mPuJN9je4DTL8/FFAc0Rn+350+nz9oPEF3MX8UwhUogQSFR8/ZU4+i0hDowjQKZLCUqnja0YSDb6+cw5JLCHJxAfcx+x1xLnRERBIAGYXhBHv8/JjLc6CZ8hLkRCAiSZeBxL/H0N4ot5O23D7diKgYajn13i7Te48qCyy2T0ieeIsg1qg0CD0e8U4t+nIL6YW4jzsBUD9YmPIpdVCqfJ+95qHfwvcXV3OTSKJYgQmAJWbt4RRz+u671SpwCrsmB9qqghIisGprj1ssHgoQbEF/Me2wlm2jgLArVtvWEswIuIryYgwN3EpeK/uWEAXzBQc9nl8QTEF/Nx6aDBFwxMID5KGKyo7LKG+GaCAuQSzjVL737RsD2IEJg4+i0ibk9QfDFfIC5GFATGFR9lqlx2ubkJ4ot5v+VRcoMoCIwT/Rotu0zGyD0txI5GJmBUfJz5hlx2ebCJ4oN7GjgUpjPq9ftsQmWXySjc02Y5mIatGIjE5wTH0OfvUhDfWPf0WYiCmqNYDigCiuh3ecJll1roETshQiQeJxP/lrL4mK9H7mlfnEEB3c5+roh+XHb5fgbii/lX+QPAgmga/c6Q57FqhvwBsR0i1Cn6UfZpej6XXR7IWHzMgN3Tpmx6B3KObne0yehC4h4FBAj3tIZb73ziVkXEF7un11glbmqHCPMtvqjN8jK56FWF+BzxfYiCORegmV3ZpSb3tOUEMyHCPIrPETceXHb5nqLii93TF4gfioeEJD+Jh+fHZ7+PEF9WWIBV2QAP93QOE4+3yWmmVcUp3NNdD0UmCaDF8WV3byzAZQqVXWpxT5/Gf+5L+3dhEXNw9uOyy2MtIr6YG0wnmI2xv62/9TJXKVh2qcU9fQmXjbo3DmMxW1iAPCrt2RYTX8yn4J5uUdiU+RbLg1x2ualFxTfqnpblIyxqq8Ds2xNHvw8TX2phAcI93ZLRz/WZXHb5eYuLD+7p1hPfaOLBNwojOREgu6cvjZMqQP3E42jib3MiPrinW+bs5wRi9got0ldasOxSm3vaC9th2VI7+p0ko0U1h2T39LnCrODArKBW9KNF6XKDNlqcG3Mqvpi/lEcMLLqC0Y/f7t2ZcwFy//KaHmeEfnRDWHiFxDeLeF/OxRfzebinVdl6vdHZLktzVHaphT8yvWCWiYREiejHHWW/1kh8VfljWxa1GSAhyQRd3rBRFKMtgi/ltOwyqXuakq8F2IqzjX4nygcCqxryLeI3VvXtwDskWYjPdnwuu6zXVHyHuKdNmFdTj36na1B2qYU8YmQOtuK0xBfZ7Lns8jOIb9Q9vZy34UIZ7ummYozb5XzZRwsBHnBPvxtRML2yy68gukPc0+tNL4R7umlF574wdrusJL4B0R3WPb3EEvfieJeuWdHvBOLTEBvc0+mXXdwhLrt8ByKbkPvYPW07odFdRm0w6ejH9a4XIbLa3dMrNo1APMkUnUXZ5V6Iq2bewe5pmBUaRJczEEe/z6DsUp97Gmh86z1KOoEhLLinUxSfF0S3Hm6wAmWX+mdP9zi+aFkA6ot+x6Ps0rB7+v2IgnXc99p9IZdd1kFEDfPHthvOgghrve/1wjj68RP3OyCg5NzTFto5axBg5HbhafE/hXgS4x8suKendPY7jzgM4STqnr62q28YTe2Tis8TZZdHIZrEuUOaeCG0w8Es+YZdDlF2abJ72naDOTZEOO7WuzDHs11UcU9fLK438RjOWPH53GSU9QPSunAbHsMZ3+3yEgSSymM4V1gO91QjCoprIjN6NfxuiCM1Po0J/Ox2OdBkdLq0lEMc6ZVl1vJ9u9b9xDzXpOAOt4npnxBFFp10ehenZfRbRPwXBJGJW8bikkxBRxF2lwZjAV4h2wohivS5yXaC2baO23AkPv8I+twKIWRGn3iGltuwjH4fg9U+c66zS75R6NeoJMPNMnbkdl4PAShRmD5Kqygoo9+R0iYEEWTLYe3eoxsz1T6AAJTg1bwmBU+DZvZeZzgW4GXIftUZ6UHHoplavMIUjdkQU5zuw8Ir1bykx3g3SwwW9+fTX/ZPWHhl+CrxbE0EKLbfDxIHsfBKcbWYJ/MLXwsBXgjXs3K8y+zP+ZvERWfU/fJVLLhyfFTM3s7ztRxffF8ijJDBXVhw5fgX4vxcR0C+/aAo2C4neWLR1XtzJN+vsssp9x38zBQWXDlW5DSK3Ccgx2LgkLIdcx/PtwA90XjOvQjPYcGV4+vEC3SIgCfK8wYWXT2H9MU6CPBktF8qyTf5yS8IEMxSgF06CHAhnlvAFpylAI9HFxySkCwFuAADiFCGyQRyDAdb8Z/AgqMQnb4AeRSEJ8bvbsaCKznAMv9Xcb2e34b5zzAjZCZAMzoHXocFV45baG3y/5yDTEQKck4dFl4d/rCwZciwHD0E+FFMRFCOl/PaFL0RLQT4DuJ2LLpSJZhP6tGUFDliOBMuY+GV4T+JJ2ghwILjx8bUb2Lh1RnTZumQgBy0DZ8j+1EhgOx5jRjN4Q5pJcC3E5/B4mfOETkmz9AG/Jc1HfEcKybjZ88n6Ew+T4u5MIeJgtygvg8iyJQ3Fkq+USyHWgpwgbwCghCyMyAs0XRE77BhebswJTXz67dwrqnri0nWgUdqBiCGTCz4K8S4PMfXWoAziPdDEKmTKxDvtHR+qIb9gVKEn8LdcOq8lkfy2rq/oC4FOJtYgihS43bZHGZojzEj286VE9shkOZyv4h+Zd+wHQjwQBT0xF3kvRBI0/lnC0+1jrsVL5a9CRBK81ove/mJVtvzIbqx4C9k1eZ/G/JiHG7p5tC1XL8T0W/iKHgM8TcQS+Lcaen6MGEdIuQnA/CCenLkgfBXmZuG2ixsvZNsxS5lZyXRunk1Juknxo3EIxD9phYF+Qt7AOJpmDyN9r3iOy1XIK6aaoOlSizCk4h/hIjq5ivE8yzZjw1M5ZquHMYiPEs2zUBQU+Me4soep9JmQ3z13hVHd5VybBiSkqnV+66zXH8mv80HNHIe5Ku6hyuclJhEH+KqadDkLcQ5SDoSvarz+YnXXguPXE8mvjuJKDY3JzP2p9NnEQbWcbfdWyC+pm7HvmH1iRrhRXjq4ZCE49u0S2DbTSMS9ngiMeFxsnj0OkrOvmi54QzLDSGQNNDjVChDHjJkgdWT/Q26WqvYR9mGyJcyCn1hNOjIDeYRb5Athjqd9x4knlKk3aDbGYAgsrs7Zm+beAJ2KfFJ6fjNs/hekLP8OhD1lDkXcjT04zdIbs1pvXCvNBWcRj843G6omSWHTI6GnyA+Ihet1YXH5tyniBZHPTnaDoutKop9I3GC0infPtvWoraut2T32td5omxXedgo4lqthZKUcsXo3ThoyKcH+BpvK/G1FplY8Cx3rrEbqLefttsyIl7LYrk7YtiOEOKR0tTA2ePLMsKoNqePWxFWctcaj68z0TaZH1z5k6pw11iOmE/9AeLXiI/JhCWrzPk1OR3sNtmG0Bn3SQN5TlZoSzMf4YUOO+RwpLVyMsPzTd6m35A3F3wcuIn4aeJxpsvXizjfaVrCCQy77HNRe4Ys4/DNwlWySX6rNMMGcpDm/im4UnbLTjS+LnSI6+Qd9qn0/+oo9Ad0TkWkAw4Ds79iWP3CgzjXjKYILJbRqpu4mvgtOdfwZsnvEq+XwmXL2DLimcRFxKMpwrWLeYjuTny5AAAAAAAAgLb4P54Tmg2IiGNXAAAAJXRFWHRkYXRlOmNyZWF0ZQAyMDIyLTAyLTI2VDEzOjUwOjI4KzAwOjAw8Y04QAAAACV0RVh0ZGF0ZTptb2RpZnkAMjAyMi0wMi0yNlQxMzo1MDoyOCswMDowMIDQgPwAAAAZdEVYdFNvZnR3YXJlAHd3dy5pbmtzY2FwZS5vcmeb7jwaAAAAAElFTkSuQmCC;container=0;" parent="i0zt0oU-3AJXrjKHt_ms-1" vertex="1">
          <mxGeometry x="-1491.5299999999997" y="-1204" width="30.53" height="30.53" as="geometry" />
        </mxCell>
        <mxCell id="HzdDTih6rlxNozK_kz3W-1" value="&lt;b&gt;&lt;font color=&quot;#ff0000&quot; style=&quot;font-size: 30px;&quot;&gt;A&lt;/font&gt;&lt;/b&gt;" style="text;strokeColor=default;align=center;fillColor=none;html=1;verticalAlign=middle;whiteSpace=wrap;rounded=0;container=0;" parent="i0zt0oU-3AJXrjKHt_ms-1" vertex="1">
          <mxGeometry x="-1520.9999999999998" y="-1632.94" width="30" height="30" as="geometry" />
        </mxCell>
        <mxCell id="i0zt0oU-3AJXrjKHt_ms-38" value="&lt;b&gt;&lt;font style=&quot;font-size: 30px;&quot;&gt;W&lt;/font&gt;&lt;/b&gt;" style="text;strokeColor=default;align=center;fillColor=default;html=1;verticalAlign=middle;whiteSpace=wrap;rounded=0;container=0;" parent="i0zt0oU-3AJXrjKHt_ms-1" vertex="1">
          <mxGeometry x="-1889.9399999999998" y="-1602.94" width="30" height="30" as="geometry" />
        </mxCell>
        <mxCell id="i0zt0oU-3AJXrjKHt_ms-37" value="&lt;b&gt;&lt;font style=&quot;font-size: 30px;&quot;&gt;E&lt;/font&gt;&lt;/b&gt;" style="text;strokeColor=default;align=center;fillColor=default;html=1;verticalAlign=middle;whiteSpace=wrap;rounded=0;container=0;" parent="i0zt0oU-3AJXrjKHt_ms-1" vertex="1">
          <mxGeometry x="-1520.9999999999998" y="-1234" width="30" height="30" as="geometry" />
        </mxCell>
        <mxCell id="HzdDTih6rlxNozK_kz3W-2" value="&lt;b&gt;&lt;font color=&quot;#66b2ff&quot; style=&quot;font-size: 30px;&quot;&gt;B&lt;/font&gt;&lt;/b&gt;" style="text;strokeColor=default;align=center;fillColor=none;html=1;verticalAlign=middle;whiteSpace=wrap;rounded=0;container=0;" parent="i0zt0oU-3AJXrjKHt_ms-1" vertex="1">
          <mxGeometry x="-1490.9999999999998" y="-1604" width="30" height="30" as="geometry" />
        </mxCell>
        <mxCell id="N2LMkY_gqF_srAPKnr6s-74" value="" style="html=1;shadow=0;dashed=0;align=center;verticalAlign=middle;shape=mxgraph.arrows2.arrow;dy=0.51;dx=120.55;notch=0;fillColor=#647687;strokeColor=#314354;fontColor=#ffffff;container=0;" vertex="1" parent="i0zt0oU-3AJXrjKHt_ms-1">
          <mxGeometry x="-1329.8999999999999" y="-1124" width="320" height="170" as="geometry" />
        </mxCell>
        <mxCell id="2ChNvNFg1Hmtz30S6cTf-34" value="&lt;font color=&quot;#999999&quot; style=&quot;font-size: 30px;&quot;&gt;1&lt;/font&gt;" style="whiteSpace=wrap;html=1;aspect=fixed;container=0;" parent="i0zt0oU-3AJXrjKHt_ms-1" vertex="1">
          <mxGeometry x="-1890.9999999999998" y="-1603.47" width="80" height="80" as="geometry" />
        </mxCell>
        <mxCell id="2ChNvNFg1Hmtz30S6cTf-35" value="&lt;font color=&quot;#999999&quot; style=&quot;font-size: 30px;&quot;&gt;2&lt;/font&gt;" style="whiteSpace=wrap;html=1;aspect=fixed;container=0;" parent="i0zt0oU-3AJXrjKHt_ms-1" vertex="1">
          <mxGeometry x="-1810.9999999999998" y="-1603.47" width="80" height="80" as="geometry" />
        </mxCell>
        <mxCell id="2ChNvNFg1Hmtz30S6cTf-36" value="&lt;font color=&quot;#999999&quot; style=&quot;font-size: 30px;&quot;&gt;3&lt;/font&gt;" style="whiteSpace=wrap;html=1;aspect=fixed;container=0;" parent="i0zt0oU-3AJXrjKHt_ms-1" vertex="1">
          <mxGeometry x="-1730.9999999999998" y="-1603.47" width="80" height="80" as="geometry" />
        </mxCell>
        <mxCell id="2ChNvNFg1Hmtz30S6cTf-37" value="&lt;font color=&quot;#999999&quot; style=&quot;font-size: 30px;&quot;&gt;4&lt;/font&gt;" style="whiteSpace=wrap;html=1;aspect=fixed;container=0;" parent="i0zt0oU-3AJXrjKHt_ms-1" vertex="1">
          <mxGeometry x="-1650.9999999999998" y="-1603.47" width="80" height="80" as="geometry" />
        </mxCell>
        <mxCell id="2ChNvNFg1Hmtz30S6cTf-38" value="&lt;font color=&quot;#999999&quot; style=&quot;font-size: 30px;&quot;&gt;5&lt;/font&gt;" style="whiteSpace=wrap;html=1;aspect=fixed;container=0;" parent="i0zt0oU-3AJXrjKHt_ms-1" vertex="1">
          <mxGeometry x="-1570.9999999999998" y="-1603.47" width="80" height="80" as="geometry" />
        </mxCell>
        <mxCell id="2ChNvNFg1Hmtz30S6cTf-39" value="&lt;font color=&quot;#999999&quot; style=&quot;font-size: 30px;&quot;&gt;10&lt;/font&gt;" style="whiteSpace=wrap;html=1;aspect=fixed;container=0;" parent="i0zt0oU-3AJXrjKHt_ms-1" vertex="1">
          <mxGeometry x="-1570.9999999999998" y="-1523.47" width="80" height="80" as="geometry" />
        </mxCell>
        <mxCell id="2ChNvNFg1Hmtz30S6cTf-40" value="&lt;font color=&quot;#999999&quot; style=&quot;font-size: 30px;&quot;&gt;15&lt;/font&gt;" style="whiteSpace=wrap;html=1;aspect=fixed;container=0;" parent="i0zt0oU-3AJXrjKHt_ms-1" vertex="1">
          <mxGeometry x="-1570.9999999999998" y="-1443.47" width="80" height="80" as="geometry" />
        </mxCell>
        <mxCell id="2ChNvNFg1Hmtz30S6cTf-41" value="&lt;font color=&quot;#999999&quot; style=&quot;font-size: 30px;&quot;&gt;20&lt;/font&gt;" style="whiteSpace=wrap;html=1;aspect=fixed;container=0;" parent="i0zt0oU-3AJXrjKHt_ms-1" vertex="1">
          <mxGeometry x="-1570.9999999999998" y="-1363.47" width="80" height="80" as="geometry" />
        </mxCell>
        <mxCell id="2ChNvNFg1Hmtz30S6cTf-42" value="&lt;font color=&quot;#999999&quot; style=&quot;font-size: 30px;&quot;&gt;25&lt;/font&gt;" style="whiteSpace=wrap;html=1;aspect=fixed;container=0;" parent="i0zt0oU-3AJXrjKHt_ms-1" vertex="1">
          <mxGeometry x="-1570.9999999999998" y="-1283.47" width="80" height="80" as="geometry" />
        </mxCell>
        <mxCell id="2ChNvNFg1Hmtz30S6cTf-43" value="&lt;font color=&quot;#999999&quot; style=&quot;font-size: 30px;&quot;&gt;19&lt;/font&gt;" style="whiteSpace=wrap;html=1;aspect=fixed;container=0;" parent="i0zt0oU-3AJXrjKHt_ms-1" vertex="1">
          <mxGeometry x="-1650.9999999999998" y="-1363.47" width="80" height="80" as="geometry" />
        </mxCell>
        <mxCell id="2ChNvNFg1Hmtz30S6cTf-44" value="&lt;font color=&quot;#999999&quot; style=&quot;font-size: 30px;&quot;&gt;14&lt;/font&gt;" style="whiteSpace=wrap;html=1;aspect=fixed;container=0;" parent="i0zt0oU-3AJXrjKHt_ms-1" vertex="1">
          <mxGeometry x="-1650.9999999999998" y="-1443.47" width="80" height="80" as="geometry" />
        </mxCell>
        <mxCell id="2ChNvNFg1Hmtz30S6cTf-45" value="&lt;font color=&quot;#999999&quot; style=&quot;font-size: 30px;&quot;&gt;13&lt;/font&gt;" style="whiteSpace=wrap;html=1;aspect=fixed;container=0;" parent="i0zt0oU-3AJXrjKHt_ms-1" vertex="1">
          <mxGeometry x="-1730.9999999999998" y="-1443.47" width="80" height="80" as="geometry" />
        </mxCell>
        <mxCell id="2ChNvNFg1Hmtz30S6cTf-46" value="&lt;font color=&quot;#999999&quot; style=&quot;font-size: 30px;&quot;&gt;9&lt;/font&gt;" style="whiteSpace=wrap;html=1;aspect=fixed;container=0;" parent="i0zt0oU-3AJXrjKHt_ms-1" vertex="1">
          <mxGeometry x="-1650.9999999999998" y="-1523.47" width="80" height="80" as="geometry" />
        </mxCell>
        <mxCell id="2ChNvNFg1Hmtz30S6cTf-47" value="&lt;font color=&quot;#999999&quot; style=&quot;font-size: 30px;&quot;&gt;8&lt;/font&gt;" style="whiteSpace=wrap;html=1;aspect=fixed;container=0;" parent="i0zt0oU-3AJXrjKHt_ms-1" vertex="1">
          <mxGeometry x="-1730.9999999999998" y="-1523.47" width="80" height="80" as="geometry" />
        </mxCell>
        <mxCell id="2ChNvNFg1Hmtz30S6cTf-48" value="&lt;font color=&quot;#999999&quot; style=&quot;font-size: 30px;&quot;&gt;7&lt;/font&gt;" style="whiteSpace=wrap;html=1;aspect=fixed;container=0;" parent="i0zt0oU-3AJXrjKHt_ms-1" vertex="1">
          <mxGeometry x="-1810.9999999999998" y="-1523.47" width="80" height="80" as="geometry" />
        </mxCell>
        <mxCell id="i0zt0oU-3AJXrjKHt_ms-33" value="" style="html=1;shadow=0;dashed=0;align=center;verticalAlign=middle;shape=mxgraph.arrows2.quadArrow;dy=10;dx=20;notch=24;arrowHead=10;fillColor=#dae8fc;strokeColor=#6c8ebf;container=0;" parent="i0zt0oU-3AJXrjKHt_ms-1" vertex="1">
          <mxGeometry x="-1685.9999999999998" y="-1558.47" width="150" height="150" as="geometry" />
        </mxCell>
        <mxCell id="i0zt0oU-3AJXrjKHt_ms-34" value="" style="shape=image;aspect=fixed;image=data:image/png,iVBORw0KGgoAAAANSUhEUgAAABgAAAAaCAYAAACtv5zzAAAABmJLR0QA/wD/AP+gvaeTAAAACXBIWXMAAAsSAAALEgHS3X78AAAAB3RJTUUH5goWEREWieId2wAAAB1pVFh0Q29tbWVudAAAAAAAQ3JlYXRlZCB3aXRoIEdJTVBkLmUHAAABAElEQVRIx8VVKxKEMAx97CAqkUgkEllZyRE4CkfgKBwBWVm5EolEIutYwWZnyVA+u0P7DDMhSV/y0jTCG0KIGV+w1ka4AFf8AzcjopOnbgIAdIkFAFQyPVUJxbdmBACUkwAAJGUCLxXE3JDphQExqmQ67yUgP4pDsf5/vwauXv4Krp1/DYahBwDUleJabPae7E2rNw8IMEVZjitaHPn5u8kuJqQJVXZk59PkXwMOWRab9jRf7GNvw2oQu3qa5uJUAvKjSihPuF1EN9LVexdM91xtAH8vmlJqte+NMcu3WV44WSf7zJmflDLwLvrMP2POmVGlRxX6myKuxb/QWvuZoheV8Gpm5jJgHAAAAABJRU5ErkJggg==;container=0;" parent="i0zt0oU-3AJXrjKHt_ms-1" vertex="1">
          <mxGeometry x="-1635.4599999999998" y="-1509.97" width="48.92" height="53" as="geometry" />
        </mxCell>
        <mxCell id="N2LMkY_gqF_srAPKnr6s-18" value="" style="whiteSpace=wrap;html=1;aspect=fixed;container=0;" vertex="1" parent="i0zt0oU-3AJXrjKHt_ms-1">
          <mxGeometry x="-558.9999999999998" y="-1193.57" width="80" height="80" as="geometry" />
        </mxCell>
        <mxCell id="N2LMkY_gqF_srAPKnr6s-19" value="" style="whiteSpace=wrap;html=1;aspect=fixed;container=0;" vertex="1" parent="i0zt0oU-3AJXrjKHt_ms-1">
          <mxGeometry x="-638.9999999999998" y="-1193.57" width="80" height="80" as="geometry" />
        </mxCell>
        <mxCell id="N2LMkY_gqF_srAPKnr6s-20" value="" style="whiteSpace=wrap;html=1;aspect=fixed;container=0;" vertex="1" parent="i0zt0oU-3AJXrjKHt_ms-1">
          <mxGeometry x="-718.9999999999998" y="-1193.57" width="80" height="80" as="geometry" />
        </mxCell>
        <mxCell id="N2LMkY_gqF_srAPKnr6s-21" value="" style="whiteSpace=wrap;html=1;aspect=fixed;container=0;" vertex="1" parent="i0zt0oU-3AJXrjKHt_ms-1">
          <mxGeometry x="-798.9999999999998" y="-1193.57" width="80" height="80" as="geometry" />
        </mxCell>
        <mxCell id="N2LMkY_gqF_srAPKnr6s-22" value="" style="whiteSpace=wrap;html=1;aspect=fixed;container=0;" vertex="1" parent="i0zt0oU-3AJXrjKHt_ms-1">
          <mxGeometry x="-878.9999999999998" y="-1193.57" width="80" height="80" as="geometry" />
        </mxCell>
        <mxCell id="N2LMkY_gqF_srAPKnr6s-23" value="" style="whiteSpace=wrap;html=1;aspect=fixed;container=0;" vertex="1" parent="i0zt0oU-3AJXrjKHt_ms-1">
          <mxGeometry x="-878.9999999999998" y="-1273.57" width="80" height="80" as="geometry" />
        </mxCell>
        <mxCell id="N2LMkY_gqF_srAPKnr6s-24" value="" style="whiteSpace=wrap;html=1;aspect=fixed;container=0;" vertex="1" parent="i0zt0oU-3AJXrjKHt_ms-1">
          <mxGeometry x="-878.9999999999998" y="-1353.57" width="80" height="80" as="geometry" />
        </mxCell>
        <mxCell id="N2LMkY_gqF_srAPKnr6s-25" value="" style="whiteSpace=wrap;html=1;aspect=fixed;container=0;" vertex="1" parent="i0zt0oU-3AJXrjKHt_ms-1">
          <mxGeometry x="-878.9999999999998" y="-1433.57" width="80" height="80" as="geometry" />
        </mxCell>
        <mxCell id="N2LMkY_gqF_srAPKnr6s-26" value="" style="whiteSpace=wrap;html=1;aspect=fixed;container=0;" vertex="1" parent="i0zt0oU-3AJXrjKHt_ms-1">
          <mxGeometry x="-878.9999999999998" y="-1513.57" width="80" height="80" as="geometry" />
        </mxCell>
        <mxCell id="N2LMkY_gqF_srAPKnr6s-27" value="" style="whiteSpace=wrap;html=1;aspect=fixed;container=0;" vertex="1" parent="i0zt0oU-3AJXrjKHt_ms-1">
          <mxGeometry x="-798.9999999999998" y="-1433.57" width="80" height="80" as="geometry" />
        </mxCell>
        <mxCell id="N2LMkY_gqF_srAPKnr6s-28" value="" style="whiteSpace=wrap;html=1;aspect=fixed;container=0;" vertex="1" parent="i0zt0oU-3AJXrjKHt_ms-1">
          <mxGeometry x="-798.9999999999998" y="-1353.57" width="80" height="80" as="geometry" />
        </mxCell>
        <mxCell id="N2LMkY_gqF_srAPKnr6s-29" value="" style="whiteSpace=wrap;html=1;aspect=fixed;container=0;" vertex="1" parent="i0zt0oU-3AJXrjKHt_ms-1">
          <mxGeometry x="-718.9999999999998" y="-1353.57" width="80" height="80" as="geometry" />
        </mxCell>
        <mxCell id="N2LMkY_gqF_srAPKnr6s-30" value="" style="whiteSpace=wrap;html=1;aspect=fixed;container=0;" vertex="1" parent="i0zt0oU-3AJXrjKHt_ms-1">
          <mxGeometry x="-798.9999999999998" y="-1273.57" width="80" height="80" as="geometry" />
        </mxCell>
        <mxCell id="N2LMkY_gqF_srAPKnr6s-31" value="" style="whiteSpace=wrap;html=1;aspect=fixed;container=0;" vertex="1" parent="i0zt0oU-3AJXrjKHt_ms-1">
          <mxGeometry x="-718.9999999999998" y="-1273.57" width="80" height="80" as="geometry" />
        </mxCell>
        <mxCell id="N2LMkY_gqF_srAPKnr6s-32" value="" style="whiteSpace=wrap;html=1;aspect=fixed;container=0;" vertex="1" parent="i0zt0oU-3AJXrjKHt_ms-1">
          <mxGeometry x="-638.9999999999998" y="-1273.57" width="80" height="80" as="geometry" />
        </mxCell>
        <mxCell id="H8DF3KGuix6JHBe_pIRM-0" value="" style="html=1;shadow=0;dashed=0;align=center;verticalAlign=middle;shape=mxgraph.arrows2.bendArrow;dy=15;dx=38;notch=0;arrowHead=55;rounded=1;fillColor=#dae8fc;strokeColor=#6c8ebf;rotation=-90;container=0;" vertex="1" parent="i0zt0oU-3AJXrjKHt_ms-1">
          <mxGeometry x="-876.55" y="-1330.09" width="80.76" height="82.02" as="geometry" />
        </mxCell>
        <mxCell id="H8DF3KGuix6JHBe_pIRM-1" value="" style="shape=image;aspect=fixed;image=data:image/png,iVBORw0KGgoAAAANSUhEUgAAABgAAAAaCAYAAACtv5zzAAAABmJLR0QA/wD/AP+gvaeTAAAACXBIWXMAAAsSAAALEgHS3X78AAAAB3RJTUUH5goWEREWieId2wAAAB1pVFh0Q29tbWVudAAAAAAAQ3JlYXRlZCB3aXRoIEdJTVBkLmUHAAABAElEQVRIx8VVKxKEMAx97CAqkUgkEllZyRE4CkfgKBwBWVm5EolEIutYwWZnyVA+u0P7DDMhSV/y0jTCG0KIGV+w1ka4AFf8AzcjopOnbgIAdIkFAFQyPVUJxbdmBACUkwAAJGUCLxXE3JDphQExqmQ67yUgP4pDsf5/vwauXv4Krp1/DYahBwDUleJabPae7E2rNw8IMEVZjitaHPn5u8kuJqQJVXZk59PkXwMOWRab9jRf7GNvw2oQu3qa5uJUAvKjSihPuF1EN9LVexdM91xtAH8vmlJqte+NMcu3WV44WSf7zJmflDLwLvrMP2POmVGlRxX6myKuxb/QWvuZoheV8Gpm5jJgHAAAAABJRU5ErkJggg==;container=0;" vertex="1" parent="i0zt0oU-3AJXrjKHt_ms-1">
          <mxGeometry x="-781.6599999999999" y="-1340" width="48.92" height="53" as="geometry" />
        </mxCell>
        <mxCell id="H8DF3KGuix6JHBe_pIRM-2" value="" style="html=1;shadow=0;dashed=0;align=center;verticalAlign=middle;shape=mxgraph.arrows2.bendArrow;dy=15;dx=38;notch=0;arrowHead=55;rounded=1;fillColor=#dae8fc;strokeColor=#6c8ebf;rotation=-90;flipV=1;container=0;" vertex="1" parent="i0zt0oU-3AJXrjKHt_ms-1">
          <mxGeometry x="-722.1999999999998" y="-1330.09" width="80.76" height="82.02" as="geometry" />
        </mxCell>
        <mxCell id="H8DF3KGuix6JHBe_pIRM-3" value="" style="shape=singleArrow;direction=south;whiteSpace=wrap;html=1;fillColor=#dae8fc;strokeColor=#6c8ebf;arrowWidth=0.36666666666666664;arrowSize=0.40718562874251496;container=0;" vertex="1" parent="i0zt0oU-3AJXrjKHt_ms-1">
          <mxGeometry x="-787.1999999999998" y="-1287" width="60" height="83.5" as="geometry" />
        </mxCell>
        <mxCell id="N2LMkY_gqF_srAPKnr6s-44" value="" style="whiteSpace=wrap;html=1;aspect=fixed;container=0;" vertex="1" parent="i0zt0oU-3AJXrjKHt_ms-1">
          <mxGeometry x="-721.9999999999998" y="-1609.47" width="80" height="80" as="geometry" />
        </mxCell>
        <mxCell id="N2LMkY_gqF_srAPKnr6s-45" value="" style="whiteSpace=wrap;html=1;aspect=fixed;container=0;" vertex="1" parent="i0zt0oU-3AJXrjKHt_ms-1">
          <mxGeometry x="-641.9999999999998" y="-1609.47" width="80" height="80" as="geometry" />
        </mxCell>
        <mxCell id="N2LMkY_gqF_srAPKnr6s-46" value="" style="whiteSpace=wrap;html=1;aspect=fixed;container=0;" vertex="1" parent="i0zt0oU-3AJXrjKHt_ms-1">
          <mxGeometry x="-561.9999999999998" y="-1609.47" width="80" height="80" as="geometry" />
        </mxCell>
        <mxCell id="N2LMkY_gqF_srAPKnr6s-47" value="" style="whiteSpace=wrap;html=1;aspect=fixed;container=0;" vertex="1" parent="i0zt0oU-3AJXrjKHt_ms-1">
          <mxGeometry x="-481.99999999999983" y="-1609.47" width="80" height="80" as="geometry" />
        </mxCell>
        <mxCell id="N2LMkY_gqF_srAPKnr6s-48" value="" style="whiteSpace=wrap;html=1;aspect=fixed;container=0;" vertex="1" parent="i0zt0oU-3AJXrjKHt_ms-1">
          <mxGeometry x="-401.99999999999983" y="-1609.47" width="80" height="80" as="geometry" />
        </mxCell>
        <mxCell id="N2LMkY_gqF_srAPKnr6s-49" value="" style="whiteSpace=wrap;html=1;aspect=fixed;container=0;" vertex="1" parent="i0zt0oU-3AJXrjKHt_ms-1">
          <mxGeometry x="-401.99999999999983" y="-1529.47" width="80" height="80" as="geometry" />
        </mxCell>
        <mxCell id="N2LMkY_gqF_srAPKnr6s-50" value="" style="whiteSpace=wrap;html=1;aspect=fixed;container=0;" vertex="1" parent="i0zt0oU-3AJXrjKHt_ms-1">
          <mxGeometry x="-401.99999999999983" y="-1449.47" width="80" height="80" as="geometry" />
        </mxCell>
        <mxCell id="N2LMkY_gqF_srAPKnr6s-51" value="" style="whiteSpace=wrap;html=1;aspect=fixed;container=0;" vertex="1" parent="i0zt0oU-3AJXrjKHt_ms-1">
          <mxGeometry x="-401.99999999999983" y="-1369.47" width="80" height="80" as="geometry" />
        </mxCell>
        <mxCell id="N2LMkY_gqF_srAPKnr6s-52" value="" style="whiteSpace=wrap;html=1;aspect=fixed;container=0;" vertex="1" parent="i0zt0oU-3AJXrjKHt_ms-1">
          <mxGeometry x="-401.99999999999983" y="-1289.47" width="80" height="80" as="geometry" />
        </mxCell>
        <mxCell id="N2LMkY_gqF_srAPKnr6s-53" value="" style="whiteSpace=wrap;html=1;aspect=fixed;container=0;" vertex="1" parent="i0zt0oU-3AJXrjKHt_ms-1">
          <mxGeometry x="-481.99999999999983" y="-1369.47" width="80" height="80" as="geometry" />
        </mxCell>
        <mxCell id="N2LMkY_gqF_srAPKnr6s-54" value="" style="whiteSpace=wrap;html=1;aspect=fixed;container=0;" vertex="1" parent="i0zt0oU-3AJXrjKHt_ms-1">
          <mxGeometry x="-481.99999999999983" y="-1449.47" width="80" height="80" as="geometry" />
        </mxCell>
        <mxCell id="N2LMkY_gqF_srAPKnr6s-55" value="" style="whiteSpace=wrap;html=1;aspect=fixed;container=0;" vertex="1" parent="i0zt0oU-3AJXrjKHt_ms-1">
          <mxGeometry x="-561.9999999999998" y="-1449.47" width="80" height="80" as="geometry" />
        </mxCell>
        <mxCell id="N2LMkY_gqF_srAPKnr6s-56" value="" style="whiteSpace=wrap;html=1;aspect=fixed;container=0;" vertex="1" parent="i0zt0oU-3AJXrjKHt_ms-1">
          <mxGeometry x="-481.99999999999983" y="-1529.47" width="80" height="80" as="geometry" />
        </mxCell>
        <mxCell id="N2LMkY_gqF_srAPKnr6s-57" value="" style="whiteSpace=wrap;html=1;aspect=fixed;container=0;" vertex="1" parent="i0zt0oU-3AJXrjKHt_ms-1">
          <mxGeometry x="-561.9999999999998" y="-1529.47" width="80" height="80" as="geometry" />
        </mxCell>
        <mxCell id="N2LMkY_gqF_srAPKnr6s-58" value="" style="whiteSpace=wrap;html=1;aspect=fixed;container=0;" vertex="1" parent="i0zt0oU-3AJXrjKHt_ms-1">
          <mxGeometry x="-641.9999999999998" y="-1529.47" width="80" height="80" as="geometry" />
        </mxCell>
        <mxCell id="N2LMkY_gqF_srAPKnr6s-70" value="" style="html=1;shadow=0;dashed=0;align=center;verticalAlign=middle;shape=mxgraph.arrows2.bendArrow;dy=15;dx=38;notch=0;arrowHead=55;rounded=1;fillColor=#dae8fc;strokeColor=#6c8ebf;rotation=-90;container=0;" vertex="1" parent="i0zt0oU-3AJXrjKHt_ms-1">
          <mxGeometry x="-560.3699999999999" y="-1510.09" width="80.76" height="82.02" as="geometry" />
        </mxCell>
        <mxCell id="N2LMkY_gqF_srAPKnr6s-71" value="" style="shape=image;aspect=fixed;image=data:image/png,iVBORw0KGgoAAAANSUhEUgAAABgAAAAaCAYAAACtv5zzAAAABmJLR0QA/wD/AP+gvaeTAAAACXBIWXMAAAsSAAALEgHS3X78AAAAB3RJTUUH5goWEREWieId2wAAAB1pVFh0Q29tbWVudAAAAAAAQ3JlYXRlZCB3aXRoIEdJTVBkLmUHAAABAElEQVRIx8VVKxKEMAx97CAqkUgkEllZyRE4CkfgKBwBWVm5EolEIutYwWZnyVA+u0P7DDMhSV/y0jTCG0KIGV+w1ka4AFf8AzcjopOnbgIAdIkFAFQyPVUJxbdmBACUkwAAJGUCLxXE3JDphQExqmQ67yUgP4pDsf5/vwauXv4Krp1/DYahBwDUleJabPae7E2rNw8IMEVZjitaHPn5u8kuJqQJVXZk59PkXwMOWRab9jRf7GNvw2oQu3qa5uJUAvKjSihPuF1EN9LVexdM91xtAH8vmlJqte+NMcu3WV44WSf7zJmflDLwLvrMP2POmVGlRxX6myKuxb/QWvuZoheV8Gpm5jJgHAAAAABJRU5ErkJggg==;container=0;" vertex="1" parent="i0zt0oU-3AJXrjKHt_ms-1">
          <mxGeometry x="-465.47999999999985" y="-1520" width="48.92" height="53" as="geometry" />
        </mxCell>
        <mxCell id="N2LMkY_gqF_srAPKnr6s-72" value="" style="html=1;shadow=0;dashed=0;align=center;verticalAlign=middle;shape=mxgraph.arrows2.bendArrow;dy=15;dx=38;notch=0;arrowHead=55;rounded=1;fillColor=#dae8fc;strokeColor=#6c8ebf;rotation=-90;flipV=1;container=0;" vertex="1" parent="i0zt0oU-3AJXrjKHt_ms-1">
          <mxGeometry x="-406.01999999999987" y="-1510.09" width="80.76" height="82.02" as="geometry" />
        </mxCell>
        <mxCell id="N2LMkY_gqF_srAPKnr6s-73" value="" style="shape=singleArrow;direction=south;whiteSpace=wrap;html=1;fillColor=#dae8fc;strokeColor=#6c8ebf;arrowWidth=0.36666666666666664;arrowSize=0.40718562874251496;container=0;" vertex="1" parent="i0zt0oU-3AJXrjKHt_ms-1">
          <mxGeometry x="-471.01999999999987" y="-1467" width="60" height="83.5" as="geometry" />
        </mxCell>
        <mxCell id="N2LMkY_gqF_srAPKnr6s-137" value="" style="endArrow=classic;html=1;rounded=0;strokeWidth=2;strokeColor=#999999;sourcePerimeterSpacing=0;targetPerimeterSpacing=0;" edge="1" parent="i0zt0oU-3AJXrjKHt_ms-1">
          <mxGeometry width="50" height="50" relative="1" as="geometry">
            <mxPoint x="-608.9999999999998" y="-1354" as="sourcePoint" />
            <mxPoint x="-568.9999999999998" y="-1354" as="targetPoint" />
          </mxGeometry>
        </mxCell>
        <mxCell id="N2LMkY_gqF_srAPKnr6s-138" value="" style="endArrow=classic;html=1;rounded=0;strokeWidth=2;strokeColor=#999999;" edge="1" parent="i0zt0oU-3AJXrjKHt_ms-1">
          <mxGeometry width="50" height="50" relative="1" as="geometry">
            <mxPoint x="-608.9999999999998" y="-1354" as="sourcePoint" />
            <mxPoint x="-608.9999999999998" y="-1394" as="targetPoint" />
          </mxGeometry>
        </mxCell>
        <mxCell id="N2LMkY_gqF_srAPKnr6s-145" value="" style="whiteSpace=wrap;html=1;aspect=fixed;container=0;" vertex="1" parent="i0zt0oU-3AJXrjKHt_ms-1">
          <mxGeometry x="-558.9999999999998" y="-547.5699999999999" width="80" height="80" as="geometry" />
        </mxCell>
        <mxCell id="N2LMkY_gqF_srAPKnr6s-146" value="" style="whiteSpace=wrap;html=1;aspect=fixed;container=0;" vertex="1" parent="i0zt0oU-3AJXrjKHt_ms-1">
          <mxGeometry x="-638.9999999999998" y="-547.5699999999999" width="80" height="80" as="geometry" />
        </mxCell>
        <mxCell id="N2LMkY_gqF_srAPKnr6s-147" value="" style="whiteSpace=wrap;html=1;aspect=fixed;container=0;" vertex="1" parent="i0zt0oU-3AJXrjKHt_ms-1">
          <mxGeometry x="-718.9999999999998" y="-547.5699999999999" width="80" height="80" as="geometry" />
        </mxCell>
        <mxCell id="N2LMkY_gqF_srAPKnr6s-148" value="" style="whiteSpace=wrap;html=1;aspect=fixed;container=0;" vertex="1" parent="i0zt0oU-3AJXrjKHt_ms-1">
          <mxGeometry x="-798.9999999999998" y="-547.5699999999999" width="80" height="80" as="geometry" />
        </mxCell>
        <mxCell id="N2LMkY_gqF_srAPKnr6s-149" value="" style="whiteSpace=wrap;html=1;aspect=fixed;container=0;" vertex="1" parent="i0zt0oU-3AJXrjKHt_ms-1">
          <mxGeometry x="-878.9999999999998" y="-547.5699999999999" width="80" height="80" as="geometry" />
        </mxCell>
        <mxCell id="N2LMkY_gqF_srAPKnr6s-150" value="" style="whiteSpace=wrap;html=1;aspect=fixed;container=0;" vertex="1" parent="i0zt0oU-3AJXrjKHt_ms-1">
          <mxGeometry x="-878.9999999999998" y="-627.5699999999999" width="80" height="80" as="geometry" />
        </mxCell>
        <mxCell id="N2LMkY_gqF_srAPKnr6s-151" value="" style="whiteSpace=wrap;html=1;aspect=fixed;container=0;" vertex="1" parent="i0zt0oU-3AJXrjKHt_ms-1">
          <mxGeometry x="-878.9999999999998" y="-707.5699999999999" width="80" height="80" as="geometry" />
        </mxCell>
        <mxCell id="N2LMkY_gqF_srAPKnr6s-152" value="" style="whiteSpace=wrap;html=1;aspect=fixed;container=0;" vertex="1" parent="i0zt0oU-3AJXrjKHt_ms-1">
          <mxGeometry x="-878.9999999999998" y="-787.5699999999999" width="80" height="80" as="geometry" />
        </mxCell>
        <mxCell id="N2LMkY_gqF_srAPKnr6s-153" value="" style="whiteSpace=wrap;html=1;aspect=fixed;container=0;" vertex="1" parent="i0zt0oU-3AJXrjKHt_ms-1">
          <mxGeometry x="-878.9999999999998" y="-867.5699999999999" width="80" height="80" as="geometry" />
        </mxCell>
        <mxCell id="N2LMkY_gqF_srAPKnr6s-154" value="" style="whiteSpace=wrap;html=1;aspect=fixed;container=0;" vertex="1" parent="i0zt0oU-3AJXrjKHt_ms-1">
          <mxGeometry x="-798.9999999999998" y="-787.5699999999999" width="80" height="80" as="geometry" />
        </mxCell>
        <mxCell id="N2LMkY_gqF_srAPKnr6s-155" value="" style="whiteSpace=wrap;html=1;aspect=fixed;container=0;" vertex="1" parent="i0zt0oU-3AJXrjKHt_ms-1">
          <mxGeometry x="-798.9999999999998" y="-707.5699999999999" width="80" height="80" as="geometry" />
        </mxCell>
        <mxCell id="N2LMkY_gqF_srAPKnr6s-156" value="" style="whiteSpace=wrap;html=1;aspect=fixed;container=0;" vertex="1" parent="i0zt0oU-3AJXrjKHt_ms-1">
          <mxGeometry x="-718.9999999999998" y="-707.5699999999999" width="80" height="80" as="geometry" />
        </mxCell>
        <mxCell id="N2LMkY_gqF_srAPKnr6s-157" value="" style="whiteSpace=wrap;html=1;aspect=fixed;container=0;" vertex="1" parent="i0zt0oU-3AJXrjKHt_ms-1">
          <mxGeometry x="-798.9999999999998" y="-627.5699999999999" width="80" height="80" as="geometry" />
        </mxCell>
        <mxCell id="N2LMkY_gqF_srAPKnr6s-158" value="" style="whiteSpace=wrap;html=1;aspect=fixed;container=0;" vertex="1" parent="i0zt0oU-3AJXrjKHt_ms-1">
          <mxGeometry x="-718.9999999999998" y="-627.5699999999999" width="80" height="80" as="geometry" />
        </mxCell>
        <mxCell id="N2LMkY_gqF_srAPKnr6s-159" value="" style="whiteSpace=wrap;html=1;aspect=fixed;container=0;" vertex="1" parent="i0zt0oU-3AJXrjKHt_ms-1">
          <mxGeometry x="-638.9999999999998" y="-627.5699999999999" width="80" height="80" as="geometry" />
        </mxCell>
        <mxCell id="N2LMkY_gqF_srAPKnr6s-161" value="" style="html=1;shadow=0;dashed=0;align=center;verticalAlign=middle;shape=mxgraph.arrows2.bendArrow;dy=15;dx=38;notch=0;arrowHead=55;rounded=1;fillColor=#dae8fc;strokeColor=#6c8ebf;rotation=-90;container=0;" vertex="1" parent="i0zt0oU-3AJXrjKHt_ms-1">
          <mxGeometry x="-876.55" y="-684.09" width="80.76" height="82.02" as="geometry" />
        </mxCell>
        <mxCell id="N2LMkY_gqF_srAPKnr6s-162" value="" style="shape=image;aspect=fixed;image=data:image/png,iVBORw0KGgoAAAANSUhEUgAAABgAAAAaCAYAAACtv5zzAAAABmJLR0QA/wD/AP+gvaeTAAAACXBIWXMAAAsSAAALEgHS3X78AAAAB3RJTUUH5goWEREWieId2wAAAB1pVFh0Q29tbWVudAAAAAAAQ3JlYXRlZCB3aXRoIEdJTVBkLmUHAAABAElEQVRIx8VVKxKEMAx97CAqkUgkEllZyRE4CkfgKBwBWVm5EolEIutYwWZnyVA+u0P7DDMhSV/y0jTCG0KIGV+w1ka4AFf8AzcjopOnbgIAdIkFAFQyPVUJxbdmBACUkwAAJGUCLxXE3JDphQExqmQ67yUgP4pDsf5/vwauXv4Krp1/DYahBwDUleJabPae7E2rNw8IMEVZjitaHPn5u8kuJqQJVXZk59PkXwMOWRab9jRf7GNvw2oQu3qa5uJUAvKjSihPuF1EN9LVexdM91xtAH8vmlJqte+NMcu3WV44WSf7zJmflDLwLvrMP2POmVGlRxX6myKuxb/QWvuZoheV8Gpm5jJgHAAAAABJRU5ErkJggg==;container=0;" vertex="1" parent="i0zt0oU-3AJXrjKHt_ms-1">
          <mxGeometry x="-781.6599999999999" y="-694" width="48.92" height="53" as="geometry" />
        </mxCell>
        <mxCell id="N2LMkY_gqF_srAPKnr6s-163" value="" style="html=1;shadow=0;dashed=0;align=center;verticalAlign=middle;shape=mxgraph.arrows2.bendArrow;dy=15;dx=38;notch=0;arrowHead=55;rounded=1;fillColor=#dae8fc;strokeColor=#6c8ebf;rotation=-90;flipV=1;container=0;" vertex="1" parent="i0zt0oU-3AJXrjKHt_ms-1">
          <mxGeometry x="-722.1999999999998" y="-684.09" width="80.76" height="82.02" as="geometry" />
        </mxCell>
        <mxCell id="N2LMkY_gqF_srAPKnr6s-164" value="" style="shape=singleArrow;direction=south;whiteSpace=wrap;html=1;fillColor=#dae8fc;strokeColor=#6c8ebf;arrowWidth=0.36666666666666664;arrowSize=0.40718562874251496;container=0;" vertex="1" parent="i0zt0oU-3AJXrjKHt_ms-1">
          <mxGeometry x="-787.1999999999998" y="-641" width="60" height="83.5" as="geometry" />
        </mxCell>
        <mxCell id="N2LMkY_gqF_srAPKnr6s-173" value="" style="whiteSpace=wrap;html=1;aspect=fixed;container=0;" vertex="1" parent="i0zt0oU-3AJXrjKHt_ms-1">
          <mxGeometry x="-721.9999999999998" y="-963.47" width="80" height="80" as="geometry" />
        </mxCell>
        <mxCell id="N2LMkY_gqF_srAPKnr6s-174" value="" style="whiteSpace=wrap;html=1;aspect=fixed;container=0;" vertex="1" parent="i0zt0oU-3AJXrjKHt_ms-1">
          <mxGeometry x="-641.9999999999998" y="-963.47" width="80" height="80" as="geometry" />
        </mxCell>
        <mxCell id="N2LMkY_gqF_srAPKnr6s-175" value="" style="whiteSpace=wrap;html=1;aspect=fixed;container=0;" vertex="1" parent="i0zt0oU-3AJXrjKHt_ms-1">
          <mxGeometry x="-561.9999999999998" y="-963.47" width="80" height="80" as="geometry" />
        </mxCell>
        <mxCell id="N2LMkY_gqF_srAPKnr6s-176" value="" style="whiteSpace=wrap;html=1;aspect=fixed;container=0;" vertex="1" parent="i0zt0oU-3AJXrjKHt_ms-1">
          <mxGeometry x="-481.99999999999983" y="-963.47" width="80" height="80" as="geometry" />
        </mxCell>
        <mxCell id="N2LMkY_gqF_srAPKnr6s-177" value="" style="whiteSpace=wrap;html=1;aspect=fixed;container=0;" vertex="1" parent="i0zt0oU-3AJXrjKHt_ms-1">
          <mxGeometry x="-401.99999999999983" y="-963.47" width="80" height="80" as="geometry" />
        </mxCell>
        <mxCell id="N2LMkY_gqF_srAPKnr6s-178" value="" style="whiteSpace=wrap;html=1;aspect=fixed;container=0;" vertex="1" parent="i0zt0oU-3AJXrjKHt_ms-1">
          <mxGeometry x="-401.99999999999983" y="-883.47" width="80" height="80" as="geometry" />
        </mxCell>
        <mxCell id="N2LMkY_gqF_srAPKnr6s-179" value="" style="whiteSpace=wrap;html=1;aspect=fixed;container=0;" vertex="1" parent="i0zt0oU-3AJXrjKHt_ms-1">
          <mxGeometry x="-401.99999999999983" y="-803.47" width="80" height="80" as="geometry" />
        </mxCell>
        <mxCell id="N2LMkY_gqF_srAPKnr6s-180" value="" style="whiteSpace=wrap;html=1;aspect=fixed;container=0;" vertex="1" parent="i0zt0oU-3AJXrjKHt_ms-1">
          <mxGeometry x="-401.99999999999983" y="-723.47" width="80" height="80" as="geometry" />
        </mxCell>
        <mxCell id="N2LMkY_gqF_srAPKnr6s-181" value="" style="whiteSpace=wrap;html=1;aspect=fixed;container=0;" vertex="1" parent="i0zt0oU-3AJXrjKHt_ms-1">
          <mxGeometry x="-401.99999999999983" y="-643.47" width="80" height="80" as="geometry" />
        </mxCell>
        <mxCell id="N2LMkY_gqF_srAPKnr6s-182" value="" style="whiteSpace=wrap;html=1;aspect=fixed;container=0;" vertex="1" parent="i0zt0oU-3AJXrjKHt_ms-1">
          <mxGeometry x="-481.99999999999983" y="-723.47" width="80" height="80" as="geometry" />
        </mxCell>
        <mxCell id="N2LMkY_gqF_srAPKnr6s-183" value="" style="whiteSpace=wrap;html=1;aspect=fixed;container=0;" vertex="1" parent="i0zt0oU-3AJXrjKHt_ms-1">
          <mxGeometry x="-481.99999999999983" y="-803.47" width="80" height="80" as="geometry" />
        </mxCell>
        <mxCell id="N2LMkY_gqF_srAPKnr6s-184" value="" style="whiteSpace=wrap;html=1;aspect=fixed;container=0;" vertex="1" parent="i0zt0oU-3AJXrjKHt_ms-1">
          <mxGeometry x="-561.9999999999998" y="-803.47" width="80" height="80" as="geometry" />
        </mxCell>
        <mxCell id="N2LMkY_gqF_srAPKnr6s-185" value="" style="whiteSpace=wrap;html=1;aspect=fixed;container=0;" vertex="1" parent="i0zt0oU-3AJXrjKHt_ms-1">
          <mxGeometry x="-481.99999999999983" y="-883.47" width="80" height="80" as="geometry" />
        </mxCell>
        <mxCell id="N2LMkY_gqF_srAPKnr6s-186" value="" style="whiteSpace=wrap;html=1;aspect=fixed;container=0;" vertex="1" parent="i0zt0oU-3AJXrjKHt_ms-1">
          <mxGeometry x="-561.9999999999998" y="-883.47" width="80" height="80" as="geometry" />
        </mxCell>
        <mxCell id="N2LMkY_gqF_srAPKnr6s-187" value="" style="whiteSpace=wrap;html=1;aspect=fixed;container=0;" vertex="1" parent="i0zt0oU-3AJXrjKHt_ms-1">
          <mxGeometry x="-641.9999999999998" y="-883.47" width="80" height="80" as="geometry" />
        </mxCell>
        <mxCell id="N2LMkY_gqF_srAPKnr6s-189" value="" style="html=1;shadow=0;dashed=0;align=center;verticalAlign=middle;shape=mxgraph.arrows2.bendArrow;dy=15;dx=38;notch=0;arrowHead=55;rounded=1;fillColor=#dae8fc;strokeColor=#6c8ebf;rotation=-90;container=0;" vertex="1" parent="i0zt0oU-3AJXrjKHt_ms-1">
          <mxGeometry x="-560.3699999999999" y="-864.09" width="80.76" height="82.02" as="geometry" />
        </mxCell>
        <mxCell id="N2LMkY_gqF_srAPKnr6s-190" value="" style="shape=image;aspect=fixed;image=data:image/png,iVBORw0KGgoAAAANSUhEUgAAABgAAAAaCAYAAACtv5zzAAAABmJLR0QA/wD/AP+gvaeTAAAACXBIWXMAAAsSAAALEgHS3X78AAAAB3RJTUUH5goWEREWieId2wAAAB1pVFh0Q29tbWVudAAAAAAAQ3JlYXRlZCB3aXRoIEdJTVBkLmUHAAABAElEQVRIx8VVKxKEMAx97CAqkUgkEllZyRE4CkfgKBwBWVm5EolEIutYwWZnyVA+u0P7DDMhSV/y0jTCG0KIGV+w1ka4AFf8AzcjopOnbgIAdIkFAFQyPVUJxbdmBACUkwAAJGUCLxXE3JDphQExqmQ67yUgP4pDsf5/vwauXv4Krp1/DYahBwDUleJabPae7E2rNw8IMEVZjitaHPn5u8kuJqQJVXZk59PkXwMOWRab9jRf7GNvw2oQu3qa5uJUAvKjSihPuF1EN9LVexdM91xtAH8vmlJqte+NMcu3WV44WSf7zJmflDLwLvrMP2POmVGlRxX6myKuxb/QWvuZoheV8Gpm5jJgHAAAAABJRU5ErkJggg==;container=0;" vertex="1" parent="i0zt0oU-3AJXrjKHt_ms-1">
          <mxGeometry x="-465.47999999999985" y="-874" width="48.92" height="53" as="geometry" />
        </mxCell>
        <mxCell id="N2LMkY_gqF_srAPKnr6s-191" value="" style="html=1;shadow=0;dashed=0;align=center;verticalAlign=middle;shape=mxgraph.arrows2.bendArrow;dy=15;dx=38;notch=0;arrowHead=55;rounded=1;fillColor=#dae8fc;strokeColor=#6c8ebf;rotation=-90;flipV=1;container=0;" vertex="1" parent="i0zt0oU-3AJXrjKHt_ms-1">
          <mxGeometry x="-406.01999999999987" y="-864.09" width="80.76" height="82.02" as="geometry" />
        </mxCell>
        <mxCell id="N2LMkY_gqF_srAPKnr6s-192" value="" style="shape=singleArrow;direction=south;whiteSpace=wrap;html=1;fillColor=#dae8fc;strokeColor=#6c8ebf;arrowWidth=0.36666666666666664;arrowSize=0.40718562874251496;container=0;" vertex="1" parent="i0zt0oU-3AJXrjKHt_ms-1">
          <mxGeometry x="-471.01999999999987" y="-821" width="60" height="83.5" as="geometry" />
        </mxCell>
        <mxCell id="N2LMkY_gqF_srAPKnr6s-203" value="" style="curved=1;endArrow=none;html=1;rounded=0;strokeWidth=2;strokeColor=#999999;endFill=0;" edge="1" parent="i0zt0oU-3AJXrjKHt_ms-1">
          <mxGeometry width="50" height="50" relative="1" as="geometry">
            <mxPoint x="-598.9999999999998" y="-734" as="sourcePoint" />
            <mxPoint x="-588.9999999999998" y="-714" as="targetPoint" />
            <Array as="points">
              <mxPoint x="-588.9999999999998" y="-724" />
            </Array>
          </mxGeometry>
        </mxCell>
        <mxCell id="N2LMkY_gqF_srAPKnr6s-201" value="" style="endArrow=classic;html=1;rounded=0;strokeWidth=2;strokeColor=#999999;sourcePerimeterSpacing=0;targetPerimeterSpacing=0;" edge="1" parent="i0zt0oU-3AJXrjKHt_ms-1">
          <mxGeometry width="50" height="50" relative="1" as="geometry">
            <mxPoint x="-608.9999999999998" y="-714" as="sourcePoint" />
            <mxPoint x="-568.9999999999998" y="-714" as="targetPoint" />
          </mxGeometry>
        </mxCell>
        <mxCell id="N2LMkY_gqF_srAPKnr6s-202" value="" style="endArrow=classic;html=1;rounded=0;strokeWidth=2;strokeColor=#999999;" edge="1" parent="i0zt0oU-3AJXrjKHt_ms-1">
          <mxGeometry width="50" height="50" relative="1" as="geometry">
            <mxPoint x="-608.9999999999998" y="-714" as="sourcePoint" />
            <mxPoint x="-588.9999999999998" y="-754" as="targetPoint" />
          </mxGeometry>
        </mxCell>
      </root>
    </mxGraphModel>
  </diagram>
</mxfile>
